M48
;Layer_Color=9474304
;FILE_FORMAT=2:4
INCH,TZ
;TYPE=PLATED
T1F00S00C0.0157
T2F00S00C0.0236
T3F00S00C0.0315
T4F00S00C0.0551
;TYPE=NON_PLATED
T5F00S00C0.0354
T6F00S00C0.0591
T7F00S00C0.1181
%
T01
X394Y2362
X1299Y4449
X2480
X2953Y5315
X4134Y4724
X3346Y2165
X4528Y787
X2362Y394
X6299Y787
X5709Y2559
X6496Y3150
Y3740
X8071Y3346
X8898Y3819
X9252Y4331
X9882Y4134
X9528Y5079
X7657Y5374
X7677Y4724
X7283Y2362
X8661Y2559
X9291Y2362
X9803Y2815
X10650Y2638
X11614Y787
X12598Y1772
X12402Y4331
X14173Y2953
X15748Y3150
Y4213
X16929Y1575
X17323Y394
X18307Y2953
X19291Y2362
X17126Y7874
X15945Y6890
X14370Y7087
X14173Y8858
X12677Y8819
X12835Y10551
X12756Y11654
X12008Y12402
X11181Y11988
X10970Y10616
X10433Y10591
X10000
X9567
X9783Y10250
X9449Y9843
X10591Y9882
X11535Y10236
X9843Y8858
X9882Y8110
X9488Y7323
X10433Y7441
X9488Y6063
X7559Y6043
X6299Y6043
X5669Y6043
X7047Y8346
X6772Y8661
X7047Y8976
X6772Y9291
X7047Y9606
X6772Y9921
X7087Y11220
X5906Y11614
X6496Y13386
Y15354
X7677Y14567
X8465Y15551
X8661Y13583
X8780Y12441
X8819Y11929
X9803Y11693
X10039Y12795
Y14173
X11417Y15551
X11760Y16415
X10935Y16713
X13799Y17087
X14803Y16732
X17067Y17087
X17717Y13780
X18504
X16339Y12795
X16929Y11811
X17126Y10433
X14961
X15157Y11811
X13189Y12795
X12598Y14370
X12421Y7008
X11811Y6299
X8268Y8031
X8976Y8740
X8268Y10236
X15748Y9252
X5315
X5512Y10433
X5315Y12598
X3268Y12835
X2272Y12992
X1768Y14177
X3209Y14665
X3268Y16024
X2362Y17165
X394Y17323
X2362Y19291
X5315Y14961
X3272Y11146
X4134Y9055
Y7283
X2953
X4409Y6043
X5000Y6024
X5118Y8071
T02
X1850Y2953
X2402Y2953
X4567Y2874
X7677Y16929
X8268Y17520
X7520Y18150
T03
X787Y5480
X9398Y1787
X10398
X11398
X10898Y787
X9898
X8898
X13327Y772
X14327
X15327
X14827Y1772
X13827
X15827
X17953Y4079
Y5079
X18953Y4579
Y3579
Y7004
Y8004
X17953Y8504
Y7504
Y10929
Y11929
X18953Y11429
Y10429
X15799Y17976
X14799
X13799
X14299Y18976
X15299
X16299
X6043Y19110
X5984Y16142
X4016Y16142
X3543Y18110
X4543
X5543
X5043Y19110
X4043
X2598Y10236
X2598Y8268
X787Y7480
Y6480
T04
X7874Y18898
X9252
X10630
X12008
X787Y15748
Y14370
Y12992
Y11614
X787Y10236
Y8858
T05
X4646Y2323
X6378
T06
X8346Y1496
X16378Y1063
X18661Y5630
Y9055
Y12480
X16850Y18268
X2992Y18819
T07
X1181Y1181
X18504
Y18504
X1181
M30
