G04 Layer_Color=16711935*
%FSLAX24Y24*%
%MOIN*%
G70*
G01*
G75*
G04:AMPARAMS|DCode=55|XSize=47.2mil|YSize=43.3mil|CornerRadius=8.4mil|HoleSize=0mil|Usage=FLASHONLY|Rotation=270.000|XOffset=0mil|YOffset=0mil|HoleType=Round|Shape=RoundedRectangle|*
%AMROUNDEDRECTD55*
21,1,0.0472,0.0266,0,0,270.0*
21,1,0.0305,0.0433,0,0,270.0*
1,1,0.0167,-0.0133,-0.0153*
1,1,0.0167,-0.0133,0.0153*
1,1,0.0167,0.0133,0.0153*
1,1,0.0167,0.0133,-0.0153*
%
%ADD55ROUNDEDRECTD55*%
G04:AMPARAMS|DCode=56|XSize=47.2mil|YSize=43.3mil|CornerRadius=8.4mil|HoleSize=0mil|Usage=FLASHONLY|Rotation=180.000|XOffset=0mil|YOffset=0mil|HoleType=Round|Shape=RoundedRectangle|*
%AMROUNDEDRECTD56*
21,1,0.0472,0.0266,0,0,180.0*
21,1,0.0305,0.0433,0,0,180.0*
1,1,0.0167,-0.0153,0.0133*
1,1,0.0167,0.0153,0.0133*
1,1,0.0167,0.0153,-0.0133*
1,1,0.0167,-0.0153,-0.0133*
%
%ADD56ROUNDEDRECTD56*%
%ADD67C,0.1024*%
%ADD68C,0.0610*%
%ADD69R,0.0610X0.0610*%
%ADD70R,0.0610X0.0610*%
%ADD71C,0.0433*%
%ADD72C,0.0591*%
%ADD73C,0.0079*%
%ADD74C,0.0866*%
G04:AMPARAMS|DCode=75|XSize=78.7mil|YSize=53.2mil|CornerRadius=9.6mil|HoleSize=0mil|Usage=FLASHONLY|Rotation=0.000|XOffset=0mil|YOffset=0mil|HoleType=Round|Shape=RoundedRectangle|*
%AMROUNDEDRECTD75*
21,1,0.0787,0.0340,0,0,0.0*
21,1,0.0595,0.0532,0,0,0.0*
1,1,0.0192,0.0298,-0.0170*
1,1,0.0192,-0.0298,-0.0170*
1,1,0.0192,-0.0298,0.0170*
1,1,0.0192,0.0298,0.0170*
%
%ADD75ROUNDEDRECTD75*%
G04:AMPARAMS|DCode=76|XSize=78.7mil|YSize=59.1mil|CornerRadius=10.3mil|HoleSize=0mil|Usage=FLASHONLY|Rotation=0.000|XOffset=0mil|YOffset=0mil|HoleType=Round|Shape=RoundedRectangle|*
%AMROUNDEDRECTD76*
21,1,0.0787,0.0384,0,0,0.0*
21,1,0.0581,0.0591,0,0,0.0*
1,1,0.0207,0.0290,-0.0192*
1,1,0.0207,-0.0290,-0.0192*
1,1,0.0207,-0.0290,0.0192*
1,1,0.0207,0.0290,0.0192*
%
%ADD76ROUNDEDRECTD76*%
%ADD77R,0.0729X0.0319*%
%ADD78R,0.1899X0.1859*%
%ADD79O,0.0362X0.0780*%
%ADD80R,0.0362X0.0780*%
%ADD81R,0.0315X0.0689*%
%ADD82O,0.0315X0.0689*%
%ADD83R,0.0197X0.0650*%
%ADD84O,0.0197X0.0650*%
D55*
X16398Y17087D02*
D03*
X17067D02*
D03*
X13130D02*
D03*
X13799D02*
D03*
X17067Y13425D02*
D03*
X16398D02*
D03*
X13169Y13386D02*
D03*
X13839D02*
D03*
X16437Y3071D02*
D03*
X17106D02*
D03*
X16437Y5079D02*
D03*
X17106D02*
D03*
X10650Y2638D02*
D03*
X9980D02*
D03*
X11909D02*
D03*
X11240D02*
D03*
X16437Y4449D02*
D03*
X17106D02*
D03*
X16437Y3701D02*
D03*
X17106D02*
D03*
D56*
X1693Y5177D02*
D03*
Y5846D02*
D03*
X4409Y6713D02*
D03*
Y6043D02*
D03*
X5039Y6713D02*
D03*
Y6043D02*
D03*
X5669Y6713D02*
D03*
Y6043D02*
D03*
X6299Y6713D02*
D03*
Y6043D02*
D03*
X6929Y6713D02*
D03*
Y6043D02*
D03*
X7559Y6713D02*
D03*
Y6043D02*
D03*
D67*
X787Y11614D02*
D03*
Y12992D02*
D03*
Y15748D02*
D03*
Y14370D02*
D03*
X9252Y18898D02*
D03*
X7874D02*
D03*
X10630D02*
D03*
X12008D02*
D03*
X787Y8858D02*
D03*
Y10236D02*
D03*
D68*
X2598Y8268D02*
D03*
X4016Y16142D02*
D03*
D69*
X2598Y10236D02*
D03*
D70*
X5984Y16142D02*
D03*
D71*
X6378Y2323D02*
D03*
X4646D02*
D03*
D72*
X9398Y1787D02*
D03*
X10398D02*
D03*
X10898Y787D02*
D03*
X11398Y1787D02*
D03*
X8898Y787D02*
D03*
X9898D02*
D03*
X15799Y17976D02*
D03*
X16299Y18976D02*
D03*
X14799Y17976D02*
D03*
X13799D02*
D03*
X15299Y18976D02*
D03*
X14299D02*
D03*
X15327Y772D02*
D03*
X15827Y1772D02*
D03*
X14327Y772D02*
D03*
X13327D02*
D03*
X14827Y1772D02*
D03*
X13827D02*
D03*
X18953Y4579D02*
D03*
X17953Y4079D02*
D03*
X18953Y3579D02*
D03*
X17953Y5079D02*
D03*
X18953Y11429D02*
D03*
X17953Y10929D02*
D03*
X18953Y10429D02*
D03*
X17953Y11929D02*
D03*
X4043Y19110D02*
D03*
X3543Y18110D02*
D03*
X5043Y19110D02*
D03*
X6043D02*
D03*
X4543Y18110D02*
D03*
X5543D02*
D03*
X18953Y7004D02*
D03*
X17953Y7504D02*
D03*
X18953Y8004D02*
D03*
X17953Y8504D02*
D03*
X787Y6480D02*
D03*
Y5480D02*
D03*
Y7480D02*
D03*
D73*
X8346Y1496D02*
D03*
X16850Y18268D02*
D03*
X16378Y1063D02*
D03*
X18661Y5630D02*
D03*
Y12480D02*
D03*
X2992Y18819D02*
D03*
X18661Y9055D02*
D03*
D74*
X1181Y18504D02*
D03*
X18504D02*
D03*
Y1181D02*
D03*
X1181D02*
D03*
D75*
X3543Y4173D02*
D03*
Y2992D02*
D03*
X1850Y7677D02*
D03*
Y6496D02*
D03*
D76*
X4606Y4154D02*
D03*
Y3012D02*
D03*
D77*
X9823Y17915D02*
D03*
Y16915D02*
D03*
Y17415D02*
D03*
Y16415D02*
D03*
D78*
X8320Y17165D02*
D03*
D79*
X3272Y11150D02*
D03*
X2772D02*
D03*
X2272D02*
D03*
X1772D02*
D03*
X3272Y12992D02*
D03*
X2772D02*
D03*
X2272D02*
D03*
X1768Y16134D02*
D03*
X2268D02*
D03*
X2768D02*
D03*
X3268D02*
D03*
X1768Y14291D02*
D03*
X2268D02*
D03*
X2768D02*
D03*
D80*
X1772Y12992D02*
D03*
X3268Y14291D02*
D03*
D81*
X16850Y14173D02*
D03*
D82*
X16350D02*
D03*
X15850D02*
D03*
X15350D02*
D03*
X14850D02*
D03*
X14350D02*
D03*
X13850D02*
D03*
X13350D02*
D03*
X16850Y16299D02*
D03*
X16350D02*
D03*
X15850D02*
D03*
X15350D02*
D03*
X14850D02*
D03*
X14350D02*
D03*
X13850D02*
D03*
X13350D02*
D03*
D83*
X10748Y5354D02*
D03*
D84*
X10945D02*
D03*
X11142D02*
D03*
X11339D02*
D03*
X11535D02*
D03*
X10748Y3622D02*
D03*
X10945D02*
D03*
X11142D02*
D03*
X11339D02*
D03*
X11535D02*
D03*
M02*
