G04 Layer_Physical_Order=1*
G04 Layer_Color=255*
%FSLAX24Y24*%
%MOIN*%
G70*
G01*
G75*
G04:AMPARAMS|DCode=10|XSize=59.1mil|YSize=35.4mil|CornerRadius=8.9mil|HoleSize=0mil|Usage=FLASHONLY|Rotation=180.000|XOffset=0mil|YOffset=0mil|HoleType=Round|Shape=RoundedRectangle|*
%AMROUNDEDRECTD10*
21,1,0.0591,0.0177,0,0,180.0*
21,1,0.0413,0.0354,0,0,180.0*
1,1,0.0177,-0.0207,0.0089*
1,1,0.0177,0.0207,0.0089*
1,1,0.0177,0.0207,-0.0089*
1,1,0.0177,-0.0207,-0.0089*
%
%ADD10ROUNDEDRECTD10*%
%ADD11O,0.0689X0.0217*%
%ADD12O,0.0217X0.0689*%
G04:AMPARAMS|DCode=13|XSize=39.4mil|YSize=35.4mil|CornerRadius=4.4mil|HoleSize=0mil|Usage=FLASHONLY|Rotation=270.000|XOffset=0mil|YOffset=0mil|HoleType=Round|Shape=RoundedRectangle|*
%AMROUNDEDRECTD13*
21,1,0.0394,0.0266,0,0,270.0*
21,1,0.0305,0.0354,0,0,270.0*
1,1,0.0089,-0.0133,-0.0153*
1,1,0.0089,-0.0133,0.0153*
1,1,0.0089,0.0133,0.0153*
1,1,0.0089,0.0133,-0.0153*
%
%ADD13ROUNDEDRECTD13*%
G04:AMPARAMS|DCode=14|XSize=39.4mil|YSize=35.4mil|CornerRadius=4.4mil|HoleSize=0mil|Usage=FLASHONLY|Rotation=180.000|XOffset=0mil|YOffset=0mil|HoleType=Round|Shape=RoundedRectangle|*
%AMROUNDEDRECTD14*
21,1,0.0394,0.0266,0,0,180.0*
21,1,0.0305,0.0354,0,0,180.0*
1,1,0.0089,-0.0153,0.0133*
1,1,0.0089,0.0153,0.0133*
1,1,0.0089,0.0153,-0.0133*
1,1,0.0089,-0.0153,-0.0133*
%
%ADD14ROUNDEDRECTD14*%
G04:AMPARAMS|DCode=15|XSize=98.4mil|YSize=86.6mil|CornerRadius=10.8mil|HoleSize=0mil|Usage=FLASHONLY|Rotation=0.000|XOffset=0mil|YOffset=0mil|HoleType=Round|Shape=RoundedRectangle|*
%AMROUNDEDRECTD15*
21,1,0.0984,0.0650,0,0,0.0*
21,1,0.0768,0.0866,0,0,0.0*
1,1,0.0217,0.0384,-0.0325*
1,1,0.0217,-0.0384,-0.0325*
1,1,0.0217,-0.0384,0.0325*
1,1,0.0217,0.0384,0.0325*
%
%ADD15ROUNDEDRECTD15*%
%ADD16R,0.0787X0.0984*%
%ADD17R,0.0197X0.0886*%
%ADD18R,0.0197X0.0394*%
%ADD19R,0.0394X0.0394*%
%ADD20R,0.0630X0.0787*%
%ADD21R,0.0413X0.0236*%
%ADD22R,0.0472X0.0236*%
%ADD23O,0.0472X0.0236*%
%ADD24R,0.0787X0.0394*%
%ADD25C,0.0197*%
%ADD26C,0.0394*%
%ADD27C,0.0157*%
%ADD28C,0.0118*%
%ADD29C,0.0236*%
%ADD30C,0.0945*%
%ADD31C,0.0532*%
%ADD32R,0.0532X0.0532*%
%ADD33R,0.0532X0.0532*%
%ADD34C,0.0354*%
%ADD35C,0.0512*%
%ADD36C,0.0787*%
%ADD37C,0.0315*%
%ADD38C,0.0394*%
G36*
X11594Y9708D02*
X11612Y9663D01*
X11601Y9606D01*
X11615Y9533D01*
X11648Y9449D01*
X11615Y9364D01*
X11601Y9291D01*
X11615Y9218D01*
X11648Y9134D01*
X11615Y9049D01*
X11601Y8976D01*
X11615Y8903D01*
X11648Y8819D01*
X11615Y8734D01*
X11601Y8661D01*
X11615Y8588D01*
X11648Y8504D01*
X11615Y8419D01*
X11612Y8406D01*
X12028D01*
Y8287D01*
X11607D01*
X11592Y8180D01*
X11540Y8145D01*
X11540Y8145D01*
X11311Y7916D01*
X10263D01*
X10202Y7904D01*
X10150Y7869D01*
X10150Y7869D01*
X10079Y7798D01*
X9321D01*
X9276Y7907D01*
X9484Y8115D01*
X9484Y8115D01*
X9518Y8167D01*
X9531Y8228D01*
Y9040D01*
X10261Y9770D01*
X10400Y9742D01*
X10420Y9712D01*
X10498Y9659D01*
X10591Y9641D01*
X10683Y9659D01*
X10761Y9712D01*
X10807Y9781D01*
X11541D01*
X11594Y9708D01*
D02*
G37*
G36*
X7869Y11767D02*
X7910Y11739D01*
X7958Y11730D01*
X8068D01*
Y11533D01*
X8052Y11510D01*
X8038Y11437D01*
Y10965D01*
X8052Y10892D01*
X8078Y10853D01*
X8080Y10842D01*
X8115Y10790D01*
X8768Y10137D01*
X8820Y10102D01*
X8882Y10090D01*
X8882Y10090D01*
X9607D01*
X9613Y10080D01*
X9691Y10028D01*
X9783Y10009D01*
X9876Y10028D01*
X9940Y10071D01*
X10015Y9979D01*
X9257Y9220D01*
X9222Y9168D01*
X9210Y9107D01*
X9210Y9107D01*
Y8295D01*
X8115Y7200D01*
X8080Y7148D01*
X8068Y7087D01*
X8068Y7087D01*
Y7084D01*
X8052Y7061D01*
X8038Y6988D01*
Y6645D01*
X7966Y6539D01*
X7966Y6539D01*
X7165D01*
X7165Y6539D01*
X7055Y6618D01*
X7050Y6627D01*
Y6902D01*
X7359Y7211D01*
X7815D01*
X7888Y7225D01*
X7950Y7267D01*
X7991Y7329D01*
X8006Y7402D01*
X7991Y7475D01*
X7959Y7559D01*
X7991Y7644D01*
X7994Y7657D01*
X7164D01*
X7166Y7644D01*
X7199Y7559D01*
X7166Y7475D01*
X7166Y7472D01*
X6949Y7255D01*
X6854D01*
X6813Y7286D01*
Y7397D01*
X6804Y7445D01*
X6777Y7485D01*
X6736Y7513D01*
X6688Y7522D01*
X6422D01*
X6383Y7514D01*
X6378Y7520D01*
X6063D01*
X6058Y7514D01*
X6019Y7522D01*
X5945D01*
Y7244D01*
Y6966D01*
X6019D01*
X6058Y6974D01*
X6063Y6969D01*
X6378D01*
X6383Y6974D01*
X6422Y6966D01*
X6665D01*
X6729Y6902D01*
Y6406D01*
X6644Y6302D01*
X6230D01*
X6165Y6289D01*
X6110Y6253D01*
X6073Y6197D01*
X6060Y6132D01*
Y6050D01*
X6058Y6043D01*
X6060Y6037D01*
Y5955D01*
X6073Y5889D01*
X6110Y5834D01*
X6165Y5797D01*
X6230Y5784D01*
X6337D01*
X6398Y5666D01*
X6374Y5633D01*
X6230D01*
X6165Y5620D01*
X6110Y5583D01*
X6073Y5528D01*
X6060Y5463D01*
Y5326D01*
X6004Y5291D01*
X5909Y5350D01*
Y5463D01*
X5896Y5528D01*
X5859Y5583D01*
X5803Y5620D01*
X5738Y5633D01*
X5568D01*
X5545Y5666D01*
X5605Y5784D01*
X5738D01*
X5803Y5797D01*
X5859Y5834D01*
X5896Y5889D01*
X5909Y5955D01*
Y6037D01*
X5910Y6043D01*
X5909Y6050D01*
Y6132D01*
X5896Y6197D01*
X5859Y6253D01*
X5803Y6289D01*
X5738Y6302D01*
X5325D01*
X5260Y6289D01*
X5204Y6253D01*
X5167Y6197D01*
X5166Y6197D01*
X5092Y6246D01*
X5000Y6264D01*
X4908Y6246D01*
X4830Y6194D01*
X4804Y6156D01*
X4679Y6179D01*
X4675Y6197D01*
X4638Y6253D01*
X4583Y6289D01*
X4518Y6302D01*
X4104D01*
X4039Y6289D01*
X4019Y6276D01*
X3908Y6323D01*
X3901Y6329D01*
Y9130D01*
X5654Y10882D01*
X5795D01*
X5903Y10822D01*
Y10728D01*
X6161D01*
Y10669D01*
X6220D01*
Y10391D01*
X6294D01*
X6333Y10399D01*
X6339Y10394D01*
X6654D01*
X6659Y10399D01*
X6698Y10391D01*
X6827D01*
X6831Y10391D01*
X7079D01*
X7103Y10368D01*
X7146Y10295D01*
X7994D01*
X7991Y10309D01*
X7959Y10394D01*
X7991Y10478D01*
X8006Y10551D01*
X7991Y10624D01*
X7950Y10686D01*
X7888Y10727D01*
X7815Y10742D01*
X7739D01*
Y11763D01*
X7857Y11784D01*
X7869Y11767D01*
D02*
G37*
G36*
X6693Y16052D02*
Y15945D01*
X6800D01*
X9013Y13733D01*
Y12711D01*
X8895Y12648D01*
X8872Y12663D01*
X8780Y12682D01*
X8687Y12663D01*
X8609Y12611D01*
X8603Y12602D01*
X8393D01*
X8388Y12607D01*
Y12790D01*
X8379Y12838D01*
X8351Y12879D01*
X8311Y12906D01*
X8263Y12916D01*
X7958D01*
X7910Y12906D01*
X7869Y12879D01*
X7842Y12838D01*
X7832Y12790D01*
Y12607D01*
X7465Y12240D01*
X7430Y12187D01*
X7418Y12126D01*
X7418Y12126D01*
Y10742D01*
X7343D01*
X7270Y10727D01*
X7246Y10712D01*
X7089D01*
Y10822D01*
X7079Y10870D01*
X7052Y10911D01*
X7012Y10938D01*
X6964Y10947D01*
X6808D01*
X6565Y11191D01*
X6506Y11230D01*
X6437Y11244D01*
X5778D01*
X5733Y11353D01*
X6181Y11801D01*
X6225Y11858D01*
X6253Y11925D01*
X6262Y11997D01*
Y15797D01*
X6329D01*
Y16262D01*
X6438Y16308D01*
X6693Y16052D01*
D02*
G37*
G36*
X12992Y14567D02*
X19565D01*
Y9184D01*
X19447Y9137D01*
X18603Y9980D01*
Y11024D01*
X18603Y11024D01*
X18591Y11085D01*
X18556Y11137D01*
X18238Y11456D01*
X18185Y11491D01*
X18124Y11503D01*
X18124Y11503D01*
X17782D01*
X17782Y11503D01*
X17720Y11491D01*
X17668Y11456D01*
X17668Y11456D01*
X17554Y11342D01*
X13295D01*
X12994Y11642D01*
X12997Y11654D01*
X12978Y11746D01*
X12926Y11824D01*
X12848Y11876D01*
X12756Y11894D01*
X12664Y11876D01*
X12586Y11824D01*
X12533Y11746D01*
X12515Y11654D01*
X12533Y11561D01*
X12586Y11483D01*
X12664Y11431D01*
X12756Y11413D01*
X12767Y11415D01*
X12968Y11215D01*
X12923Y11105D01*
X11745D01*
X11745Y11105D01*
X11687Y11094D01*
X11683Y11093D01*
X11627Y11112D01*
X11590Y11142D01*
X11378D01*
Y11260D01*
X11569D01*
Y11437D01*
X11554Y11510D01*
X11513Y11572D01*
X11451Y11613D01*
X11402Y11623D01*
X11382Y11737D01*
X11382Y11740D01*
X11422Y11767D01*
X11450Y11807D01*
X11459Y11855D01*
Y12121D01*
X11451Y12160D01*
X11457Y12165D01*
Y12480D01*
X11451Y12486D01*
X11459Y12525D01*
Y12598D01*
X11181D01*
Y12657D01*
X11122D01*
Y12916D01*
X11029D01*
X10981Y12906D01*
X10940Y12879D01*
X10932Y12867D01*
X10902Y12859D01*
X10830D01*
X10801Y12867D01*
X10792Y12879D01*
X10752Y12906D01*
X10704Y12916D01*
X10610D01*
Y12657D01*
X10551D01*
Y12598D01*
X10273D01*
Y12525D01*
X10281Y12486D01*
X10276Y12480D01*
Y12165D01*
X10281Y12160D01*
X10273Y12121D01*
Y11855D01*
X10283Y11807D01*
X10310Y11767D01*
X10338Y11748D01*
X10343Y11683D01*
X10334Y11622D01*
X10264Y11585D01*
X10191Y11613D01*
X10141Y11623D01*
X10118Y11628D01*
X10036Y11732D01*
X10026Y11785D01*
X9973Y11863D01*
X9895Y11915D01*
X9803Y11934D01*
X9767Y11927D01*
X9649Y12005D01*
Y13818D01*
X9649Y13818D01*
X9637Y13880D01*
X9602Y13932D01*
X9602Y13932D01*
X7698Y15836D01*
X7743Y15945D01*
X11614D01*
X12992Y14567D01*
D02*
G37*
G36*
X9547Y6319D02*
X9620Y6276D01*
X9643Y6252D01*
Y5965D01*
X9643Y5965D01*
X9655Y5903D01*
X9690Y5851D01*
X9722Y5819D01*
Y5635D01*
X9730Y5596D01*
X9724Y5591D01*
Y5276D01*
X9730Y5270D01*
X9722Y5231D01*
Y5157D01*
X10278D01*
Y5231D01*
X10270Y5270D01*
X10276Y5276D01*
Y5591D01*
X10270Y5596D01*
X10278Y5635D01*
Y5901D01*
X10268Y5949D01*
X10241Y5989D01*
X10201Y6016D01*
X10153Y6026D01*
X9969D01*
X9964Y6031D01*
Y6252D01*
X9986Y6276D01*
X10082Y6332D01*
X10118Y6325D01*
X10191Y6340D01*
X10267Y6368D01*
X10336Y6305D01*
X10479Y6163D01*
Y4478D01*
X10479Y4478D01*
X10491Y4417D01*
X10526Y4365D01*
X13166Y1725D01*
Y1067D01*
X13158Y1064D01*
X13088Y1010D01*
X13034Y940D01*
X13001Y859D01*
X12989Y772D01*
X13001Y684D01*
X13030Y614D01*
X13014Y571D01*
X12968Y496D01*
X11244D01*
X11186Y614D01*
X11190Y619D01*
X11224Y700D01*
X11235Y787D01*
X11224Y875D01*
X11190Y956D01*
X11136Y1026D01*
X11066Y1080D01*
X10985Y1113D01*
X10898Y1125D01*
X10810Y1113D01*
X10729Y1080D01*
X10659Y1026D01*
X10605Y956D01*
X10572Y875D01*
X10560Y787D01*
X10572Y700D01*
X10605Y619D01*
X10609Y614D01*
X10551Y496D01*
X10244D01*
X10186Y614D01*
X10190Y619D01*
X10224Y700D01*
X10235Y787D01*
X10224Y875D01*
X10190Y956D01*
X10136Y1026D01*
X10066Y1080D01*
X10058Y1083D01*
Y1486D01*
X10110Y1518D01*
X10176Y1535D01*
X10229Y1495D01*
X10310Y1461D01*
X10398Y1450D01*
X10485Y1461D01*
X10566Y1495D01*
X10636Y1549D01*
X10690Y1619D01*
X10724Y1700D01*
X10735Y1787D01*
X10724Y1875D01*
X10690Y1956D01*
X10636Y2026D01*
X10566Y2080D01*
X10485Y2113D01*
X10398Y2125D01*
X10294Y2230D01*
Y2607D01*
X10413Y2619D01*
X10427Y2546D01*
X10479Y2467D01*
X10557Y2415D01*
X10650Y2397D01*
X10742Y2415D01*
X10820Y2467D01*
X10872Y2546D01*
X10890Y2638D01*
X10872Y2730D01*
X10820Y2808D01*
X10810Y2815D01*
Y2933D01*
X10798Y2995D01*
X10763Y3047D01*
X10763Y3047D01*
X10571Y3239D01*
Y3622D01*
X9983D01*
Y3917D01*
X10052Y3964D01*
X10104Y4042D01*
X10123Y4134D01*
X10104Y4226D01*
X10052Y4304D01*
X9974Y4356D01*
X9882Y4375D01*
X9790Y4356D01*
X9712Y4304D01*
X9659Y4226D01*
X9641Y4134D01*
X9659Y4042D01*
X9702Y3978D01*
Y3629D01*
X9587Y3622D01*
X9587Y3622D01*
X9587Y3622D01*
X9192D01*
X9130Y3713D01*
X9123Y3740D01*
X9138Y3819D01*
X9120Y3911D01*
X9068Y3989D01*
X8990Y4041D01*
X8898Y4060D01*
X8805Y4041D01*
X8727Y3989D01*
X8675Y3911D01*
X8657Y3819D01*
X8673Y3737D01*
X8681Y3622D01*
X8681Y3622D01*
X8681Y3622D01*
Y3071D01*
X8914D01*
X8993Y2992D01*
X9005Y2931D01*
X9040Y2879D01*
X9211Y2708D01*
X9206Y2659D01*
X9180Y2572D01*
X9121Y2533D01*
X9069Y2454D01*
X9050Y2362D01*
X9057Y2327D01*
X8905Y2174D01*
X8874Y2129D01*
X8863Y2075D01*
Y1624D01*
X8874Y1571D01*
X8905Y1525D01*
X9348Y1082D01*
Y496D01*
X3303D01*
X2956Y843D01*
Y3794D01*
X2956Y3796D01*
X2957Y3798D01*
X2985Y3865D01*
X2995Y3937D01*
X2992Y3957D01*
X3848Y4813D01*
X4150Y5115D01*
X4518D01*
X4583Y5128D01*
X4638Y5165D01*
X4657Y5193D01*
X4786D01*
X5087Y4892D01*
X5146Y4853D01*
X5215Y4839D01*
X6083D01*
X6152Y4853D01*
X6210Y4892D01*
X6433Y5115D01*
X6644D01*
X6709Y5128D01*
X6764Y5165D01*
X6801Y5220D01*
X6814Y5285D01*
Y5463D01*
X6801Y5528D01*
X6798Y5534D01*
X7003Y5739D01*
X7003Y5739D01*
X7038Y5791D01*
X7050Y5853D01*
X7050Y5853D01*
Y6036D01*
X7165Y6151D01*
X7197Y6146D01*
X7280Y6099D01*
Y5955D01*
X7293Y5889D01*
X7330Y5834D01*
X7386Y5797D01*
X7451Y5784D01*
X7864D01*
X7929Y5797D01*
X7985Y5834D01*
X8022Y5889D01*
X8116Y5909D01*
X8147Y5888D01*
Y5635D01*
X8153Y5604D01*
X8151Y5592D01*
X8150Y5591D01*
Y5582D01*
X8141Y5534D01*
X8031Y5528D01*
X8020Y5530D01*
X7985Y5583D01*
X7929Y5620D01*
X7864Y5633D01*
X7451D01*
X7386Y5620D01*
X7330Y5583D01*
X7293Y5528D01*
X7280Y5463D01*
Y5285D01*
X7293Y5220D01*
X7330Y5165D01*
X7386Y5128D01*
X7451Y5115D01*
X7864D01*
X7929Y5128D01*
X7985Y5165D01*
X8022Y5220D01*
X8145Y5233D01*
X8147Y5231D01*
Y4966D01*
X8157Y4918D01*
X8184Y4877D01*
X8181Y4747D01*
X7926Y4491D01*
X5591D01*
X5529Y4479D01*
X5477Y4444D01*
X5477Y4444D01*
X5083Y4051D01*
X5049Y3998D01*
X5036Y3937D01*
X4931Y3898D01*
X4705D01*
Y3354D01*
X4701Y3337D01*
Y3264D01*
X4587Y3149D01*
X4567Y3152D01*
X4495Y3143D01*
X4428Y3115D01*
X4370Y3071D01*
X4326Y3013D01*
X4298Y2946D01*
X4289Y2874D01*
X4298Y2802D01*
X4326Y2735D01*
X4370Y2677D01*
X4428Y2633D01*
X4433Y2631D01*
X4459Y2525D01*
X4456Y2496D01*
X4422Y2452D01*
X4396Y2390D01*
X4388Y2323D01*
X4396Y2256D01*
X4422Y2194D01*
X4463Y2140D01*
X4517Y2099D01*
X4579Y2074D01*
X4646Y2065D01*
X4712Y2074D01*
X4775Y2099D01*
X4828Y2140D01*
X4869Y2194D01*
X4895Y2256D01*
X4904Y2323D01*
X4895Y2390D01*
X4869Y2452D01*
X4828Y2505D01*
X4775Y2546D01*
X4763Y2677D01*
X4808Y2735D01*
X4835Y2802D01*
X4842Y2854D01*
X6004D01*
Y3898D01*
X6107Y3934D01*
X8150D01*
X8150Y3934D01*
X8211Y3946D01*
X8263Y3981D01*
X9122Y4840D01*
X9208D01*
X9256Y4850D01*
X9296Y4877D01*
X9324Y4918D01*
X9333Y4966D01*
Y5231D01*
X9325Y5270D01*
X9331Y5276D01*
Y5591D01*
X9325Y5596D01*
X9333Y5635D01*
Y5882D01*
X9334Y5886D01*
X9334Y5886D01*
Y6252D01*
X9356Y6276D01*
X9429Y6319D01*
Y6752D01*
X9547D01*
Y6319D01*
D02*
G37*
G36*
X18048Y5498D02*
Y5407D01*
X18048Y5407D01*
X18060Y5346D01*
X18095Y5294D01*
X18655Y4734D01*
X18627Y4666D01*
X18615Y4579D01*
X18627Y4491D01*
X18660Y4410D01*
X18714Y4340D01*
X18784Y4286D01*
X18831Y4267D01*
X18865Y4171D01*
X18865Y4134D01*
X18839Y4108D01*
X18804Y4056D01*
X18792Y3994D01*
X18792Y3994D01*
Y3874D01*
X18784Y3871D01*
X18714Y3817D01*
X18660Y3748D01*
X18627Y3666D01*
X18615Y3579D01*
X18627Y3491D01*
X18660Y3410D01*
X18714Y3340D01*
X18784Y3286D01*
X18865Y3253D01*
X18953Y3241D01*
X19040Y3253D01*
X19122Y3286D01*
X19191Y3340D01*
X19245Y3410D01*
X19279Y3491D01*
X19290Y3579D01*
X19279Y3666D01*
X19245Y3748D01*
X19191Y3817D01*
X19171Y3833D01*
X19160Y3966D01*
X19166Y3980D01*
X19447Y4261D01*
X19565Y4214D01*
Y120D01*
X15098D01*
X15049Y239D01*
X15254Y444D01*
X15327Y434D01*
X15414Y446D01*
X15496Y479D01*
X15565Y533D01*
X15619Y603D01*
X15653Y684D01*
X15664Y772D01*
X15653Y859D01*
X15619Y940D01*
X15565Y1010D01*
X15496Y1064D01*
X15414Y1098D01*
X15327Y1109D01*
X15239Y1098D01*
X15158Y1064D01*
X15088Y1010D01*
X15034Y940D01*
X15001Y859D01*
X14989Y772D01*
X14999Y699D01*
X14796Y496D01*
X14681Y504D01*
X14639Y571D01*
X14624Y614D01*
X14653Y684D01*
X14664Y772D01*
X14653Y859D01*
X14619Y940D01*
X14565Y1010D01*
X14496Y1064D01*
X14487Y1067D01*
Y1470D01*
X14539Y1503D01*
X14605Y1520D01*
X14658Y1479D01*
X14739Y1446D01*
X14827Y1434D01*
X14914Y1446D01*
X14996Y1479D01*
X15065Y1533D01*
X15119Y1603D01*
X15153Y1684D01*
X15164Y1772D01*
X15153Y1859D01*
X15119Y1940D01*
X15065Y2010D01*
X14996Y2064D01*
X14914Y2098D01*
X14827Y2109D01*
X14739Y2098D01*
X14731Y2094D01*
X14271Y2554D01*
X14219Y2589D01*
X14157Y2602D01*
X14157Y2602D01*
X13746D01*
X11539Y4809D01*
Y6419D01*
X11554Y6443D01*
X11569Y6516D01*
Y6792D01*
X11678Y6837D01*
X12014Y6501D01*
X12014Y6501D01*
X12066Y6466D01*
X12128Y6454D01*
X12128Y6454D01*
X12847D01*
X13110Y6190D01*
Y5551D01*
X13898D01*
Y6454D01*
X14343D01*
X14606Y6190D01*
Y5551D01*
X15394D01*
Y6496D01*
X14755D01*
X14523Y6728D01*
X14471Y6763D01*
X14409Y6775D01*
X14409Y6775D01*
X14118D01*
X14018Y6855D01*
Y7160D01*
X14009Y7208D01*
X13981Y7249D01*
X13969Y7257D01*
X13962Y7287D01*
Y7359D01*
X13969Y7388D01*
X13981Y7397D01*
X14009Y7437D01*
X14018Y7485D01*
Y7579D01*
X13760D01*
Y7697D01*
X14018D01*
Y7790D01*
X14009Y7838D01*
X13981Y7879D01*
X13941Y7906D01*
X13893Y7916D01*
X13825D01*
X13819Y8031D01*
X13819Y8031D01*
X13819Y8031D01*
Y8504D01*
X13819Y8583D01*
X13819Y8701D01*
Y8839D01*
X13346D01*
Y8957D01*
X13819D01*
Y9094D01*
X13819Y9173D01*
X13819Y9291D01*
Y9561D01*
X13937Y9610D01*
X18048Y5498D01*
D02*
G37*
G36*
X17660Y10760D02*
X17714Y10690D01*
X17784Y10637D01*
X17865Y10603D01*
X17953Y10592D01*
X18040Y10603D01*
X18122Y10637D01*
X18164Y10670D01*
X18255Y10639D01*
X18282Y10617D01*
Y9914D01*
X18282Y9914D01*
X18295Y9852D01*
X18329Y9800D01*
X18588Y9542D01*
X18573Y9466D01*
X18549Y9413D01*
X18473Y9382D01*
X18395Y9322D01*
X18335Y9244D01*
X18297Y9153D01*
X18284Y9055D01*
X18297Y8957D01*
X18335Y8867D01*
X18395Y8788D01*
X18473Y8728D01*
X18564Y8691D01*
X18661Y8678D01*
X18759Y8691D01*
X18850Y8728D01*
X18928Y8788D01*
X18988Y8867D01*
X19011Y8923D01*
X19129Y8956D01*
X19206Y8889D01*
Y8381D01*
X19179Y8354D01*
X19087Y8310D01*
X19040Y8330D01*
X18953Y8341D01*
X18865Y8330D01*
X18784Y8296D01*
X18714Y8243D01*
X18660Y8173D01*
X18627Y8091D01*
X18615Y8004D01*
X18627Y7917D01*
X18660Y7835D01*
X18714Y7765D01*
X18784Y7712D01*
X18831Y7692D01*
X18865Y7597D01*
X18865Y7559D01*
X18839Y7533D01*
X18804Y7481D01*
X18792Y7419D01*
X18792Y7419D01*
Y7300D01*
X18784Y7296D01*
X18714Y7243D01*
X18660Y7173D01*
X18627Y7091D01*
X18615Y7004D01*
X18627Y6917D01*
X18660Y6835D01*
X18714Y6765D01*
X18784Y6712D01*
X18865Y6678D01*
X18953Y6666D01*
X19040Y6678D01*
X19122Y6712D01*
X19191Y6765D01*
X19245Y6835D01*
X19279Y6917D01*
X19290Y7004D01*
X19279Y7091D01*
X19245Y7173D01*
X19191Y7243D01*
X19171Y7258D01*
X19160Y7391D01*
X19166Y7406D01*
X19447Y7686D01*
X19565Y7639D01*
Y5867D01*
X19447Y5820D01*
X19051Y6216D01*
X18998Y6251D01*
X18937Y6263D01*
X18937Y6263D01*
X18072D01*
X14140Y10194D01*
X14189Y10313D01*
X14247D01*
X14295Y10322D01*
X14336Y10349D01*
X14363Y10390D01*
X14372Y10438D01*
Y10532D01*
X14114D01*
Y10650D01*
X14372D01*
Y10743D01*
X14406Y10784D01*
X17651D01*
X17660Y10760D01*
D02*
G37*
G36*
X8605Y19151D02*
X8587Y19125D01*
X8581Y19094D01*
X8581Y16732D01*
X8587Y16702D01*
X8605Y16676D01*
X8605Y16676D01*
X8465Y16535D01*
X7283D01*
Y19094D01*
X7677Y19488D01*
X8268Y19488D01*
X8605Y19151D01*
D02*
G37*
G36*
X11220Y19094D02*
Y18504D01*
Y17392D01*
X11151Y17323D01*
X10630D01*
X10433Y17126D01*
Y16732D01*
X10236Y16535D01*
X8858Y16535D01*
X8661Y16732D01*
X8661Y19094D01*
X9055Y19488D01*
X10827D01*
X11220Y19094D01*
D02*
G37*
G36*
X5034Y19447D02*
X4956Y19436D01*
X4875Y19403D01*
X4805Y19349D01*
X4751Y19279D01*
X4717Y19198D01*
X4714Y19174D01*
X4347Y18807D01*
X4303Y18749D01*
X4275Y18682D01*
X4265Y18610D01*
Y18298D01*
X4251Y18279D01*
X4217Y18198D01*
X4206Y18110D01*
X4217Y18023D01*
X4251Y17941D01*
X4265Y17923D01*
Y17583D01*
X4275Y17511D01*
X4303Y17444D01*
X4347Y17386D01*
X5640Y16093D01*
Y15797D01*
X5706D01*
Y12112D01*
X3150Y9556D01*
X3106Y9498D01*
X3078Y9431D01*
X3068Y9359D01*
Y5391D01*
X2562Y4884D01*
X1065D01*
Y5293D01*
X1080Y5312D01*
X1113Y5393D01*
X1125Y5480D01*
X1113Y5568D01*
X1080Y5649D01*
X1026Y5719D01*
X956Y5773D01*
X875Y5806D01*
X787Y5818D01*
X700Y5806D01*
X619Y5773D01*
X549Y5719D01*
X495Y5649D01*
X461Y5568D01*
X450Y5480D01*
X461Y5393D01*
X495Y5312D01*
X509Y5293D01*
Y4724D01*
Y3583D01*
X519Y3511D01*
X547Y3444D01*
X591Y3386D01*
X709Y3268D01*
X767Y3224D01*
X834Y3196D01*
X906Y3187D01*
X1299D01*
X1317Y3189D01*
X1535D01*
X1588Y3120D01*
X1592Y3113D01*
X1601Y3071D01*
X1582Y3025D01*
X1572Y2953D01*
X1582Y2881D01*
X1610Y2814D01*
X1654Y2756D01*
X1711Y2712D01*
X1778Y2684D01*
X1850Y2675D01*
X1922Y2684D01*
X1989Y2712D01*
X2047Y2756D01*
X2054Y2766D01*
X2068Y2772D01*
X2184Y2772D01*
X2198Y2766D01*
X2205Y2756D01*
X2263Y2712D01*
X2330Y2684D01*
X2402Y2675D01*
X2474Y2684D01*
X2477Y2686D01*
X2595Y2612D01*
Y768D01*
X2609Y699D01*
X2648Y640D01*
X3049Y239D01*
X3000Y120D01*
X120D01*
Y10073D01*
X155Y10177D01*
X239Y10183D01*
X240Y10175D01*
X250Y10092D01*
X306Y9958D01*
X394Y9843D01*
X509Y9755D01*
X644Y9699D01*
X787Y9680D01*
X931Y9699D01*
X1065Y9755D01*
X1181Y9843D01*
X1269Y9958D01*
X1324Y10092D01*
X1343Y10236D01*
X1324Y10380D01*
X1269Y10514D01*
X1181Y10629D01*
X1065Y10718D01*
X931Y10773D01*
X787Y10792D01*
X644Y10773D01*
X509Y10718D01*
X394Y10629D01*
X306Y10514D01*
X250Y10380D01*
X240Y10297D01*
X239Y10290D01*
X155Y10295D01*
X120Y10399D01*
Y11451D01*
X155Y11555D01*
X239Y11560D01*
X240Y11553D01*
X250Y11470D01*
X306Y11336D01*
X394Y11221D01*
X509Y11133D01*
X644Y11077D01*
X787Y11058D01*
X931Y11077D01*
X1065Y11133D01*
X1181Y11221D01*
X1269Y11336D01*
X1324Y11470D01*
X1343Y11614D01*
X1324Y11758D01*
X1269Y11892D01*
X1181Y12007D01*
X1065Y12096D01*
X931Y12151D01*
X787Y12170D01*
X644Y12151D01*
X509Y12096D01*
X394Y12007D01*
X306Y11892D01*
X250Y11758D01*
X240Y11675D01*
X239Y11668D01*
X155Y11673D01*
X120Y11777D01*
Y15585D01*
X155Y15689D01*
X239Y15694D01*
X240Y15687D01*
X250Y15604D01*
X306Y15470D01*
X394Y15355D01*
X509Y15267D01*
X644Y15211D01*
X787Y15192D01*
X931Y15211D01*
X1065Y15267D01*
X1181Y15355D01*
X1269Y15470D01*
X1324Y15604D01*
X1343Y15748D01*
X1324Y15892D01*
X1269Y16026D01*
X1181Y16141D01*
X1065Y16229D01*
X931Y16285D01*
X787Y16304D01*
X644Y16285D01*
X509Y16229D01*
X394Y16141D01*
X306Y16026D01*
X250Y15892D01*
X240Y15809D01*
X239Y15802D01*
X155Y15807D01*
X120Y15911D01*
Y19565D01*
X5026D01*
X5034Y19447D01*
D02*
G37*
%LPC*%
G36*
X14941Y4370D02*
X14606D01*
Y3957D01*
X14941D01*
Y4370D01*
D02*
G37*
G36*
X15394D02*
X15059D01*
Y3957D01*
X15394D01*
Y4370D01*
D02*
G37*
G36*
X13898D02*
X13563D01*
Y3957D01*
X13898D01*
Y4370D01*
D02*
G37*
G36*
X5827Y7185D02*
X5628D01*
Y7092D01*
X5637Y7044D01*
X5664Y7003D01*
X5705Y6976D01*
X5753Y6966D01*
X5827D01*
Y7185D01*
D02*
G37*
G36*
X2992Y19196D02*
X2894Y19183D01*
X2804Y19146D01*
X2725Y19086D01*
X2665Y19008D01*
X2628Y18917D01*
X2615Y18819D01*
X2628Y18721D01*
X2665Y18630D01*
X2725Y18552D01*
X2804Y18492D01*
X2894Y18455D01*
X2992Y18442D01*
X3090Y18455D01*
X3181Y18492D01*
X3259Y18552D01*
X3319Y18630D01*
X3357Y18721D01*
X3369Y18819D01*
X3357Y18917D01*
X3319Y19008D01*
X3259Y19086D01*
X3181Y19146D01*
X3090Y19183D01*
X2992Y19196D01*
D02*
G37*
G36*
X10278Y5039D02*
X10059D01*
Y4840D01*
X10153D01*
X10201Y4850D01*
X10241Y4877D01*
X10268Y4918D01*
X10278Y4966D01*
Y5039D01*
D02*
G37*
G36*
X9941D02*
X9722D01*
Y4966D01*
X9732Y4918D01*
X9759Y4877D01*
X9799Y4850D01*
X9847Y4840D01*
X9941D01*
Y5039D01*
D02*
G37*
G36*
X1181Y19176D02*
X1050Y19164D01*
X924Y19125D01*
X807Y19063D01*
X706Y18979D01*
X622Y18878D01*
X560Y18761D01*
X521Y18635D01*
X509Y18504D01*
X521Y18373D01*
X560Y18247D01*
X622Y18130D01*
X706Y18028D01*
X807Y17945D01*
X924Y17883D01*
X1050Y17844D01*
X1181Y17831D01*
X1312Y17844D01*
X1438Y17883D01*
X1555Y17945D01*
X1657Y18028D01*
X1740Y18130D01*
X1802Y18247D01*
X1841Y18373D01*
X1854Y18504D01*
X1841Y18635D01*
X1802Y18761D01*
X1740Y18878D01*
X1657Y18979D01*
X1555Y19063D01*
X1438Y19125D01*
X1312Y19164D01*
X1181Y19176D01*
D02*
G37*
G36*
X8346Y1873D02*
X8249Y1860D01*
X8158Y1823D01*
X8080Y1763D01*
X8020Y1685D01*
X7982Y1594D01*
X7969Y1496D01*
X7982Y1398D01*
X8020Y1307D01*
X8080Y1229D01*
X8158Y1169D01*
X8249Y1132D01*
X8346Y1119D01*
X8444Y1132D01*
X8535Y1169D01*
X8613Y1229D01*
X8673Y1307D01*
X8711Y1398D01*
X8724Y1496D01*
X8711Y1594D01*
X8673Y1685D01*
X8613Y1763D01*
X8535Y1823D01*
X8444Y1860D01*
X8346Y1873D01*
D02*
G37*
G36*
X11398Y2125D02*
X11310Y2113D01*
X11229Y2080D01*
X11159Y2026D01*
X11105Y1956D01*
X11072Y1875D01*
X11060Y1787D01*
X11072Y1700D01*
X11105Y1619D01*
X11159Y1549D01*
X11229Y1495D01*
X11310Y1461D01*
X11398Y1450D01*
X11485Y1461D01*
X11566Y1495D01*
X11636Y1549D01*
X11690Y1619D01*
X11724Y1700D01*
X11735Y1787D01*
X11724Y1875D01*
X11690Y1956D01*
X11636Y2026D01*
X11566Y2080D01*
X11485Y2113D01*
X11398Y2125D01*
D02*
G37*
G36*
X16378Y1440D02*
X16280Y1427D01*
X16189Y1390D01*
X16111Y1330D01*
X16051Y1252D01*
X16014Y1161D01*
X16001Y1063D01*
X16014Y965D01*
X16051Y874D01*
X16111Y796D01*
X16189Y736D01*
X16280Y699D01*
X16378Y686D01*
X16476Y699D01*
X16567Y736D01*
X16645Y796D01*
X16705Y874D01*
X16742Y965D01*
X16755Y1063D01*
X16742Y1161D01*
X16705Y1252D01*
X16645Y1330D01*
X16567Y1390D01*
X16476Y1427D01*
X16378Y1440D01*
D02*
G37*
G36*
X1181Y1854D02*
X1050Y1841D01*
X924Y1802D01*
X807Y1740D01*
X706Y1657D01*
X622Y1555D01*
X560Y1438D01*
X521Y1312D01*
X509Y1181D01*
X521Y1050D01*
X560Y924D01*
X622Y807D01*
X706Y706D01*
X807Y622D01*
X924Y560D01*
X1050Y521D01*
X1181Y509D01*
X1312Y521D01*
X1438Y560D01*
X1555Y622D01*
X1657Y706D01*
X1740Y807D01*
X1802Y924D01*
X1841Y1050D01*
X1854Y1181D01*
X1841Y1312D01*
X1802Y1438D01*
X1740Y1555D01*
X1657Y1657D01*
X1555Y1740D01*
X1438Y1802D01*
X1312Y1841D01*
X1181Y1854D01*
D02*
G37*
G36*
X18504D02*
X18373Y1841D01*
X18247Y1802D01*
X18130Y1740D01*
X18028Y1657D01*
X17945Y1555D01*
X17883Y1438D01*
X17844Y1312D01*
X17831Y1181D01*
X17844Y1050D01*
X17883Y924D01*
X17945Y807D01*
X18028Y706D01*
X18130Y622D01*
X18247Y560D01*
X18373Y521D01*
X18504Y509D01*
X18635Y521D01*
X18761Y560D01*
X18878Y622D01*
X18979Y706D01*
X19063Y807D01*
X19125Y924D01*
X19164Y1050D01*
X19176Y1181D01*
X19164Y1312D01*
X19125Y1438D01*
X19063Y1555D01*
X18979Y1657D01*
X18878Y1740D01*
X18761Y1802D01*
X18635Y1841D01*
X18504Y1854D01*
D02*
G37*
G36*
X6378Y2581D02*
X6311Y2572D01*
X6249Y2546D01*
X6195Y2505D01*
X6154Y2452D01*
X6129Y2390D01*
X6120Y2323D01*
X6129Y2256D01*
X6154Y2194D01*
X6195Y2140D01*
X6249Y2099D01*
X6311Y2074D01*
X6378Y2065D01*
X6445Y2074D01*
X6507Y2099D01*
X6560Y2140D01*
X6601Y2194D01*
X6627Y2256D01*
X6636Y2323D01*
X6627Y2390D01*
X6601Y2452D01*
X6560Y2505D01*
X6507Y2546D01*
X6445Y2572D01*
X6378Y2581D01*
D02*
G37*
G36*
X15394Y3839D02*
X15059D01*
Y3425D01*
X15394D01*
Y3839D01*
D02*
G37*
G36*
X13445Y4370D02*
X13110D01*
Y3957D01*
X13445D01*
Y4370D01*
D02*
G37*
G36*
X14941Y3839D02*
X14606D01*
Y3425D01*
X14941D01*
Y3839D01*
D02*
G37*
G36*
X13445D02*
X13110D01*
Y3425D01*
X13445D01*
Y3839D01*
D02*
G37*
G36*
X13898D02*
X13563D01*
Y3425D01*
X13898D01*
Y3839D01*
D02*
G37*
G36*
X787Y7818D02*
X700Y7806D01*
X619Y7773D01*
X549Y7719D01*
X495Y7649D01*
X461Y7568D01*
X450Y7480D01*
X461Y7393D01*
X495Y7312D01*
X549Y7242D01*
X619Y7188D01*
X700Y7154D01*
X787Y7143D01*
X875Y7154D01*
X956Y7188D01*
X1026Y7242D01*
X1080Y7312D01*
X1113Y7393D01*
X1125Y7480D01*
X1113Y7568D01*
X1080Y7649D01*
X1026Y7719D01*
X956Y7773D01*
X875Y7806D01*
X787Y7818D01*
D02*
G37*
G36*
X10492Y12916D02*
X10399D01*
X10351Y12906D01*
X10310Y12879D01*
X10283Y12838D01*
X10273Y12790D01*
Y12717D01*
X10492D01*
Y12916D01*
D02*
G37*
G36*
X11334Y12916D02*
X11240D01*
Y12717D01*
X11459D01*
Y12790D01*
X11450Y12838D01*
X11422Y12879D01*
X11382Y12906D01*
X11334Y12916D01*
D02*
G37*
G36*
X2736Y12325D02*
X2643D01*
X2595Y12316D01*
X2554Y12289D01*
X2527Y12248D01*
X2517Y12200D01*
Y12126D01*
X2736D01*
Y12325D01*
D02*
G37*
G36*
X3546Y15315D02*
X3327D01*
Y15116D01*
X3420D01*
X3468Y15125D01*
X3509Y15152D01*
X3536Y15193D01*
X3546Y15241D01*
Y15315D01*
D02*
G37*
G36*
X3654Y13996D02*
X3039D01*
X3043Y13978D01*
X3086Y13913D01*
X3086Y13823D01*
X3067Y13795D01*
X3043Y13758D01*
X3039Y13740D01*
X3654D01*
X3650Y13758D01*
X3606Y13823D01*
X3606Y13913D01*
X3625Y13942D01*
X3650Y13978D01*
X3654Y13996D01*
D02*
G37*
G36*
X3342Y14963D02*
X3076D01*
X3037Y14955D01*
X3031Y14961D01*
X2717D01*
X2711Y14955D01*
X2672Y14963D01*
X2406D01*
X2358Y14953D01*
X2318Y14926D01*
X2291Y14886D01*
X2281Y14838D01*
Y14532D01*
X2291Y14484D01*
X2318Y14444D01*
X2315Y14331D01*
X2253Y14256D01*
X2197D01*
X2120Y14241D01*
X2117Y14238D01*
X1990Y14269D01*
X1938Y14347D01*
X1860Y14400D01*
X1768Y14418D01*
X1676Y14400D01*
X1597Y14347D01*
X1545Y14269D01*
X1527Y14177D01*
X1545Y14085D01*
X1597Y14007D01*
X1676Y13955D01*
X1768Y13936D01*
X1780Y13939D01*
X1828Y13907D01*
X1890Y13895D01*
X1966D01*
X2024Y13776D01*
X2011Y13758D01*
X1996Y13681D01*
X2011Y13604D01*
X2055Y13539D01*
X2055Y13449D01*
X2036Y13421D01*
X2011Y13384D01*
X1996Y13307D01*
X2011Y13230D01*
X2055Y13165D01*
X2066Y13110D01*
X2049Y13084D01*
X2031Y12992D01*
X2049Y12900D01*
X2101Y12822D01*
X2179Y12770D01*
X2272Y12751D01*
X2364Y12770D01*
X2442Y12822D01*
X2494Y12900D01*
X2512Y12992D01*
X2494Y13084D01*
X2575Y13165D01*
X2594Y13193D01*
X2721Y13216D01*
X2792Y13153D01*
Y13071D01*
X2792Y13071D01*
X2804Y13009D01*
X2839Y12957D01*
X3043Y12754D01*
X3045Y12742D01*
X3097Y12664D01*
X3168Y12617D01*
X3177Y12607D01*
X3204Y12486D01*
X3158Y12440D01*
X3123Y12388D01*
X3119Y12365D01*
X3114Y12361D01*
X3018Y12318D01*
X2996Y12316D01*
X2993Y12316D01*
X2948Y12325D01*
X2854D01*
Y12067D01*
X2795D01*
Y12008D01*
X2517D01*
Y11934D01*
X2525Y11895D01*
X2520Y11890D01*
Y11575D01*
X2525Y11569D01*
X2517Y11531D01*
Y11265D01*
X2527Y11217D01*
X2554Y11176D01*
X2595Y11149D01*
X2643Y11139D01*
X2948D01*
X3049Y11054D01*
X3101Y10975D01*
X3179Y10923D01*
X3272Y10905D01*
X3364Y10923D01*
X3442Y10975D01*
X3494Y11054D01*
X3512Y11146D01*
X3494Y11238D01*
X3442Y11316D01*
X3432Y11322D01*
Y12260D01*
X3696Y12524D01*
X3731Y12576D01*
X3743Y12638D01*
X3743Y12638D01*
Y13071D01*
X3743Y13071D01*
X3731Y13132D01*
X3696Y13184D01*
X3696Y13184D01*
X3661Y13219D01*
Y13504D01*
X3661Y13504D01*
X3654Y13622D01*
Y13622D01*
X3039D01*
Y13622D01*
X3036Y13578D01*
X2915Y13533D01*
X2653Y13795D01*
X2632Y13809D01*
X2620Y13831D01*
X2598Y13926D01*
X2600Y13950D01*
X2618Y13978D01*
X2634Y14055D01*
X2619Y14132D01*
X2653Y14166D01*
X2653Y14166D01*
X2688Y14218D01*
X2700Y14280D01*
Y14298D01*
X2717Y14409D01*
X3031D01*
X3037Y14415D01*
X3076Y14407D01*
X3342D01*
X3390Y14417D01*
X3430Y14444D01*
X3457Y14484D01*
X3467Y14532D01*
Y14838D01*
X3457Y14886D01*
X3430Y14926D01*
X3390Y14953D01*
X3342Y14963D01*
D02*
G37*
G36*
X3209Y15315D02*
X2990D01*
Y15241D01*
X2999Y15193D01*
X3026Y15152D01*
X3067Y15125D01*
X3115Y15116D01*
X3209D01*
Y15315D01*
D02*
G37*
G36*
X3287Y14256D02*
X3228D01*
X3152Y14241D01*
X3086Y14197D01*
X3043Y14132D01*
X3039Y14114D01*
X3287D01*
Y14256D01*
D02*
G37*
G36*
X3465D02*
X3406D01*
Y14114D01*
X3654D01*
X3650Y14132D01*
X3606Y14197D01*
X3541Y14241D01*
X3465Y14256D01*
D02*
G37*
G36*
X18661Y12858D02*
X18564Y12845D01*
X18473Y12807D01*
X18395Y12747D01*
X18335Y12669D01*
X18297Y12578D01*
X18284Y12480D01*
X18297Y12383D01*
X18335Y12292D01*
X18395Y12214D01*
X18473Y12154D01*
X18564Y12116D01*
X18661Y12103D01*
X18759Y12116D01*
X18850Y12154D01*
X18928Y12214D01*
X18988Y12292D01*
X19026Y12383D01*
X19039Y12480D01*
X19026Y12578D01*
X18988Y12669D01*
X18928Y12747D01*
X18850Y12807D01*
X18759Y12845D01*
X18661Y12858D01*
D02*
G37*
G36*
X5827Y8093D02*
X5628D01*
Y7999D01*
X5637Y7951D01*
X5664Y7911D01*
X5705Y7884D01*
X5753Y7874D01*
X5827D01*
Y8093D01*
D02*
G37*
G36*
Y8430D02*
X5753D01*
X5705Y8420D01*
X5664Y8393D01*
X5637Y8353D01*
X5628Y8305D01*
Y8211D01*
X5827D01*
Y8430D01*
D02*
G37*
G36*
X17953Y7841D02*
X17865Y7830D01*
X17784Y7796D01*
X17714Y7743D01*
X17660Y7673D01*
X17627Y7591D01*
X17615Y7504D01*
X17627Y7417D01*
X17660Y7335D01*
X17714Y7265D01*
X17784Y7212D01*
X17865Y7178D01*
X17953Y7166D01*
X18040Y7178D01*
X18122Y7212D01*
X18191Y7265D01*
X18245Y7335D01*
X18279Y7417D01*
X18290Y7504D01*
X18279Y7591D01*
X18245Y7673D01*
X18191Y7743D01*
X18122Y7796D01*
X18040Y7830D01*
X17953Y7841D01*
D02*
G37*
G36*
X5827Y7522D02*
X5753D01*
X5705Y7513D01*
X5664Y7485D01*
X5637Y7445D01*
X5628Y7397D01*
Y7303D01*
X5827D01*
Y7522D01*
D02*
G37*
G36*
X3420Y16302D02*
X3115D01*
X3067Y16292D01*
X3026Y16265D01*
X2999Y16224D01*
X2990Y16176D01*
Y15910D01*
X2997Y15871D01*
X2992Y15866D01*
Y15551D01*
X2997Y15546D01*
X2990Y15507D01*
Y15433D01*
X3546D01*
Y15507D01*
X3538Y15546D01*
X3543Y15551D01*
Y15866D01*
X3538Y15871D01*
X3546Y15910D01*
Y16176D01*
X3536Y16224D01*
X3509Y16265D01*
X3468Y16292D01*
X3420Y16302D01*
D02*
G37*
G36*
X6102Y10610D02*
X5903D01*
Y10517D01*
X5913Y10469D01*
X5940Y10428D01*
X5981Y10401D01*
X6029Y10391D01*
X6102D01*
Y10610D01*
D02*
G37*
G36*
X18953Y11767D02*
X18865Y11755D01*
X18784Y11721D01*
X18714Y11668D01*
X18660Y11598D01*
X18627Y11516D01*
X18615Y11429D01*
X18627Y11342D01*
X18660Y11260D01*
X18714Y11190D01*
X18784Y11137D01*
X18865Y11103D01*
X18953Y11092D01*
X19040Y11103D01*
X19122Y11137D01*
X19191Y11190D01*
X19245Y11260D01*
X19279Y11342D01*
X19290Y11429D01*
X19279Y11516D01*
X19245Y11598D01*
X19191Y11668D01*
X19122Y11721D01*
X19040Y11755D01*
X18953Y11767D01*
D02*
G37*
G36*
X2943Y10581D02*
X2254D01*
Y9892D01*
X2943D01*
Y10581D01*
D02*
G37*
G36*
X7994Y10177D02*
X7146D01*
X7103Y10104D01*
X7079Y10082D01*
X6948D01*
X6942Y10092D01*
X6864Y10144D01*
X6772Y10162D01*
X6679Y10144D01*
X6601Y10092D01*
X6549Y10013D01*
X6531Y9921D01*
X6549Y9829D01*
X6601Y9751D01*
X6679Y9699D01*
X6738Y9602D01*
X6691Y9516D01*
X6679Y9514D01*
X6601Y9462D01*
X6549Y9384D01*
X6531Y9291D01*
X6549Y9199D01*
X6601Y9121D01*
X6679Y9069D01*
X6704Y9064D01*
X6747Y8976D01*
X6704Y8889D01*
X6679Y8884D01*
X6601Y8832D01*
X6549Y8754D01*
X6531Y8661D01*
X6549Y8569D01*
X6563Y8548D01*
X6500Y8430D01*
X6422D01*
X6383Y8422D01*
X6378Y8428D01*
X6063D01*
X6058Y8422D01*
X6019Y8430D01*
X5945D01*
Y8152D01*
Y7874D01*
X6019D01*
X6058Y7882D01*
X6063Y7876D01*
X6378D01*
X6383Y7882D01*
X6422Y7874D01*
X6660D01*
X6676Y7871D01*
X6676Y7871D01*
X7079D01*
X7103Y7849D01*
X7146Y7776D01*
X7994D01*
X7991Y7789D01*
X7959Y7874D01*
X7991Y7959D01*
X8006Y8031D01*
X7991Y8104D01*
X7959Y8189D01*
X7991Y8273D01*
X8006Y8346D01*
X7991Y8419D01*
X7959Y8504D01*
X7991Y8588D01*
X8006Y8661D01*
X7991Y8734D01*
X7959Y8819D01*
X7991Y8903D01*
X8006Y8976D01*
X7991Y9049D01*
X7959Y9134D01*
X7991Y9218D01*
X8006Y9291D01*
X7991Y9364D01*
X7959Y9449D01*
X7991Y9533D01*
X8006Y9606D01*
X7991Y9679D01*
X7959Y9764D01*
X7991Y9848D01*
X8006Y9921D01*
X7991Y9994D01*
X7959Y10079D01*
X7991Y10163D01*
X7994Y10177D01*
D02*
G37*
%LPD*%
D10*
X6437Y5374D02*
D03*
Y6043D02*
D03*
X7657Y5374D02*
D03*
Y6043D02*
D03*
X4311Y5374D02*
D03*
Y6043D02*
D03*
X5531Y5374D02*
D03*
Y6043D02*
D03*
D11*
X7579Y7402D02*
D03*
Y7717D02*
D03*
Y8031D02*
D03*
Y8346D02*
D03*
Y8661D02*
D03*
Y8976D02*
D03*
Y9291D02*
D03*
Y9606D02*
D03*
Y9921D02*
D03*
Y10236D02*
D03*
Y10551D02*
D03*
X12028D02*
D03*
Y10236D02*
D03*
Y9921D02*
D03*
Y9606D02*
D03*
Y9291D02*
D03*
Y8976D02*
D03*
Y8661D02*
D03*
Y8346D02*
D03*
Y8031D02*
D03*
Y7717D02*
D03*
Y7402D02*
D03*
D12*
X8228Y11201D02*
D03*
X8543D02*
D03*
X8858D02*
D03*
X9173D02*
D03*
X9488D02*
D03*
X9803D02*
D03*
X10118D02*
D03*
X10433D02*
D03*
X10748D02*
D03*
X11063D02*
D03*
X11378D02*
D03*
Y6752D02*
D03*
X11063D02*
D03*
X10748D02*
D03*
X10433D02*
D03*
X10118D02*
D03*
X9803D02*
D03*
X9488D02*
D03*
X9173D02*
D03*
X8858D02*
D03*
X8543D02*
D03*
X8228D02*
D03*
D13*
X13091Y7638D02*
D03*
X13760D02*
D03*
X6161Y10669D02*
D03*
X6831D02*
D03*
X6555Y7244D02*
D03*
X5886D02*
D03*
X6555Y8152D02*
D03*
X5886D02*
D03*
X13760Y7008D02*
D03*
X13091D02*
D03*
X2539Y14685D02*
D03*
X3209D02*
D03*
X13445Y10591D02*
D03*
X14114D02*
D03*
D14*
X11181Y12657D02*
D03*
Y11988D02*
D03*
X10000Y5768D02*
D03*
Y5098D02*
D03*
X3268Y15374D02*
D03*
Y16043D02*
D03*
X2795Y12067D02*
D03*
Y11398D02*
D03*
X8425Y5768D02*
D03*
Y5098D02*
D03*
X9055Y5768D02*
D03*
Y5098D02*
D03*
X8110Y12657D02*
D03*
Y11988D02*
D03*
X10551Y11988D02*
D03*
Y12657D02*
D03*
D15*
X9803Y17008D02*
D03*
X7913D02*
D03*
D16*
X3760Y1181D02*
D03*
X7264D02*
D03*
Y3327D02*
D03*
X3760D02*
D03*
D17*
X6142Y3376D02*
D03*
X5827D02*
D03*
X5512D02*
D03*
X5197D02*
D03*
X4882D02*
D03*
D18*
X9134Y3346D02*
D03*
X8858D02*
D03*
X9409D02*
D03*
X10118D02*
D03*
X9843D02*
D03*
X10394D02*
D03*
D19*
X1850Y3465D02*
D03*
Y3937D02*
D03*
X1299Y3465D02*
D03*
Y3937D02*
D03*
X2402Y3465D02*
D03*
Y3937D02*
D03*
D20*
X15000Y6024D02*
D03*
Y3898D02*
D03*
X13504Y6024D02*
D03*
Y3898D02*
D03*
D21*
X12057Y17461D02*
D03*
Y17087D02*
D03*
Y16713D02*
D03*
X10935D02*
D03*
Y17087D02*
D03*
Y17461D02*
D03*
D22*
X3346Y13307D02*
D03*
D23*
Y13681D02*
D03*
Y14055D02*
D03*
X2315Y13307D02*
D03*
Y13681D02*
D03*
Y14055D02*
D03*
D24*
X13346Y8898D02*
D03*
Y9488D02*
D03*
Y8307D02*
D03*
D25*
X3720Y4941D02*
X4154Y5374D01*
X2717Y3937D02*
X3720Y4941D01*
Y9204D01*
X5579Y11063D01*
X6437D01*
X6831Y10669D01*
X6083Y5020D02*
X6437Y5374D01*
X5215Y5020D02*
X6083D01*
X4860Y5374D02*
X5215Y5020D01*
X4311Y5374D02*
X4860D01*
X4154D02*
X4311D01*
X9370Y315D02*
X14870D01*
X3228D02*
X9370D01*
X2717Y3853D02*
Y3937D01*
Y3853D02*
X2776Y3794D01*
Y768D02*
Y3794D01*
Y768D02*
X3228Y315D01*
X14870D02*
X15327Y772D01*
X4882Y3189D02*
Y3337D01*
X4567Y2874D02*
X4882Y3189D01*
D26*
X3346Y5276D02*
Y9359D01*
X2677Y4606D02*
X3346Y5276D01*
X906Y4606D02*
X2677D01*
X787Y4724D02*
X906Y4606D01*
X787Y4724D02*
Y5480D01*
X5984Y11997D02*
Y16142D01*
X3346Y9359D02*
X5984Y11997D01*
X4543Y17583D02*
X5984Y16142D01*
X4543Y17583D02*
Y18110D01*
Y18610D01*
X5043Y19110D01*
X2402Y3937D02*
X2717D01*
X906Y3465D02*
X1299D01*
X787Y3583D02*
X906Y3465D01*
X787Y3583D02*
Y5480D01*
X1850Y3937D02*
X2402D01*
X1299D02*
X1850D01*
D27*
X11112Y4674D02*
Y6447D01*
X11063Y6496D02*
X11112Y6447D01*
X11063Y6496D02*
Y6752D01*
X10748Y6455D02*
Y6752D01*
Y6455D02*
X10876Y6327D01*
X10433Y6436D02*
Y6752D01*
Y6436D02*
X10640Y6229D01*
Y4478D02*
X13327Y1791D01*
X10640Y4478D02*
Y6229D01*
X10876Y4576D02*
X13681Y1772D01*
X10876Y4576D02*
Y6327D01*
X11112Y4674D02*
X13601Y2185D01*
X11654Y8031D02*
X12028D01*
X11378Y7756D02*
X11654Y8031D01*
X10263Y7756D02*
X11378D01*
X10145Y7638D02*
X10263Y7756D01*
X9132Y7638D02*
X10118D01*
Y6752D02*
Y7638D01*
X10394Y7441D02*
X10581Y7254D01*
X8543Y7049D02*
X9132Y7638D01*
X8543Y6752D02*
Y7049D01*
X12401Y8031D02*
X12795Y7638D01*
X12028Y8031D02*
X12401D01*
X12795Y7638D02*
X13091D01*
X7323Y7402D02*
X7579D01*
X6890Y6969D02*
X7323Y7402D01*
X6614Y7244D02*
X6890Y6969D01*
X6555Y8152D02*
X6676Y8031D01*
X12744Y8307D02*
X13346D01*
X12389Y8661D02*
X12744Y8307D01*
X12028Y8661D02*
X12389D01*
X12363Y8976D02*
X12875Y9488D01*
X12028Y8976D02*
X12363D01*
X12374Y9341D02*
X12453Y9419D01*
X12372Y9341D02*
X12374D01*
X12323Y9291D02*
X12372Y9341D01*
X12028Y9291D02*
X12323D01*
X12304Y9606D02*
X12353Y9656D01*
X12028Y9606D02*
X12304D01*
X12353Y9656D02*
X12374D01*
X12472Y9419D02*
X12766Y9713D01*
X12453Y9419D02*
X12472D01*
X12374Y9656D02*
X12530Y9811D01*
X12875Y9488D02*
X13346D01*
X12766Y9713D02*
Y9734D01*
X12530Y9811D02*
Y9832D01*
X18124Y11343D02*
X18443Y11024D01*
X17782Y11343D02*
X18124D01*
X17620Y11181D02*
X17782Y11343D01*
X13228Y11181D02*
X17620D01*
X12756Y11654D02*
X13228Y11181D01*
X13406Y10551D02*
X13445Y10591D01*
X12835Y10551D02*
X13406D01*
X3268Y16024D02*
Y16043D01*
X7579Y10551D02*
Y12126D01*
X8110Y12657D01*
X8327Y12441D01*
X8780D01*
X9488Y11201D02*
Y13818D01*
X9173Y11201D02*
Y13799D01*
X9803Y11201D02*
Y11693D01*
X9171Y10591D02*
X9567D01*
X10460Y10197D02*
X10997D01*
X9370Y9107D02*
X10460Y10197D01*
X8882Y10250D02*
X9783D01*
X9154Y2992D02*
X9898Y2248D01*
Y787D02*
Y2248D01*
X10134Y2051D02*
Y3331D01*
Y2051D02*
X10398Y1787D01*
X10118Y3346D02*
X10134Y3331D01*
X13720Y7008D02*
X13760D01*
X13091Y7638D02*
X13720Y7008D01*
X5688Y4094D02*
X8150D01*
X5512Y3918D02*
X5688Y4094D01*
X5512Y3376D02*
Y3918D01*
X5591Y4331D02*
X7992D01*
X5197Y3937D02*
X5591Y4331D01*
X5197Y3376D02*
Y3937D01*
X8150Y4094D02*
X9055Y5000D01*
Y5098D01*
X8425Y4764D02*
Y5098D01*
X7992Y4331D02*
X8425Y4764D01*
X18937Y6102D02*
X19366Y5673D01*
X18005Y6102D02*
X18937D01*
X13990Y10118D02*
X18005Y6102D01*
X18209Y5407D02*
X18953Y4663D01*
X18209Y5407D02*
Y5565D01*
X13892Y9882D02*
X18209Y5565D01*
X18953Y4579D02*
Y4663D01*
X12913Y9882D02*
X13892D01*
X19366Y7833D02*
Y8991D01*
X18953Y7419D02*
X19366Y7833D01*
X18443Y9914D02*
X19366Y8991D01*
Y4408D02*
Y5673D01*
X18953Y3994D02*
X19366Y4408D01*
X6890Y6102D02*
Y6969D01*
Y5853D02*
Y6102D01*
X7165Y6378D01*
X7966D01*
X8124Y6220D01*
X8346D01*
X8543Y6417D01*
Y6752D01*
X9370Y8228D02*
Y9107D01*
X8228Y7087D02*
X9370Y8228D01*
X8228Y6752D02*
Y7087D01*
X6437Y5400D02*
X6890Y5853D01*
X6437Y5374D02*
Y5400D01*
X7657Y5374D02*
X7657D01*
X6299Y6043D02*
X6437D01*
X5000Y5906D02*
Y6024D01*
X14409Y6614D02*
X15000Y6024D01*
X13484Y6614D02*
X14409D01*
X13091Y7008D02*
X13484Y6614D01*
X8228Y11201D02*
Y11988D01*
X12913Y6614D02*
X13504Y6024D01*
X12128Y6614D02*
X12913D01*
X11488Y7254D02*
X12128Y6614D01*
X10581Y7254D02*
X11488D01*
X8228Y10904D02*
X8882Y10250D01*
X8228Y10904D02*
Y11201D01*
X12421Y7008D02*
Y7264D01*
X12283Y7402D02*
X12421Y7264D01*
X12028Y7402D02*
X12283D01*
X18953Y7004D02*
Y7419D01*
X18443Y9914D02*
Y11024D01*
X11063Y11201D02*
Y11949D01*
X8543Y11654D02*
X8819Y11929D01*
X8543Y11201D02*
Y11654D01*
X12382Y7717D02*
X13091Y7008D01*
X12028Y7717D02*
X12382D01*
X6676Y8031D02*
X7579D01*
X11745Y10945D02*
X18110D01*
X10997Y10197D02*
X11745Y10945D01*
X17953Y10929D02*
Y10945D01*
X5543Y17763D02*
X9488Y13818D01*
X5543Y17763D02*
Y18110D01*
X5803Y19110D02*
X6043D01*
X5130Y18437D02*
X5803Y19110D01*
X5130Y17843D02*
Y18437D01*
Y17843D02*
X9173Y13799D01*
X8907Y10854D02*
X9171Y10591D01*
X8858Y11201D02*
X8907Y11152D01*
Y10854D02*
Y11152D01*
X9055Y5768D02*
X9173Y5886D01*
Y6752D01*
X8425Y5768D02*
X8858Y6201D01*
Y6752D01*
X10748Y11201D02*
Y11752D01*
X10551Y11949D02*
X10748Y11752D01*
X8228Y11201D02*
X8228Y11201D01*
X9803Y11201D02*
X9803Y11201D01*
X10748Y10787D02*
Y11201D01*
Y10787D02*
X10920Y10616D01*
X10970D01*
X12028Y10551D02*
X12835D01*
X12816Y10118D02*
X13990D01*
X12530Y9832D02*
X12816Y10118D01*
X12766Y9734D02*
X12913Y9882D01*
X12028Y10551D02*
X12028Y10551D01*
X12717Y16732D02*
X14803D01*
X12421Y17028D02*
X12717Y16732D01*
X12362Y17087D02*
X12421Y17028D01*
Y17644D01*
X12329Y17736D02*
X12421Y17644D01*
X11785Y17736D02*
X12329D01*
X11693Y17644D02*
X11785Y17736D01*
X11693Y17638D02*
Y17644D01*
X11142Y17087D02*
X11693Y17638D01*
X10935Y17087D02*
X11142D01*
X11831Y16713D02*
X12057D01*
X11693Y16850D02*
X11831Y16713D01*
X11693Y16850D02*
Y17270D01*
X11884Y17461D01*
X12057D01*
Y17087D02*
X12362D01*
X12037Y17441D02*
X12057Y17461D01*
X11760Y16415D02*
X12057Y16713D01*
X13799Y17087D02*
X14791D01*
X15799Y18094D01*
X16807Y17087D02*
X17067D01*
X15799Y18094D02*
X16807Y17087D01*
X14157Y2441D02*
X14827Y1772D01*
X13679Y2441D02*
X14157D01*
X11378Y4742D02*
X13679Y2441D01*
X11378Y4742D02*
Y6752D01*
X14327Y772D02*
Y1856D01*
X13998Y2185D02*
X14327Y1856D01*
X13601Y2185D02*
X13998D01*
X13681Y1772D02*
X13827D01*
X13327Y772D02*
Y1791D01*
X10650Y2638D02*
Y2933D01*
X10433Y3150D02*
X10650Y2933D01*
X9409Y3209D02*
Y3346D01*
Y3209D02*
X9803Y2815D01*
X9154Y2992D02*
Y3327D01*
X9134Y3346D02*
X9154Y3327D01*
X18949Y3583D02*
X18953Y3579D01*
Y3994D01*
X6831Y10551D02*
X7579D01*
X9803Y5965D02*
X10000Y5768D01*
X9803Y5965D02*
Y6752D01*
X5000Y5906D02*
X5531Y5374D01*
X4311Y6043D02*
X4409D01*
X6772Y9291D02*
X7579D01*
X6772Y8661D02*
X7579D01*
X7047Y9606D02*
X7579D01*
X7047Y8976D02*
X7579D01*
X6772Y9921D02*
X7579D01*
X7047Y8346D02*
X7579D01*
X7579Y8661D02*
X7579Y8661D01*
X1768Y14177D02*
X1890Y14055D01*
X2315D01*
X3209Y14665D02*
Y14685D01*
X3020Y11398D02*
X3272Y11146D01*
X2795Y11398D02*
X3020D01*
X3272Y11146D02*
Y12327D01*
X3583Y12638D01*
Y13071D01*
X3346Y13307D02*
X3583Y13071D01*
X3189Y12835D02*
X3268D01*
X2953Y13071D02*
X3189Y12835D01*
X2953Y13071D02*
Y13268D01*
X2539Y13681D02*
X2953Y13268D01*
X2315Y13681D02*
X2539D01*
X2315Y13035D02*
Y13307D01*
X2272Y12992D02*
X2315Y13035D01*
X2539Y14280D02*
Y14685D01*
X2315Y14055D02*
X2539Y14280D01*
D28*
X9488Y6752D02*
Y7323D01*
X13760Y7935D02*
X13797Y7972D01*
X13760Y7638D02*
Y7935D01*
X13878Y8563D02*
X14173Y8858D01*
X13878Y8053D02*
Y8563D01*
X13797Y7972D02*
X13878Y8053D01*
X12772Y7972D02*
X13797D01*
X12398Y8346D02*
X12772Y7972D01*
X12028Y8346D02*
X12398D01*
X11516Y11909D02*
X12008Y12402D01*
X11516Y11780D02*
Y11909D01*
X11378Y11642D02*
X11516Y11780D01*
X11378Y11201D02*
Y11642D01*
X12756Y8898D02*
X13346D01*
X12677Y8819D02*
X12756Y8898D01*
X10000Y10591D02*
X10118Y10709D01*
X10433Y10591D02*
Y11201D01*
X10591Y9882D02*
X10630Y9921D01*
X9370Y315D02*
X9488Y433D01*
Y1140D01*
X9004Y1624D02*
X9488Y1140D01*
X9004Y1624D02*
Y2075D01*
X9291Y2362D01*
X9843Y3346D02*
Y4094D01*
X9882Y4134D01*
X8858Y3346D02*
Y3780D01*
X8898Y3819D01*
X10118Y10709D02*
Y11201D01*
X10630Y9921D02*
X12028D01*
X12028Y10236D02*
X12028Y10236D01*
X11535Y10236D02*
X12028D01*
D29*
X2402Y2953D02*
Y3465D01*
X1850Y3465D02*
X1850Y3465D01*
X1850Y2953D02*
Y3465D01*
D30*
X787Y11614D02*
D03*
Y12992D02*
D03*
Y15748D02*
D03*
Y14370D02*
D03*
X9252Y18898D02*
D03*
X7874D02*
D03*
X10630D02*
D03*
X12008D02*
D03*
X787Y8858D02*
D03*
Y10236D02*
D03*
D31*
X2598Y8268D02*
D03*
X4016Y16142D02*
D03*
D32*
X2598Y10236D02*
D03*
D33*
X5984Y16142D02*
D03*
D34*
X6378Y2323D02*
D03*
X4646D02*
D03*
D35*
X9398Y1787D02*
D03*
X10398D02*
D03*
X10898Y787D02*
D03*
X11398Y1787D02*
D03*
X8898Y787D02*
D03*
X9898D02*
D03*
X15799Y17976D02*
D03*
X16299Y18976D02*
D03*
X14799Y17976D02*
D03*
X13799D02*
D03*
X15299Y18976D02*
D03*
X14299D02*
D03*
X15327Y772D02*
D03*
X15827Y1772D02*
D03*
X14327Y772D02*
D03*
X13327D02*
D03*
X14827Y1772D02*
D03*
X13827D02*
D03*
X18953Y4579D02*
D03*
X17953Y4079D02*
D03*
X18953Y3579D02*
D03*
X17953Y5079D02*
D03*
X18953Y11429D02*
D03*
X17953Y10929D02*
D03*
X18953Y10429D02*
D03*
X17953Y11929D02*
D03*
X4043Y19110D02*
D03*
X3543Y18110D02*
D03*
X5043Y19110D02*
D03*
X6043D02*
D03*
X4543Y18110D02*
D03*
X5543D02*
D03*
X18953Y7004D02*
D03*
X17953Y7504D02*
D03*
X18953Y8004D02*
D03*
X17953Y8504D02*
D03*
X787Y6480D02*
D03*
Y5480D02*
D03*
Y7480D02*
D03*
D36*
X1181Y18504D02*
D03*
X18504D02*
D03*
Y1181D02*
D03*
X1181D02*
D03*
D37*
X8268Y8031D02*
D03*
X10433Y7441D02*
D03*
X9488Y7323D02*
D03*
X12677Y8819D02*
D03*
X3268Y16024D02*
D03*
X2362Y17165D02*
D03*
X9528Y5079D02*
D03*
X9488Y6063D02*
D03*
X15748Y3150D02*
D03*
Y4213D02*
D03*
X16339Y12795D02*
D03*
X17717Y13780D02*
D03*
X18504D02*
D03*
X14961Y10433D02*
D03*
X15157Y11811D02*
D03*
X16929D02*
D03*
X17126Y10433D02*
D03*
X15748Y9252D02*
D03*
X17126Y7874D02*
D03*
X14370Y7087D02*
D03*
X9843Y8858D02*
D03*
X9882Y8110D02*
D03*
X8976Y8740D02*
D03*
X9449Y9843D02*
D03*
X8268Y10236D02*
D03*
X5315Y9252D02*
D03*
X5118Y8071D02*
D03*
X4134Y7283D02*
D03*
Y9055D02*
D03*
X2362Y6063D02*
D03*
X5315Y14961D02*
D03*
Y12598D02*
D03*
X6496Y13386D02*
D03*
X12008Y12402D02*
D03*
X11417Y15551D02*
D03*
X12598Y14370D02*
D03*
X13189Y12795D02*
D03*
X10039D02*
D03*
Y14173D02*
D03*
X8465Y15551D02*
D03*
X7677Y14567D02*
D03*
X8661Y13583D02*
D03*
X5512Y10433D02*
D03*
X7087Y11220D02*
D03*
X6339Y11496D02*
D03*
X6496Y15354D02*
D03*
X394Y17323D02*
D03*
X2362Y19291D02*
D03*
X394Y2362D02*
D03*
X2362Y394D02*
D03*
X7677Y4724D02*
D03*
X4134D02*
D03*
X3346Y2165D02*
D03*
X4528Y787D02*
D03*
X6299D02*
D03*
X7283Y2362D02*
D03*
X8071Y3346D02*
D03*
X5709Y2559D02*
D03*
X6496Y3150D02*
D03*
Y3740D02*
D03*
X8661Y2559D02*
D03*
X9252Y4331D02*
D03*
X11614Y787D02*
D03*
X12598Y1772D02*
D03*
X12402Y4331D02*
D03*
X14173Y2953D02*
D03*
X16929Y1575D02*
D03*
X18307Y2953D02*
D03*
X17323Y394D02*
D03*
X19291Y2362D02*
D03*
X15945Y6890D02*
D03*
X14173Y8858D02*
D03*
X11811Y6299D02*
D03*
X8780Y12441D02*
D03*
X9803Y11693D02*
D03*
X9567Y10591D02*
D03*
X10000D02*
D03*
X10433D02*
D03*
X10591Y9882D02*
D03*
X11181Y11988D02*
D03*
X9291Y2362D02*
D03*
X7657Y5374D02*
D03*
X6299Y6043D02*
D03*
X5000Y6024D02*
D03*
X9783Y10250D02*
D03*
X12421Y7008D02*
D03*
X12756Y11654D02*
D03*
X8819Y11929D02*
D03*
X10970Y10616D02*
D03*
X12835Y10551D02*
D03*
X10935Y16713D02*
D03*
X14803Y16732D02*
D03*
X11760Y16415D02*
D03*
X13799Y17087D02*
D03*
X17067D02*
D03*
X10650Y2638D02*
D03*
X9882Y4134D02*
D03*
X8898Y3819D02*
D03*
X9803Y2815D02*
D03*
X11535Y10236D02*
D03*
X7559Y6043D02*
D03*
X5669D02*
D03*
X4409Y6043D02*
D03*
X6772Y9291D02*
D03*
X6772Y8661D02*
D03*
X7047Y9606D02*
D03*
X7047Y8976D02*
D03*
X6772Y9921D02*
D03*
X7047Y8346D02*
D03*
X1768Y14177D02*
D03*
X3209Y14665D02*
D03*
X3268Y12835D02*
D03*
X3272Y11146D02*
D03*
X2272Y12992D02*
D03*
D38*
X7520Y18150D02*
D03*
X2402Y2953D02*
D03*
X8268Y17520D02*
D03*
X7677Y16929D02*
D03*
X4567Y2874D02*
D03*
X1850Y2953D02*
D03*
M02*
