G04 Layer_Physical_Order=2*
G04 Layer_Color=16711680*
%FSLAX24Y24*%
%MOIN*%
G70*
G01*
G75*
G04:AMPARAMS|DCode=15|XSize=39.4mil|YSize=35.4mil|CornerRadius=4.4mil|HoleSize=0mil|Usage=FLASHONLY|Rotation=0.000|XOffset=0mil|YOffset=0mil|HoleType=Round|Shape=RoundedRectangle|*
%AMROUNDEDRECTD15*
21,1,0.0394,0.0266,0,0,0.0*
21,1,0.0305,0.0354,0,0,0.0*
1,1,0.0089,0.0153,-0.0133*
1,1,0.0089,-0.0153,-0.0133*
1,1,0.0089,-0.0153,0.0133*
1,1,0.0089,0.0153,0.0133*
%
%ADD15ROUNDEDRECTD15*%
G04:AMPARAMS|DCode=16|XSize=39.4mil|YSize=35.4mil|CornerRadius=4.4mil|HoleSize=0mil|Usage=FLASHONLY|Rotation=270.000|XOffset=0mil|YOffset=0mil|HoleType=Round|Shape=RoundedRectangle|*
%AMROUNDEDRECTD16*
21,1,0.0394,0.0266,0,0,270.0*
21,1,0.0305,0.0354,0,0,270.0*
1,1,0.0089,-0.0133,-0.0153*
1,1,0.0089,-0.0133,0.0153*
1,1,0.0089,0.0133,0.0153*
1,1,0.0089,0.0133,-0.0153*
%
%ADD16ROUNDEDRECTD16*%
%ADD25C,0.0157*%
%ADD26C,0.0118*%
%ADD27C,0.0394*%
%ADD29C,0.0236*%
%ADD30C,0.0512*%
%ADD31C,0.0945*%
%ADD32R,0.0532X0.0532*%
%ADD33C,0.0532*%
%ADD34R,0.0532X0.0532*%
%ADD35C,0.0354*%
%ADD36C,0.0787*%
%ADD37C,0.0315*%
%ADD38C,0.0394*%
%ADD39R,0.1820X0.1780*%
%ADD40R,0.0650X0.0240*%
%ADD41O,0.0236X0.0610*%
%ADD42R,0.0236X0.0610*%
%ADD43R,0.0118X0.0571*%
%ADD44O,0.0118X0.0571*%
%ADD45O,0.0283X0.0701*%
%ADD46R,0.0283X0.0701*%
G04:AMPARAMS|DCode=47|XSize=70.9mil|YSize=45.3mil|CornerRadius=5.7mil|HoleSize=0mil|Usage=FLASHONLY|Rotation=0.000|XOffset=0mil|YOffset=0mil|HoleType=Round|Shape=RoundedRectangle|*
%AMROUNDEDRECTD47*
21,1,0.0709,0.0340,0,0,0.0*
21,1,0.0595,0.0453,0,0,0.0*
1,1,0.0113,0.0298,-0.0170*
1,1,0.0113,-0.0298,-0.0170*
1,1,0.0113,-0.0298,0.0170*
1,1,0.0113,0.0298,0.0170*
%
%ADD47ROUNDEDRECTD47*%
G04:AMPARAMS|DCode=48|XSize=70.9mil|YSize=51.2mil|CornerRadius=6.4mil|HoleSize=0mil|Usage=FLASHONLY|Rotation=0.000|XOffset=0mil|YOffset=0mil|HoleType=Round|Shape=RoundedRectangle|*
%AMROUNDEDRECTD48*
21,1,0.0709,0.0384,0,0,0.0*
21,1,0.0581,0.0512,0,0,0.0*
1,1,0.0128,0.0290,-0.0192*
1,1,0.0128,-0.0290,-0.0192*
1,1,0.0128,-0.0290,0.0192*
1,1,0.0128,0.0290,0.0192*
%
%ADD48ROUNDEDRECTD48*%
G36*
X1298Y12285D02*
X120D01*
Y15077D01*
X1298D01*
Y12285D01*
D02*
G37*
G36*
X3543Y15157D02*
X120D01*
Y16339D01*
X1181D01*
X1575Y16732D01*
X3543D01*
Y15157D01*
D02*
G37*
G36*
X8661Y19094D02*
Y19094D01*
Y18701D01*
X9252Y18110D01*
Y16142D01*
X7283D01*
Y19094D01*
Y19094D01*
X7677Y19488D01*
X8268D01*
X8661Y19094D01*
D02*
G37*
G36*
X18128Y4328D02*
X18128Y4328D01*
X18728D01*
X18802Y4269D01*
X18784Y4153D01*
X18451D01*
X18389Y4140D01*
X18337Y4106D01*
X18337Y4106D01*
X18057Y3826D01*
X17848D01*
X17505Y4169D01*
X17453Y4203D01*
X17441Y4213D01*
X17484Y4332D01*
X18108D01*
X18128Y4328D01*
D02*
G37*
G36*
X4724Y14567D02*
Y10039D01*
X4134Y9449D01*
X204Y9449D01*
X120Y9532D01*
Y10943D01*
X1148D01*
X1518Y10573D01*
X1544Y10556D01*
X1575Y10550D01*
X3543D01*
X3574Y10556D01*
X3600Y10573D01*
X3617Y10599D01*
X3624Y10630D01*
Y12205D01*
X3617Y12235D01*
X3600Y12261D01*
X3574Y12279D01*
X3543Y12285D01*
X1378D01*
Y15077D01*
X3543D01*
X3574Y15083D01*
X3600Y15101D01*
X3617Y15127D01*
X3624Y15157D01*
X4134D01*
X4724Y14567D01*
D02*
G37*
G36*
X3543Y10630D02*
X1575D01*
X1181Y11024D01*
X120D01*
Y12205D01*
X3543D01*
Y10630D01*
D02*
G37*
G36*
X12598Y19291D02*
Y18110D01*
X11046Y16558D01*
X10227D01*
Y16614D01*
X9449D01*
Y18110D01*
X10827D01*
Y18110D01*
X11220Y18504D01*
Y19094D01*
X11614Y19488D01*
X12402D01*
X12598Y19291D01*
D02*
G37*
G36*
X6693Y15945D02*
X11614D01*
X12992Y14567D01*
X13110D01*
X13173Y14449D01*
X13165Y14437D01*
X13150Y14360D01*
Y14232D01*
X13350D01*
Y14173D01*
X13409D01*
Y13797D01*
X13427Y13801D01*
X13492Y13844D01*
X13504Y13862D01*
X13634Y13879D01*
X13645Y13876D01*
X13690Y13825D01*
Y13768D01*
X13661Y13661D01*
X13346D01*
X13341Y13656D01*
X13302Y13664D01*
X13228D01*
Y13386D01*
Y13108D01*
X13302D01*
X13341Y13116D01*
X13346Y13110D01*
X13661D01*
X13678Y12999D01*
Y12724D01*
X13083Y12129D01*
X12625D01*
X12625Y12129D01*
X12564Y12117D01*
X12512Y12082D01*
X12512Y12082D01*
X12441Y12011D01*
X11417D01*
X11404Y12080D01*
X11351Y12158D01*
X11273Y12211D01*
X11181Y12229D01*
X11089Y12211D01*
X11011Y12158D01*
X11004Y12149D01*
X10441D01*
X10232Y12358D01*
X10180Y12392D01*
X10118Y12405D01*
X10118Y12405D01*
X9133D01*
X9020Y12441D01*
X9002Y12533D01*
X8950Y12611D01*
X8872Y12663D01*
X8780Y12682D01*
X8687Y12663D01*
X8609Y12611D01*
X8557Y12533D01*
X8539Y12441D01*
X8557Y12349D01*
X8609Y12271D01*
X8651Y12243D01*
X8664Y12128D01*
X8659Y12106D01*
X8649Y12099D01*
X8596Y12021D01*
X8578Y11929D01*
X8596Y11837D01*
X8649Y11759D01*
X8727Y11707D01*
X8819Y11688D01*
X8911Y11707D01*
X8989Y11759D01*
X9041Y11837D01*
X9043Y11847D01*
X9491D01*
X9570Y11729D01*
X9562Y11693D01*
X9581Y11601D01*
X9633Y11523D01*
X9711Y11470D01*
X9803Y11452D01*
X9815Y11454D01*
X9928Y11341D01*
X9936Y11300D01*
X9919Y11183D01*
X9571Y10835D01*
X9569Y10831D01*
X9567Y10831D01*
X9475Y10813D01*
X9397Y10761D01*
X9344Y10683D01*
X9326Y10591D01*
X9344Y10498D01*
X9397Y10420D01*
X9475Y10368D01*
X9509Y10361D01*
X9561Y10342D01*
X9543Y10250D01*
X9561Y10158D01*
X9613Y10080D01*
X9691Y10028D01*
X9783Y10009D01*
X9789Y10011D01*
X10371Y9429D01*
Y7669D01*
X10341Y7663D01*
X10263Y7611D01*
X10211Y7533D01*
X10192Y7441D01*
X10211Y7349D01*
X10263Y7271D01*
X10341Y7218D01*
X10433Y7200D01*
X10489Y7211D01*
X10585Y7156D01*
X10608Y7131D01*
Y5354D01*
Y4905D01*
X10025Y4323D01*
X9974Y4356D01*
X9882Y4375D01*
X9790Y4356D01*
X9712Y4304D01*
X9659Y4226D01*
X9641Y4134D01*
X9652Y4078D01*
X9597Y3982D01*
X9572Y3959D01*
X9088D01*
X9068Y3989D01*
X8990Y4041D01*
X8898Y4060D01*
X8805Y4041D01*
X8727Y3989D01*
X8675Y3911D01*
X8657Y3819D01*
X8675Y3727D01*
X8727Y3649D01*
X8805Y3596D01*
X8898Y3578D01*
X8990Y3596D01*
X9068Y3649D01*
X9088Y3678D01*
X10000D01*
X10054Y3689D01*
X10099Y3720D01*
X11170Y4791D01*
X11223D01*
X11277Y4801D01*
X11323Y4832D01*
X11438Y4947D01*
X11476Y4992D01*
Y5033D01*
X11479Y5046D01*
Y5354D01*
X11535D01*
Y5413D01*
X11676D01*
Y5581D01*
X11665Y5634D01*
X11635Y5680D01*
X11589Y5711D01*
X11535Y5721D01*
X11479Y5830D01*
Y9886D01*
X11535Y9995D01*
X11628Y10014D01*
X11706Y10066D01*
X11758Y10144D01*
X11776Y10236D01*
X11758Y10328D01*
X11706Y10407D01*
X11628Y10459D01*
X11535Y10477D01*
X11443Y10459D01*
X11365Y10407D01*
X11313Y10328D01*
X11295Y10239D01*
X11283Y10230D01*
X11185Y10182D01*
X11081Y10286D01*
X11109Y10425D01*
X11140Y10446D01*
X11193Y10524D01*
X11211Y10616D01*
X11303Y10706D01*
X12522D01*
X12601Y10587D01*
X12594Y10551D01*
X12612Y10459D01*
X12664Y10381D01*
X12742Y10329D01*
X12835Y10310D01*
X12927Y10329D01*
X13005Y10381D01*
X13011Y10391D01*
X13110D01*
X13110Y10391D01*
X13172Y10403D01*
X13224Y10438D01*
X15964Y13178D01*
X15964Y13178D01*
X15999Y13230D01*
X16011Y13291D01*
X16011Y13291D01*
Y13872D01*
X16036Y13909D01*
X16040Y13931D01*
X16161D01*
X16165Y13909D01*
X16208Y13844D01*
X16248Y13818D01*
X16236Y13704D01*
X16233Y13697D01*
X16217Y13694D01*
X16176Y13666D01*
X16149Y13626D01*
X16139Y13578D01*
Y13484D01*
X16398D01*
Y13425D01*
X16457D01*
Y13147D01*
X16531D01*
X16569Y13155D01*
X16575Y13150D01*
X16890D01*
X16895Y13155D01*
X16934Y13147D01*
X17200D01*
X17248Y13157D01*
X17289Y13184D01*
X17316Y13225D01*
X17325Y13273D01*
Y13578D01*
X17316Y13626D01*
X17289Y13666D01*
X17248Y13694D01*
X17200Y13703D01*
X17124D01*
X17047Y13789D01*
Y14013D01*
X18634D01*
X19249Y13398D01*
Y11773D01*
X19131Y11714D01*
X19122Y11721D01*
X19040Y11755D01*
X18953Y11767D01*
X18865Y11755D01*
X18784Y11721D01*
X18714Y11668D01*
X18660Y11598D01*
X18627Y11516D01*
X18615Y11429D01*
X18627Y11342D01*
X18660Y11260D01*
X18714Y11190D01*
X18784Y11137D01*
X18865Y11103D01*
X18953Y11092D01*
X19040Y11103D01*
X19048Y11106D01*
X19249Y10906D01*
Y8527D01*
X19048Y8327D01*
X19040Y8330D01*
X18953Y8341D01*
X18865Y8330D01*
X18784Y8296D01*
X18714Y8243D01*
X18660Y8173D01*
X18627Y8091D01*
X18615Y8004D01*
X18627Y7917D01*
X18660Y7835D01*
X18714Y7765D01*
X18784Y7712D01*
X18865Y7678D01*
X18953Y7666D01*
X19040Y7678D01*
X19048Y7681D01*
X19206Y7524D01*
Y7381D01*
X19179Y7354D01*
X19087Y7310D01*
X19040Y7330D01*
X18953Y7341D01*
X18865Y7330D01*
X18784Y7296D01*
X18714Y7243D01*
X18660Y7173D01*
X18627Y7091D01*
X18615Y7004D01*
X18627Y6917D01*
X18660Y6835D01*
X18714Y6765D01*
X18784Y6712D01*
X18865Y6678D01*
X18953Y6666D01*
X19040Y6678D01*
X19087Y6698D01*
X19179Y6654D01*
X19206Y6627D01*
Y4955D01*
X19179Y4929D01*
X19087Y4885D01*
X19040Y4905D01*
X18953Y4916D01*
X18865Y4905D01*
X18784Y4871D01*
X18714Y4817D01*
X18660Y4748D01*
X18627Y4666D01*
X18624Y4649D01*
X18144D01*
X18124Y4653D01*
X18124Y4653D01*
X17353D01*
X17328Y4690D01*
X17316Y4698D01*
X17308Y4728D01*
Y4800D01*
X17316Y4829D01*
X17328Y4837D01*
X17355Y4878D01*
X17365Y4926D01*
Y5231D01*
X17355Y5279D01*
X17328Y5320D01*
X17287Y5347D01*
X17239Y5357D01*
X16973D01*
X16934Y5349D01*
X16929Y5354D01*
X16614D01*
X16609Y5349D01*
X16570Y5357D01*
X16496D01*
Y5079D01*
X16437D01*
Y5020D01*
X16179D01*
Y4926D01*
X16188Y4878D01*
X16215Y4837D01*
X16228Y4829D01*
X16235Y4800D01*
Y4728D01*
X16228Y4698D01*
X16215Y4690D01*
X16188Y4649D01*
X16179Y4601D01*
Y4296D01*
X16188Y4248D01*
X16215Y4208D01*
X16256Y4180D01*
X16276Y4176D01*
Y3973D01*
X16256Y3969D01*
X16215Y3942D01*
X16188Y3901D01*
X16179Y3853D01*
Y3548D01*
X16188Y3500D01*
X16215Y3460D01*
X16228Y3451D01*
X16235Y3422D01*
Y3350D01*
X16228Y3320D01*
X16215Y3312D01*
X16188Y3271D01*
X16179Y3223D01*
Y3130D01*
X16437D01*
Y3071D01*
X16496D01*
Y2793D01*
X16570D01*
X16609Y2801D01*
X16614Y2795D01*
X16929D01*
X16934Y2801D01*
X16973Y2793D01*
X17239D01*
X17287Y2802D01*
X17328Y2830D01*
X17355Y2870D01*
X17365Y2918D01*
Y3223D01*
X17355Y3271D01*
X17328Y3312D01*
X17391Y3412D01*
X17417Y3432D01*
X17429Y3433D01*
X17448Y3427D01*
X17564Y3312D01*
X17616Y3277D01*
X17678Y3265D01*
X18218D01*
X18218Y3265D01*
X18279Y3277D01*
X18331Y3312D01*
X18438Y3418D01*
X18657D01*
X18660Y3410D01*
X18714Y3340D01*
X18784Y3286D01*
X18865Y3253D01*
X18953Y3241D01*
X18994Y3247D01*
X19049Y3135D01*
X16852Y938D01*
X16747Y999D01*
X16755Y1063D01*
X16742Y1161D01*
X16705Y1252D01*
X16645Y1330D01*
X16567Y1390D01*
X16476Y1427D01*
X16378Y1440D01*
X16280Y1427D01*
X16189Y1390D01*
X16111Y1330D01*
X16051Y1252D01*
X16014Y1161D01*
X16001Y1063D01*
X16014Y965D01*
X16045Y889D01*
X16025Y835D01*
X15982Y771D01*
X15665D01*
X15664Y772D01*
X15653Y859D01*
X15619Y940D01*
X15565Y1010D01*
X15496Y1064D01*
X15414Y1098D01*
X15327Y1109D01*
X15239Y1098D01*
X15158Y1064D01*
X15088Y1010D01*
X15034Y940D01*
X15001Y859D01*
X14989Y772D01*
X15001Y684D01*
X15034Y603D01*
X15088Y533D01*
X15158Y479D01*
X15239Y446D01*
X15327Y434D01*
X15414Y446D01*
X15445Y458D01*
X15488Y450D01*
X16752D01*
X16752Y450D01*
X16813Y462D01*
X16866Y497D01*
X17738Y1369D01*
X17837Y1317D01*
X17844Y1308D01*
X17831Y1181D01*
X17844Y1050D01*
X17883Y924D01*
X17945Y807D01*
X18028Y706D01*
X18130Y622D01*
X18247Y560D01*
X18373Y521D01*
X18504Y509D01*
X18635Y521D01*
X18761Y560D01*
X18878Y622D01*
X18979Y706D01*
X19063Y807D01*
X19125Y924D01*
X19164Y1050D01*
X19176Y1181D01*
X19164Y1312D01*
X19125Y1438D01*
X19063Y1555D01*
X18979Y1657D01*
X18878Y1740D01*
X18761Y1802D01*
X18635Y1841D01*
X18504Y1854D01*
X18377Y1841D01*
X18369Y1849D01*
X18316Y1947D01*
X19447Y3078D01*
X19565Y3031D01*
Y120D01*
X9430D01*
X9381Y239D01*
X9540Y397D01*
X9583Y463D01*
X9615Y483D01*
X9712Y508D01*
X9729Y495D01*
X9810Y461D01*
X9898Y450D01*
X9985Y461D01*
X10066Y495D01*
X10136Y549D01*
X10190Y619D01*
X10224Y700D01*
X10235Y787D01*
X10224Y875D01*
X10190Y956D01*
X10136Y1026D01*
X10066Y1080D01*
X9985Y1113D01*
X9898Y1125D01*
X9810Y1113D01*
X9729Y1080D01*
X9716Y1070D01*
X9598Y1128D01*
Y1520D01*
X9636Y1549D01*
X9690Y1619D01*
X9724Y1700D01*
X9735Y1787D01*
X9724Y1875D01*
X9690Y1956D01*
X9636Y2026D01*
X9566Y2080D01*
X9528Y2095D01*
X9514Y2116D01*
X9488Y2204D01*
X9488Y2232D01*
X9514Y2270D01*
X9532Y2362D01*
X9525Y2397D01*
X9607Y2479D01*
X9626Y2480D01*
X9729Y2449D01*
X9732Y2437D01*
X9759Y2397D01*
X9799Y2369D01*
X9847Y2360D01*
X10113D01*
X10152Y2368D01*
X10157Y2362D01*
X10472D01*
X10478Y2368D01*
X10517Y2360D01*
X10650D01*
X10757Y2295D01*
Y2063D01*
X10639Y2023D01*
X10636Y2026D01*
X10566Y2080D01*
X10485Y2113D01*
X10398Y2125D01*
X10310Y2113D01*
X10229Y2080D01*
X10159Y2026D01*
X10105Y1956D01*
X10072Y1875D01*
X10060Y1787D01*
X10072Y1700D01*
X10105Y1619D01*
X10159Y1549D01*
X10229Y1495D01*
X10310Y1461D01*
X10398Y1450D01*
X10485Y1461D01*
X10566Y1495D01*
X10636Y1549D01*
X10639Y1552D01*
X10757Y1512D01*
Y1091D01*
X10729Y1080D01*
X10659Y1026D01*
X10605Y956D01*
X10572Y875D01*
X10560Y787D01*
X10572Y700D01*
X10605Y619D01*
X10659Y549D01*
X10729Y495D01*
X10810Y461D01*
X10898Y450D01*
X10985Y461D01*
X11066Y495D01*
X11136Y549D01*
X11190Y619D01*
X11224Y700D01*
X11235Y787D01*
X11224Y875D01*
X11190Y956D01*
X11136Y1026D01*
X11066Y1080D01*
X11038Y1091D01*
Y1512D01*
X11156Y1552D01*
X11159Y1549D01*
X11229Y1495D01*
X11310Y1461D01*
X11398Y1450D01*
X11485Y1461D01*
X11566Y1495D01*
X11636Y1549D01*
X11690Y1619D01*
X11724Y1700D01*
X11735Y1787D01*
X11724Y1875D01*
X11690Y1956D01*
X11636Y2026D01*
X11641Y2171D01*
X11830Y2360D01*
X12042D01*
X12090Y2369D01*
X12131Y2397D01*
X12158Y2437D01*
X12168Y2485D01*
Y2790D01*
X12158Y2838D01*
X12131Y2879D01*
X12090Y2906D01*
X12042Y2916D01*
X11830D01*
X11676Y3070D01*
Y3622D01*
Y3848D01*
X11665Y3902D01*
X11635Y3948D01*
X11589Y3978D01*
X11535Y3989D01*
X11482Y3978D01*
X11437Y3948D01*
X11392Y3978D01*
X11339Y3989D01*
X11285Y3978D01*
X11240Y3948D01*
X11195Y3978D01*
X11142Y3989D01*
X11088Y3978D01*
X11043Y3948D01*
X10999Y3978D01*
X10945Y3989D01*
X10891Y3978D01*
X10846Y3948D01*
X10802Y3978D01*
X10748Y3989D01*
X10694Y3978D01*
X10649Y3948D01*
X10618Y3902D01*
X10608Y3848D01*
Y3405D01*
X10513Y3310D01*
X9740D01*
X9686Y3299D01*
X9641Y3269D01*
X9409Y3037D01*
X9378Y2991D01*
X9367Y2937D01*
Y2700D01*
X9291Y2603D01*
X9199Y2585D01*
X9121Y2533D01*
X9069Y2454D01*
X9050Y2362D01*
X9069Y2270D01*
X9121Y2192D01*
X9153Y2170D01*
X9169Y2042D01*
X9165Y2031D01*
X9159Y2026D01*
X9105Y1956D01*
X9072Y1875D01*
X9060Y1787D01*
X9072Y1700D01*
X9105Y1619D01*
X9159Y1549D01*
X9197Y1520D01*
Y623D01*
X9090Y516D01*
X3390D01*
X2602Y1304D01*
Y2762D01*
X2642Y2814D01*
X2670Y2881D01*
X2680Y2953D01*
X2670Y3025D01*
X2642Y3092D01*
X2598Y3149D01*
X2541Y3193D01*
X2474Y3221D01*
X2402Y3231D01*
X2379Y3228D01*
X2324Y3340D01*
X2957Y3973D01*
X3114D01*
X3118Y3951D01*
X3148Y3906D01*
X3193Y3876D01*
X3246Y3865D01*
X3841D01*
X3894Y3876D01*
X3923Y3895D01*
X4189D01*
X4213Y3859D01*
X4260Y3827D01*
X4316Y3816D01*
X4897D01*
X4952Y3827D01*
X5000Y3859D01*
X5031Y3906D01*
X5042Y3962D01*
Y4345D01*
X5031Y4401D01*
X5000Y4448D01*
X4952Y4480D01*
X4897Y4491D01*
X4316D01*
X4260Y4480D01*
X4217Y4451D01*
X3923D01*
X3894Y4470D01*
X3841Y4481D01*
X3246D01*
X3193Y4470D01*
X3148Y4441D01*
X3118Y4396D01*
X3114Y4374D01*
X2874D01*
X2797Y4359D01*
X2732Y4315D01*
X1708Y3292D01*
X1665Y3226D01*
X1650Y3150D01*
Y3144D01*
X1610Y3092D01*
X1582Y3025D01*
X1572Y2953D01*
X1582Y2881D01*
X1610Y2814D01*
X1654Y2756D01*
X1711Y2712D01*
X1778Y2684D01*
X1850Y2675D01*
X1922Y2684D01*
X1989Y2712D01*
X2047Y2756D01*
X2152Y2709D01*
X2201Y2661D01*
Y1220D01*
X2216Y1144D01*
X2260Y1079D01*
X3100Y239D01*
X3051Y120D01*
X120D01*
Y9274D01*
X126Y9285D01*
X204Y9369D01*
X1262D01*
X1376Y9255D01*
Y8462D01*
X788Y7874D01*
X723Y7809D01*
X700Y7806D01*
X619Y7773D01*
X549Y7719D01*
X495Y7649D01*
X461Y7568D01*
X450Y7480D01*
X461Y7393D01*
X495Y7312D01*
X549Y7242D01*
X619Y7188D01*
X700Y7154D01*
X787Y7143D01*
X875Y7154D01*
X956Y7188D01*
X1026Y7242D01*
X1080Y7312D01*
X1113Y7393D01*
X1114Y7399D01*
X1471D01*
X1500Y7380D01*
X1553Y7369D01*
X2148D01*
X2201Y7380D01*
X2246Y7410D01*
X2276Y7455D01*
X2286Y7507D01*
Y7847D01*
X2276Y7900D01*
X2246Y7945D01*
X2201Y7974D01*
X2148Y7985D01*
X1839D01*
X1794Y8094D01*
X1850Y8150D01*
X1894Y8207D01*
X1922Y8275D01*
X1932Y8346D01*
Y9369D01*
X4134Y9369D01*
X4165Y9375D01*
X4191Y9392D01*
X4191Y9392D01*
X4781Y9983D01*
X4799Y10009D01*
X4805Y10039D01*
Y14567D01*
X4799Y14598D01*
X4781Y14624D01*
X4781Y14624D01*
X4191Y15214D01*
X4165Y15232D01*
X4134Y15238D01*
X3624D01*
Y16732D01*
X3617Y16763D01*
X3600Y16789D01*
X3574Y16806D01*
X3543Y16813D01*
X1575D01*
X1575Y16813D01*
X1544Y16806D01*
X1518Y16789D01*
X1518Y16789D01*
X1148Y16419D01*
X120D01*
Y19565D01*
X4945D01*
X4975Y19447D01*
X4956Y19436D01*
X4954Y19435D01*
X4956Y19436D01*
X4956Y19436D01*
X4956Y19436D01*
X4956Y19436D01*
X4943Y19431D01*
X4875Y19403D01*
X4805Y19349D01*
X4751Y19279D01*
X4717Y19198D01*
X4706Y19110D01*
X4717Y19023D01*
X4751Y18941D01*
X4805Y18872D01*
X4875Y18818D01*
X4956Y18784D01*
X5043Y18773D01*
X5131Y18784D01*
X5212Y18818D01*
X5282Y18872D01*
X5336Y18941D01*
X5369Y19023D01*
X5381Y19110D01*
X5369Y19198D01*
X5336Y19279D01*
X5282Y19349D01*
X5212Y19403D01*
X5144Y19431D01*
X5131Y19436D01*
X5131Y19436D01*
X5131Y19436D01*
X5131Y19436D01*
X5133Y19435D01*
X5131Y19436D01*
X5112Y19447D01*
X5142Y19565D01*
X5945D01*
X5975Y19447D01*
X5956Y19436D01*
X5956Y19436D01*
X5956Y19436D01*
X5943Y19431D01*
X5875Y19403D01*
X5805Y19349D01*
X5751Y19279D01*
X5717Y19198D01*
X5706Y19110D01*
X5717Y19023D01*
X5751Y18941D01*
X5805Y18872D01*
X5875Y18818D01*
X5956Y18784D01*
X6043Y18773D01*
X6131Y18784D01*
X6212Y18818D01*
X6282Y18872D01*
X6336Y18941D01*
X6369Y19023D01*
X6381Y19110D01*
X6369Y19198D01*
X6336Y19279D01*
X6282Y19349D01*
X6212Y19403D01*
X6144Y19431D01*
X6131Y19436D01*
X6131Y19436D01*
X6131Y19436D01*
X6131Y19436D01*
X6133Y19435D01*
X6131Y19436D01*
X6112Y19447D01*
X6142Y19565D01*
X6693D01*
Y15945D01*
D02*
G37*
%LPC*%
G36*
X787Y5818D02*
X700Y5806D01*
X619Y5773D01*
X549Y5719D01*
X495Y5649D01*
X461Y5568D01*
X450Y5480D01*
X461Y5393D01*
X495Y5312D01*
X549Y5242D01*
X619Y5188D01*
X700Y5154D01*
X787Y5143D01*
X875Y5154D01*
X956Y5188D01*
X1026Y5242D01*
X1055Y5280D01*
X1307D01*
X1415Y5171D01*
Y5044D01*
X1424Y4996D01*
X1452Y4956D01*
X1492Y4928D01*
X1540Y4919D01*
X1845D01*
X1893Y4928D01*
X1934Y4956D01*
X1961Y4996D01*
X1971Y5044D01*
Y5310D01*
X1963Y5349D01*
X1969Y5354D01*
Y5669D01*
X1890Y5748D01*
X1496D01*
X1423Y5674D01*
X1390Y5681D01*
X1055D01*
X1026Y5719D01*
X956Y5773D01*
X875Y5806D01*
X787Y5818D01*
D02*
G37*
G36*
X16378Y3012D02*
X16179D01*
Y2918D01*
X16188Y2870D01*
X16215Y2830D01*
X16256Y2802D01*
X16304Y2793D01*
X16378D01*
Y3012D01*
D02*
G37*
G36*
X11676Y5295D02*
X11594D01*
Y5002D01*
X11635Y5029D01*
X11665Y5074D01*
X11676Y5128D01*
Y5295D01*
D02*
G37*
G36*
X17953Y7841D02*
X17865Y7830D01*
X17784Y7796D01*
X17714Y7743D01*
X17660Y7673D01*
X17657Y7664D01*
X12917D01*
X12917Y7664D01*
X12856Y7652D01*
X12804Y7617D01*
X12433Y7246D01*
X12421Y7249D01*
X12329Y7230D01*
X12251Y7178D01*
X12199Y7100D01*
X12180Y7008D01*
X12199Y6916D01*
X12251Y6838D01*
X12329Y6785D01*
X12421Y6767D01*
X12513Y6785D01*
X12592Y6838D01*
X12644Y6916D01*
X12662Y7008D01*
X12660Y7019D01*
X12984Y7343D01*
X17657D01*
X17660Y7335D01*
X17714Y7265D01*
X17784Y7212D01*
X17865Y7178D01*
X17953Y7166D01*
X18040Y7178D01*
X18122Y7212D01*
X18191Y7265D01*
X18245Y7335D01*
X18279Y7417D01*
X18290Y7504D01*
X18279Y7591D01*
X18245Y7673D01*
X18191Y7743D01*
X18122Y7796D01*
X18040Y7830D01*
X17953Y7841D01*
D02*
G37*
G36*
X18661Y6007D02*
X18564Y5994D01*
X18473Y5957D01*
X18395Y5897D01*
X18335Y5819D01*
X18297Y5728D01*
X18284Y5630D01*
X18297Y5532D01*
X18335Y5441D01*
X18395Y5363D01*
X18473Y5303D01*
X18564Y5266D01*
X18661Y5253D01*
X18759Y5266D01*
X18850Y5303D01*
X18928Y5363D01*
X18988Y5441D01*
X19026Y5532D01*
X19039Y5630D01*
X19026Y5728D01*
X18988Y5819D01*
X18928Y5897D01*
X18850Y5957D01*
X18759Y5994D01*
X18661Y6007D01*
D02*
G37*
G36*
X16378Y5357D02*
X16304D01*
X16256Y5347D01*
X16215Y5320D01*
X16188Y5279D01*
X16179Y5231D01*
Y5138D01*
X16378D01*
Y5357D01*
D02*
G37*
G36*
X6378Y2581D02*
X6311Y2572D01*
X6249Y2546D01*
X6195Y2505D01*
X6154Y2452D01*
X6129Y2390D01*
X6120Y2323D01*
X6129Y2256D01*
X6154Y2194D01*
X6195Y2140D01*
X6249Y2099D01*
X6311Y2074D01*
X6378Y2065D01*
X6445Y2074D01*
X6507Y2099D01*
X6560Y2140D01*
X6601Y2194D01*
X6627Y2256D01*
X6636Y2323D01*
X6627Y2390D01*
X6601Y2452D01*
X6560Y2505D01*
X6507Y2546D01*
X6445Y2572D01*
X6378Y2581D01*
D02*
G37*
G36*
X1181Y1854D02*
X1050Y1841D01*
X924Y1802D01*
X807Y1740D01*
X706Y1657D01*
X622Y1555D01*
X560Y1438D01*
X521Y1312D01*
X509Y1181D01*
X521Y1050D01*
X560Y924D01*
X622Y807D01*
X706Y706D01*
X807Y622D01*
X924Y560D01*
X1050Y521D01*
X1181Y509D01*
X1312Y521D01*
X1438Y560D01*
X1555Y622D01*
X1657Y706D01*
X1740Y807D01*
X1802Y924D01*
X1841Y1050D01*
X1854Y1181D01*
X1841Y1312D01*
X1802Y1438D01*
X1740Y1555D01*
X1657Y1657D01*
X1555Y1740D01*
X1438Y1802D01*
X1312Y1841D01*
X1181Y1854D01*
D02*
G37*
G36*
X14327Y1109D02*
X14239Y1098D01*
X14158Y1064D01*
X14088Y1010D01*
X14034Y940D01*
X14001Y859D01*
X13989Y772D01*
X14001Y684D01*
X14034Y603D01*
X14088Y533D01*
X14158Y479D01*
X14239Y446D01*
X14327Y434D01*
X14414Y446D01*
X14496Y479D01*
X14565Y533D01*
X14619Y603D01*
X14653Y684D01*
X14664Y772D01*
X14653Y859D01*
X14619Y940D01*
X14565Y1010D01*
X14496Y1064D01*
X14414Y1098D01*
X14327Y1109D01*
D02*
G37*
G36*
X13327D02*
X13239Y1098D01*
X13158Y1064D01*
X13088Y1010D01*
X13034Y940D01*
X13001Y859D01*
X12989Y772D01*
X13001Y684D01*
X13034Y603D01*
X13088Y533D01*
X13158Y479D01*
X13239Y446D01*
X13327Y434D01*
X13414Y446D01*
X13496Y479D01*
X13565Y533D01*
X13619Y603D01*
X13653Y684D01*
X13664Y772D01*
X13653Y859D01*
X13619Y940D01*
X13565Y1010D01*
X13496Y1064D01*
X13414Y1098D01*
X13327Y1109D01*
D02*
G37*
G36*
X8346Y1873D02*
X8249Y1860D01*
X8158Y1823D01*
X8080Y1763D01*
X8020Y1685D01*
X7982Y1594D01*
X7969Y1496D01*
X7982Y1398D01*
X8020Y1307D01*
X8080Y1229D01*
X8158Y1169D01*
X8249Y1132D01*
X8346Y1119D01*
X8444Y1132D01*
X8535Y1169D01*
X8613Y1229D01*
X8673Y1307D01*
X8711Y1398D01*
X8724Y1496D01*
X8711Y1594D01*
X8673Y1685D01*
X8613Y1763D01*
X8535Y1823D01*
X8444Y1860D01*
X8346Y1873D01*
D02*
G37*
G36*
X4897Y3349D02*
X4316D01*
X4260Y3338D01*
X4213Y3307D01*
X4182Y3259D01*
X4170Y3204D01*
Y2820D01*
X4182Y2764D01*
X4213Y2717D01*
X4260Y2685D01*
X4316Y2674D01*
X4374D01*
X4428Y2633D01*
X4433Y2631D01*
X4459Y2525D01*
X4456Y2496D01*
X4422Y2452D01*
X4396Y2390D01*
X4388Y2323D01*
X4396Y2256D01*
X4422Y2194D01*
X4463Y2140D01*
X4517Y2099D01*
X4579Y2074D01*
X4646Y2065D01*
X4712Y2074D01*
X4775Y2099D01*
X4828Y2140D01*
X4869Y2194D01*
X4895Y2256D01*
X4904Y2323D01*
X4895Y2390D01*
X4869Y2452D01*
X4828Y2505D01*
X4823Y2646D01*
X4848Y2674D01*
X4897D01*
X4952Y2685D01*
X5000Y2717D01*
X5031Y2764D01*
X5042Y2820D01*
Y3204D01*
X5031Y3259D01*
X5000Y3307D01*
X4952Y3338D01*
X4897Y3349D01*
D02*
G37*
G36*
X14827Y2109D02*
X14739Y2098D01*
X14658Y2064D01*
X14588Y2010D01*
X14534Y1940D01*
X14501Y1859D01*
X14489Y1772D01*
X14501Y1684D01*
X14534Y1603D01*
X14588Y1533D01*
X14658Y1479D01*
X14739Y1446D01*
X14827Y1434D01*
X14914Y1446D01*
X14996Y1479D01*
X15065Y1533D01*
X15119Y1603D01*
X15153Y1684D01*
X15164Y1772D01*
X15153Y1859D01*
X15119Y1940D01*
X15065Y2010D01*
X14996Y2064D01*
X14914Y2098D01*
X14827Y2109D01*
D02*
G37*
G36*
X13827D02*
X13739Y2098D01*
X13658Y2064D01*
X13588Y2010D01*
X13534Y1940D01*
X13501Y1859D01*
X13489Y1772D01*
X13501Y1684D01*
X13534Y1603D01*
X13588Y1533D01*
X13658Y1479D01*
X13739Y1446D01*
X13827Y1434D01*
X13914Y1446D01*
X13996Y1479D01*
X14065Y1533D01*
X14119Y1603D01*
X14153Y1684D01*
X14164Y1772D01*
X14153Y1859D01*
X14119Y1940D01*
X14065Y2010D01*
X13996Y2064D01*
X13914Y2098D01*
X13827Y2109D01*
D02*
G37*
G36*
X18661Y9432D02*
X18564Y9420D01*
X18473Y9382D01*
X18395Y9322D01*
X18335Y9244D01*
X18297Y9153D01*
X18284Y9055D01*
X18297Y8957D01*
X18335Y8867D01*
X18395Y8788D01*
X18473Y8728D01*
X18564Y8691D01*
X18661Y8678D01*
X18759Y8691D01*
X18850Y8728D01*
X18928Y8788D01*
X18988Y8867D01*
X19026Y8957D01*
X19039Y9055D01*
X19026Y9153D01*
X18988Y9244D01*
X18928Y9322D01*
X18850Y9382D01*
X18759Y9420D01*
X18661Y9432D01*
D02*
G37*
G36*
X13291Y14114D02*
X13150D01*
Y13986D01*
X13165Y13909D01*
X13208Y13844D01*
X13274Y13801D01*
X13291Y13797D01*
Y14114D01*
D02*
G37*
G36*
X13110Y13664D02*
X13036D01*
X12988Y13654D01*
X12948Y13627D01*
X12921Y13586D01*
X12911Y13538D01*
Y13445D01*
X13110D01*
Y13664D01*
D02*
G37*
G36*
X16339Y13366D02*
X16139D01*
Y13273D01*
X16149Y13225D01*
X16176Y13184D01*
X16217Y13157D01*
X16265Y13147D01*
X16339D01*
Y13366D01*
D02*
G37*
G36*
X1768Y14725D02*
X1682Y14708D01*
X1609Y14659D01*
X1560Y14586D01*
X1543Y14500D01*
Y14258D01*
X1527Y14177D01*
X1543Y14096D01*
Y14083D01*
X1560Y13997D01*
X1609Y13924D01*
X1682Y13875D01*
X1768Y13858D01*
X1854Y13875D01*
X1927Y13924D01*
X1975Y13997D01*
X1993Y14083D01*
Y14096D01*
X2009Y14177D01*
X1993Y14258D01*
Y14500D01*
X1975Y14586D01*
X1927Y14659D01*
X1854Y14708D01*
X1768Y14725D01*
D02*
G37*
G36*
X4543Y18448D02*
X4456Y18436D01*
X4375Y18403D01*
X4305Y18349D01*
X4251Y18279D01*
X4217Y18198D01*
X4206Y18110D01*
X4217Y18023D01*
X4251Y17941D01*
X4305Y17872D01*
X4375Y17818D01*
X4456Y17784D01*
X4543Y17773D01*
X4631Y17784D01*
X4712Y17818D01*
X4782Y17872D01*
X4836Y17941D01*
X4869Y18023D01*
X4881Y18110D01*
X4869Y18198D01*
X4836Y18279D01*
X4782Y18349D01*
X4712Y18403D01*
X4631Y18436D01*
X4543Y18448D01*
D02*
G37*
G36*
X6329Y16486D02*
X5640D01*
Y15797D01*
X6329D01*
Y16486D01*
D02*
G37*
G36*
X5543Y18448D02*
X5456Y18436D01*
X5375Y18403D01*
X5305Y18349D01*
X5251Y18279D01*
X5217Y18198D01*
X5206Y18110D01*
X5217Y18023D01*
X5251Y17941D01*
X5305Y17872D01*
X5375Y17818D01*
X5456Y17784D01*
X5543Y17773D01*
X5631Y17784D01*
X5712Y17818D01*
X5782Y17872D01*
X5836Y17941D01*
X5869Y18023D01*
X5881Y18110D01*
X5869Y18198D01*
X5836Y18279D01*
X5782Y18349D01*
X5712Y18403D01*
X5631Y18436D01*
X5543Y18448D01*
D02*
G37*
G36*
X13110Y13327D02*
X12911D01*
Y13233D01*
X12921Y13185D01*
X12948Y13145D01*
X12988Y13117D01*
X13036Y13108D01*
X13110D01*
Y13327D01*
D02*
G37*
G36*
X17953Y11267D02*
X17865Y11255D01*
X17784Y11221D01*
X17714Y11168D01*
X17660Y11098D01*
X17627Y11016D01*
X17615Y10929D01*
X17627Y10842D01*
X17660Y10760D01*
X17714Y10690D01*
X17784Y10637D01*
X17865Y10603D01*
X17953Y10592D01*
X18040Y10603D01*
X18122Y10637D01*
X18191Y10690D01*
X18245Y10760D01*
X18279Y10842D01*
X18290Y10929D01*
X18279Y11016D01*
X18245Y11098D01*
X18191Y11168D01*
X18122Y11221D01*
X18040Y11255D01*
X17953Y11267D01*
D02*
G37*
G36*
X5956Y19436D02*
X5954Y19435D01*
X5956Y19436D01*
X5956Y19436D01*
D02*
G37*
G36*
X6772Y10162D02*
X6679Y10144D01*
X6601Y10092D01*
X6595Y10082D01*
X6584D01*
X6584Y10082D01*
X6522Y10070D01*
X6470Y10035D01*
X5477Y9041D01*
X5442Y8989D01*
X5430Y8928D01*
X5430Y8928D01*
Y7960D01*
X4441Y6971D01*
X4257D01*
X4209Y6961D01*
X4168Y6934D01*
X4141Y6893D01*
X4131Y6845D01*
Y6580D01*
X4139Y6541D01*
X4134Y6535D01*
Y6220D01*
X4139Y6215D01*
X4131Y6176D01*
Y5910D01*
X4141Y5862D01*
X4168Y5822D01*
X4209Y5795D01*
X4257Y5785D01*
X4562D01*
X4610Y5795D01*
X4651Y5822D01*
X4659Y5834D01*
X4688Y5841D01*
X4760D01*
X4790Y5834D01*
X4798Y5822D01*
X4839Y5795D01*
X4887Y5785D01*
X4989D01*
X5000Y5783D01*
X5011Y5785D01*
X5192D01*
X5240Y5795D01*
X5281Y5822D01*
X5289Y5834D01*
X5318Y5841D01*
X5390D01*
X5420Y5834D01*
X5428Y5822D01*
X5469Y5795D01*
X5517Y5785D01*
X5822D01*
X5870Y5795D01*
X5911Y5822D01*
X5919Y5834D01*
X5948Y5841D01*
X6020D01*
X6050Y5834D01*
X6058Y5822D01*
X6099Y5795D01*
X6147Y5785D01*
X6452D01*
X6500Y5795D01*
X6540Y5822D01*
X6549Y5834D01*
X6578Y5841D01*
X6650D01*
X6680Y5834D01*
X6688Y5822D01*
X6729Y5795D01*
X6777Y5785D01*
X6960D01*
X7428Y5318D01*
X7435Y5282D01*
X7487Y5204D01*
X7565Y5152D01*
X7657Y5133D01*
X7750Y5152D01*
X7828Y5204D01*
X7880Y5282D01*
X7898Y5374D01*
X7880Y5466D01*
X7828Y5544D01*
X7750Y5597D01*
X7657Y5615D01*
X7607Y5605D01*
X7537Y5680D01*
X7581Y5785D01*
X7712D01*
X7760Y5795D01*
X7800Y5822D01*
X7828Y5862D01*
X7837Y5910D01*
Y6176D01*
X7829Y6215D01*
X7835Y6220D01*
Y6535D01*
X7829Y6541D01*
X7837Y6580D01*
Y6845D01*
X7828Y6893D01*
X7800Y6934D01*
X7760Y6961D01*
X7712Y6971D01*
X7528D01*
X7208Y7291D01*
Y8170D01*
X7218Y8176D01*
X7270Y8254D01*
X7288Y8346D01*
X7270Y8439D01*
X7218Y8517D01*
X7139Y8569D01*
X7081Y8666D01*
X7128Y8752D01*
X7139Y8754D01*
X7218Y8806D01*
X7270Y8884D01*
X7288Y8976D01*
X7270Y9069D01*
X7218Y9147D01*
X7139Y9199D01*
X7115Y9204D01*
X7072Y9291D01*
X7115Y9379D01*
X7139Y9384D01*
X7218Y9436D01*
X7270Y9514D01*
X7288Y9606D01*
X7270Y9698D01*
X7218Y9777D01*
X7139Y9829D01*
X7115Y9834D01*
X7013Y9921D01*
X6994Y10013D01*
X6942Y10092D01*
X6864Y10144D01*
X6772Y10162D01*
D02*
G37*
G36*
X2992Y19196D02*
X2894Y19183D01*
X2804Y19146D01*
X2725Y19086D01*
X2665Y19008D01*
X2628Y18917D01*
X2615Y18819D01*
X2628Y18721D01*
X2665Y18630D01*
X2725Y18552D01*
X2804Y18492D01*
X2894Y18455D01*
X2992Y18442D01*
X3090Y18455D01*
X3181Y18492D01*
X3259Y18552D01*
X3319Y18630D01*
X3357Y18721D01*
X3369Y18819D01*
X3357Y18917D01*
X3319Y19008D01*
X3259Y19086D01*
X3181Y19146D01*
X3090Y19183D01*
X2992Y19196D01*
D02*
G37*
G36*
X3272Y13426D02*
X3186Y13408D01*
X3113Y13360D01*
X3064Y13287D01*
X3047Y13201D01*
Y12929D01*
X3045Y12927D01*
X3027Y12835D01*
X3045Y12742D01*
X3059Y12722D01*
X3064Y12697D01*
X3113Y12625D01*
X3186Y12576D01*
X3272Y12559D01*
X3358Y12576D01*
X3431Y12625D01*
X3479Y12697D01*
X3487Y12738D01*
X3490Y12742D01*
X3509Y12835D01*
X3496Y12896D01*
Y13201D01*
X3479Y13287D01*
X3431Y13360D01*
X3358Y13408D01*
X3272Y13426D01*
D02*
G37*
G36*
X1181Y19176D02*
X1050Y19164D01*
X924Y19125D01*
X807Y19063D01*
X706Y18979D01*
X622Y18878D01*
X560Y18761D01*
X521Y18635D01*
X509Y18504D01*
X521Y18373D01*
X560Y18247D01*
X622Y18130D01*
X706Y18028D01*
X807Y17945D01*
X924Y17883D01*
X1050Y17844D01*
X1181Y17831D01*
X1312Y17844D01*
X1438Y17883D01*
X1555Y17945D01*
X1657Y18028D01*
X1740Y18130D01*
X1802Y18247D01*
X1841Y18373D01*
X1854Y18504D01*
X1841Y18635D01*
X1802Y18761D01*
X1740Y18878D01*
X1657Y18979D01*
X1555Y19063D01*
X1438Y19125D01*
X1312Y19164D01*
X1181Y19176D01*
D02*
G37*
G36*
X18661Y12858D02*
X18564Y12845D01*
X18473Y12807D01*
X18395Y12747D01*
X18335Y12669D01*
X18297Y12578D01*
X18284Y12480D01*
X18297Y12383D01*
X18335Y12292D01*
X18395Y12214D01*
X18473Y12154D01*
X18564Y12116D01*
X18661Y12103D01*
X18759Y12116D01*
X18850Y12154D01*
X18928Y12214D01*
X18988Y12292D01*
X19026Y12383D01*
X19039Y12480D01*
X19026Y12578D01*
X18988Y12669D01*
X18928Y12747D01*
X18850Y12807D01*
X18759Y12845D01*
X18661Y12858D01*
D02*
G37*
%LPD*%
D15*
X4409Y6043D02*
D03*
Y6713D02*
D03*
X5039Y6043D02*
D03*
Y6713D02*
D03*
X5669Y6043D02*
D03*
Y6713D02*
D03*
X6299Y6043D02*
D03*
Y6713D02*
D03*
X6929Y6043D02*
D03*
Y6713D02*
D03*
X7559Y6043D02*
D03*
Y6713D02*
D03*
X1693Y5846D02*
D03*
Y5177D02*
D03*
D16*
X13839Y13386D02*
D03*
X13169D02*
D03*
X16398Y13425D02*
D03*
X17067D02*
D03*
X17067Y17087D02*
D03*
X16398D02*
D03*
X13799D02*
D03*
X13130D02*
D03*
X17106Y3071D02*
D03*
X16437D02*
D03*
X17106Y3701D02*
D03*
X16437D02*
D03*
X17106Y4449D02*
D03*
X16437D02*
D03*
X17106Y5079D02*
D03*
X16437D02*
D03*
X9980Y2638D02*
D03*
X10650D02*
D03*
X11240D02*
D03*
X11909D02*
D03*
D25*
X13350Y13856D02*
Y14173D01*
X13169Y13675D02*
X13350Y13856D01*
X13169Y13386D02*
Y13675D01*
X10394Y7441D02*
X10532Y7579D01*
Y9496D01*
X16850Y14173D02*
X18701D01*
X19409Y13465D01*
Y10972D02*
Y13465D01*
X15984Y19409D02*
X16299Y19094D01*
X14030Y19409D02*
X15984D01*
X13799Y19179D02*
X14030Y19409D01*
X8780Y12441D02*
X8976Y12244D01*
X10118D01*
X9961Y12008D02*
X10394Y11575D01*
X8898Y12008D02*
X9961D01*
X9803Y11693D02*
X10157Y11339D01*
X9783Y10244D02*
X10532Y9496D01*
X10118Y12244D02*
X10374Y11988D01*
X11181D01*
X11319Y11850D01*
X12507D01*
X10394Y11575D02*
X12677D01*
X10157Y11339D02*
X12895D01*
X10066Y11102D02*
X12993D01*
X11181Y10866D02*
X13091D01*
X10970Y10655D02*
X11181Y10866D01*
X12507Y11850D02*
X12625Y11968D01*
X13150D01*
X13839Y12657D01*
Y13386D01*
X13850Y14173D02*
Y14250D01*
X15327Y772D02*
X15488Y610D01*
X16752D01*
X19366Y3224D01*
Y4372D01*
X17106Y4492D02*
X18124D01*
X17106D02*
Y5079D01*
X18862Y4488D02*
X18953Y4579D01*
X18128Y4488D02*
X18862D01*
X18124Y4492D02*
X18128Y4488D01*
X17106Y4449D02*
Y4492D01*
X16437Y3701D02*
X16536D01*
X16890Y4055D01*
X17392D01*
X17782Y3665D01*
X18124D01*
X18451Y3992D01*
X18986D01*
X19366Y4372D01*
Y7591D01*
X18953Y8004D02*
X19366Y7591D01*
X16437Y3701D02*
Y4449D01*
X17106Y3071D02*
Y3701D01*
Y4449D02*
Y4449D01*
X17402Y3701D02*
X17678Y3425D01*
X17106Y3701D02*
X17402D01*
X18953Y8004D02*
X19409Y8461D01*
Y10972D01*
X18953Y11429D02*
X19409Y10972D01*
X6929Y6043D02*
X7598Y5374D01*
X7657D01*
X6299Y6043D02*
X6299Y6043D01*
X5000Y6024D02*
X5020D01*
X9783Y10244D02*
Y10250D01*
X12917Y7504D02*
X18110D01*
X12421Y7008D02*
X12917Y7504D01*
X12677Y11575D02*
X12756Y11654D01*
X12895Y11339D02*
X14350Y12794D01*
X12993Y11102D02*
X14850Y12959D01*
X13091Y10866D02*
X15350Y13125D01*
X13110Y10551D02*
X15850Y13291D01*
X12835Y10551D02*
X13110D01*
X15850Y13291D02*
Y14173D01*
X8819Y11929D02*
X8898Y12008D01*
X9685Y10721D02*
X10066Y11102D01*
X14350Y12794D02*
Y14173D01*
X14850Y12959D02*
Y14173D01*
X10970Y10616D02*
Y10655D01*
X15350Y13125D02*
Y14173D01*
X16850Y13642D02*
X17067Y13425D01*
X16850Y13642D02*
Y14173D01*
X16350Y13472D02*
X16398Y13425D01*
X16350Y13472D02*
Y14173D01*
X13839Y13386D02*
X13850Y13398D01*
Y14173D01*
X14350Y16299D02*
Y19043D01*
X9841Y16398D02*
X11742D01*
X11760Y16415D01*
X9823D02*
X9841Y16398D01*
X10531Y16713D02*
X10935D01*
X10385Y16859D02*
X10531Y16713D01*
X9823Y16915D02*
X9879Y16859D01*
X10385D01*
X14850Y16299D02*
Y16685D01*
X14803Y16732D02*
X14850Y16685D01*
X13130Y17087D02*
X13350Y16866D01*
Y16299D02*
Y16866D01*
X11693Y16482D02*
X11760Y16415D01*
X15299Y17457D02*
Y19094D01*
Y17457D02*
X15850Y16906D01*
X14799Y17563D02*
X15350Y17012D01*
X14799Y17563D02*
Y18094D01*
X16299Y17091D02*
Y19094D01*
Y17091D02*
X16350Y17039D01*
Y16299D02*
Y17039D01*
X16850Y16870D02*
X17067Y17087D01*
X16850Y16299D02*
Y16870D01*
X13130Y17087D02*
X13799Y17756D01*
Y19179D01*
X15850Y16299D02*
Y16906D01*
X15350Y16299D02*
Y17012D01*
X14299Y19094D02*
X14350Y19043D01*
X13799Y17087D02*
X13850Y17035D01*
Y16299D02*
Y17035D01*
X9803Y2815D02*
X9980Y2638D01*
X18371Y3579D02*
X18953D01*
X18218Y3425D02*
X18371Y3579D01*
X17678Y3425D02*
X18218D01*
X18953Y4494D02*
Y4579D01*
X9307Y1787D02*
X9398D01*
X5020Y6024D02*
X5039Y6043D01*
X4409Y6043D02*
X4409Y6043D01*
Y6713D02*
X5591Y7894D01*
Y8928D01*
X6584Y9921D01*
X6772D01*
X6693Y9213D02*
X6772Y9291D01*
X6641Y8976D02*
X7047D01*
X6299Y8634D02*
X6641Y8976D01*
X6732Y8622D02*
X6772Y8661D01*
X6603Y9606D02*
X7047D01*
X5827Y8830D02*
X6603Y9606D01*
X7047Y7224D02*
Y8346D01*
X6543Y9213D02*
X6693D01*
X5039Y6713D02*
X5827Y7500D01*
Y8830D01*
X5669Y6713D02*
X6063Y7106D01*
Y8732D01*
X6543Y9213D01*
X6299Y6713D02*
Y8634D01*
X6732Y6909D02*
X6929Y6713D01*
X6732Y6909D02*
Y8622D01*
X7047Y7224D02*
X7559Y6713D01*
X1768Y14177D02*
Y14291D01*
X3268D02*
Y14606D01*
X3209Y14665D02*
X3268Y14606D01*
X3272Y11146D02*
Y11150D01*
D26*
X10748Y4847D02*
Y5354D01*
X10035Y4134D02*
X10748Y4847D01*
X9882Y4134D02*
X10035D01*
X11339Y5046D02*
Y5354D01*
X11223Y4931D02*
X11339Y5046D01*
X11112Y4931D02*
X11223D01*
X10000Y3819D02*
X11112Y4931D01*
X8898Y3819D02*
X10000D01*
X10748Y5354D02*
Y9764D01*
X10945Y5354D02*
Y9945D01*
X11142Y5354D02*
Y10027D01*
X11339Y5354D02*
Y10039D01*
X10000Y10591D02*
X10413Y10177D01*
X10433Y10591D02*
X10650Y10374D01*
X10591Y9882D02*
X10630D01*
X9508Y2579D02*
Y2937D01*
X9291Y2362D02*
X9508Y2579D01*
Y2937D02*
X9740Y3169D01*
X10571D01*
X10748Y3346D01*
Y3622D01*
X10794Y10374D02*
X11142Y10027D01*
X10650Y10374D02*
X10794D01*
X10713Y10177D02*
X10945Y9945D01*
X10413Y10177D02*
X10713D01*
X11398Y2126D02*
X11909Y2638D01*
X11398Y1787D02*
Y2126D01*
X10898Y2295D02*
X11240Y2638D01*
X10898Y787D02*
Y2295D01*
X9980Y2657D02*
X10295Y2972D01*
X10689D01*
X10945Y3229D01*
X11535Y3012D02*
X11909Y2638D01*
X11535Y3012D02*
Y3622D01*
X11240Y2638D02*
X11339Y2736D01*
Y3622D01*
X10650Y2638D02*
X11142Y3130D01*
Y3622D01*
X9980Y2638D02*
Y2657D01*
X10945Y3229D02*
Y3622D01*
X10630Y9882D02*
X10748Y9764D01*
X11339Y10039D02*
X11535Y10236D01*
D27*
X4587Y4173D02*
X4606Y4154D01*
X3543Y4173D02*
X4587D01*
X984Y7677D02*
X1654Y8346D01*
X787Y7480D02*
X984Y7677D01*
X1850D01*
X787Y10236D02*
X1654Y9370D01*
Y8346D02*
Y9370D01*
D29*
X2402Y1220D02*
Y2953D01*
Y1220D02*
X3307Y315D01*
X2874Y4173D02*
X3543D01*
X1850Y3150D02*
X2874Y4173D01*
X3307Y315D02*
X9173D01*
X9398Y539D02*
Y1787D01*
X9173Y315D02*
X9398Y539D01*
X1850Y2953D02*
Y3150D01*
X787Y5480D02*
X1390D01*
X1693Y5177D01*
D30*
X17953Y8504D02*
D03*
X18953Y8004D02*
D03*
X17953Y7504D02*
D03*
X18953Y7004D02*
D03*
X9898Y787D02*
D03*
X8898D02*
D03*
X11398Y1787D02*
D03*
X10898Y787D02*
D03*
X10398Y1787D02*
D03*
X9398D02*
D03*
X787Y7480D02*
D03*
Y5480D02*
D03*
Y6480D02*
D03*
X17953Y5079D02*
D03*
X18953Y3579D02*
D03*
X17953Y4079D02*
D03*
X18953Y4579D02*
D03*
X5543Y18110D02*
D03*
X4543D02*
D03*
X6043Y19110D02*
D03*
X5043D02*
D03*
X3543Y18110D02*
D03*
X4043Y19110D02*
D03*
X17953Y11929D02*
D03*
X18953Y10429D02*
D03*
X17953Y10929D02*
D03*
X18953Y11429D02*
D03*
X14299Y18976D02*
D03*
X15299D02*
D03*
X13799Y17976D02*
D03*
X14799D02*
D03*
X16299Y18976D02*
D03*
X15799Y17976D02*
D03*
X13827Y1772D02*
D03*
X14827D02*
D03*
X13327Y772D02*
D03*
X14327D02*
D03*
X15827Y1772D02*
D03*
X15327Y772D02*
D03*
D31*
X787Y12992D02*
D03*
X10630Y18898D02*
D03*
X9252D02*
D03*
X7874D02*
D03*
X12008D02*
D03*
X787Y11614D02*
D03*
Y14370D02*
D03*
Y15748D02*
D03*
X787Y8858D02*
D03*
Y10236D02*
D03*
D32*
X5984Y16142D02*
D03*
D33*
X4016Y16142D02*
D03*
X2598Y8268D02*
D03*
D34*
X2598Y10236D02*
D03*
D35*
X6378Y2323D02*
D03*
X4646D02*
D03*
D36*
X1181Y18504D02*
D03*
X18504D02*
D03*
Y1181D02*
D03*
X1181D02*
D03*
D37*
X8268Y8031D02*
D03*
X10433Y7441D02*
D03*
X9488Y7323D02*
D03*
X12677Y8819D02*
D03*
X3268Y16024D02*
D03*
X2362Y17165D02*
D03*
X9528Y5079D02*
D03*
X9488Y6063D02*
D03*
X15748Y3150D02*
D03*
Y4213D02*
D03*
X16339Y12795D02*
D03*
X17717Y13780D02*
D03*
X18504D02*
D03*
X14961Y10433D02*
D03*
X15157Y11811D02*
D03*
X16929D02*
D03*
X17126Y10433D02*
D03*
X15748Y9252D02*
D03*
X17126Y7874D02*
D03*
X14370Y7087D02*
D03*
X9843Y8858D02*
D03*
X9882Y8110D02*
D03*
X8976Y8740D02*
D03*
X9449Y9843D02*
D03*
X8268Y10236D02*
D03*
X5315Y9252D02*
D03*
X5118Y8071D02*
D03*
X4134Y7283D02*
D03*
Y9055D02*
D03*
X2480Y4449D02*
D03*
X1299D02*
D03*
X2953Y5315D02*
D03*
Y7283D02*
D03*
X5315Y14961D02*
D03*
Y12598D02*
D03*
X6496Y13386D02*
D03*
X12008Y12402D02*
D03*
X11417Y15551D02*
D03*
X12598Y14370D02*
D03*
X13189Y12795D02*
D03*
X10039D02*
D03*
Y14173D02*
D03*
X8465Y15551D02*
D03*
X7677Y14567D02*
D03*
X8661Y13583D02*
D03*
X5512Y10433D02*
D03*
X7087Y11220D02*
D03*
X5906Y11614D02*
D03*
X6496Y15354D02*
D03*
X394Y17323D02*
D03*
X2362Y19291D02*
D03*
X394Y2362D02*
D03*
X2362Y394D02*
D03*
X7677Y4724D02*
D03*
X4134D02*
D03*
X3346Y2165D02*
D03*
X4528Y787D02*
D03*
X6299D02*
D03*
X7283Y2362D02*
D03*
X8071Y3346D02*
D03*
X5709Y2559D02*
D03*
X6496Y3150D02*
D03*
Y3740D02*
D03*
X8661Y2559D02*
D03*
X9252Y4331D02*
D03*
X11614Y787D02*
D03*
X12598Y1772D02*
D03*
X12402Y4331D02*
D03*
X14173Y2953D02*
D03*
X16929Y1575D02*
D03*
X18307Y2953D02*
D03*
X17323Y394D02*
D03*
X19291Y2362D02*
D03*
X15945Y6890D02*
D03*
X14173Y8858D02*
D03*
X11811Y6299D02*
D03*
X8780Y12441D02*
D03*
X9803Y11693D02*
D03*
X9567Y10591D02*
D03*
X10000D02*
D03*
X10433D02*
D03*
X10591Y9882D02*
D03*
X11181Y11988D02*
D03*
X9291Y2362D02*
D03*
X7657Y5374D02*
D03*
X6299Y6043D02*
D03*
X5000Y6024D02*
D03*
X9783Y10250D02*
D03*
X12421Y7008D02*
D03*
X12756Y11654D02*
D03*
X8819Y11929D02*
D03*
X10970Y10616D02*
D03*
X12835Y10551D02*
D03*
X10935Y16713D02*
D03*
X14803Y16732D02*
D03*
X11760Y16415D02*
D03*
X13799Y17087D02*
D03*
X17067D02*
D03*
X10650Y2638D02*
D03*
X9882Y4134D02*
D03*
X8898Y3819D02*
D03*
X9803Y2815D02*
D03*
X11535Y10236D02*
D03*
X7559Y6043D02*
D03*
X5669D02*
D03*
X4409Y6043D02*
D03*
X6772Y9291D02*
D03*
X6772Y8661D02*
D03*
X7047Y9606D02*
D03*
X7047Y8976D02*
D03*
X6772Y9921D02*
D03*
X7047Y8346D02*
D03*
X1768Y14177D02*
D03*
X3209Y14665D02*
D03*
X3268Y12835D02*
D03*
X3272Y11146D02*
D03*
X2272Y12992D02*
D03*
D38*
X7520Y18150D02*
D03*
X2402Y2953D02*
D03*
X8268Y17520D02*
D03*
X7677Y16929D02*
D03*
X4567Y2874D02*
D03*
X1850Y2953D02*
D03*
D39*
X8320Y17165D02*
D03*
D40*
X9823Y16415D02*
D03*
Y17415D02*
D03*
Y16915D02*
D03*
Y17915D02*
D03*
D41*
X13350Y14173D02*
D03*
X13850D02*
D03*
X14350D02*
D03*
X14850D02*
D03*
X15850D02*
D03*
X15350D02*
D03*
X16350D02*
D03*
X13350Y16299D02*
D03*
X13850D02*
D03*
X14850D02*
D03*
X14350D02*
D03*
X15850D02*
D03*
X15350D02*
D03*
X16850D02*
D03*
X16350D02*
D03*
D42*
X16850Y14173D02*
D03*
D43*
X10748Y5354D02*
D03*
D44*
Y3622D02*
D03*
X10945D02*
D03*
X11142Y5354D02*
D03*
X10945D02*
D03*
X11535D02*
D03*
X11339D02*
D03*
Y3622D02*
D03*
X11142D02*
D03*
X11535D02*
D03*
D45*
X1768Y14291D02*
D03*
X2268D02*
D03*
X2768D02*
D03*
X1768Y16134D02*
D03*
X2268D02*
D03*
X2768D02*
D03*
X3268D02*
D03*
X3272Y12992D02*
D03*
X2772D02*
D03*
X2272D02*
D03*
X3272Y11150D02*
D03*
X2772D02*
D03*
X2272D02*
D03*
X1772D02*
D03*
D46*
X3268Y14291D02*
D03*
X1772Y12992D02*
D03*
D47*
X1850Y6496D02*
D03*
Y7677D02*
D03*
X3543Y2992D02*
D03*
Y4173D02*
D03*
D48*
X4606Y3012D02*
D03*
Y4154D02*
D03*
M02*
