G04 Layer_Color=16711935*
%FSLAX24Y24*%
%MOIN*%
G70*
G01*
G75*
%ADD38C,0.0394*%
G04:AMPARAMS|DCode=57|XSize=47.2mil|YSize=43.3mil|CornerRadius=8.4mil|HoleSize=0mil|Usage=FLASHONLY|Rotation=0.000|XOffset=0mil|YOffset=0mil|HoleType=Round|Shape=RoundedRectangle|*
%AMROUNDEDRECTD57*
21,1,0.0472,0.0266,0,0,0.0*
21,1,0.0305,0.0433,0,0,0.0*
1,1,0.0167,0.0153,-0.0133*
1,1,0.0167,-0.0153,-0.0133*
1,1,0.0167,-0.0153,0.0133*
1,1,0.0167,0.0153,0.0133*
%
%ADD57ROUNDEDRECTD57*%
G04:AMPARAMS|DCode=58|XSize=47.2mil|YSize=43.3mil|CornerRadius=8.4mil|HoleSize=0mil|Usage=FLASHONLY|Rotation=270.000|XOffset=0mil|YOffset=0mil|HoleType=Round|Shape=RoundedRectangle|*
%AMROUNDEDRECTD58*
21,1,0.0472,0.0266,0,0,270.0*
21,1,0.0305,0.0433,0,0,270.0*
1,1,0.0167,-0.0133,-0.0153*
1,1,0.0167,-0.0133,0.0153*
1,1,0.0167,0.0133,0.0153*
1,1,0.0167,0.0133,-0.0153*
%
%ADD58ROUNDEDRECTD58*%
%ADD67C,0.0591*%
%ADD68C,0.0079*%
%ADD69C,0.1024*%
%ADD70R,0.0610X0.0610*%
%ADD71C,0.0610*%
%ADD72R,0.0610X0.0610*%
%ADD73C,0.0433*%
%ADD74C,0.0866*%
%ADD75C,0.0472*%
%ADD76R,0.1899X0.1859*%
%ADD77R,0.0729X0.0319*%
%ADD78O,0.0315X0.0689*%
%ADD79R,0.0315X0.0689*%
%ADD80R,0.0197X0.0650*%
%ADD81O,0.0197X0.0650*%
%ADD82O,0.0362X0.0780*%
%ADD83R,0.0362X0.0780*%
G04:AMPARAMS|DCode=84|XSize=78.7mil|YSize=53.2mil|CornerRadius=9.6mil|HoleSize=0mil|Usage=FLASHONLY|Rotation=0.000|XOffset=0mil|YOffset=0mil|HoleType=Round|Shape=RoundedRectangle|*
%AMROUNDEDRECTD84*
21,1,0.0787,0.0340,0,0,0.0*
21,1,0.0595,0.0532,0,0,0.0*
1,1,0.0192,0.0298,-0.0170*
1,1,0.0192,-0.0298,-0.0170*
1,1,0.0192,-0.0298,0.0170*
1,1,0.0192,0.0298,0.0170*
%
%ADD84ROUNDEDRECTD84*%
G04:AMPARAMS|DCode=85|XSize=78.7mil|YSize=59.1mil|CornerRadius=10.3mil|HoleSize=0mil|Usage=FLASHONLY|Rotation=0.000|XOffset=0mil|YOffset=0mil|HoleType=Round|Shape=RoundedRectangle|*
%AMROUNDEDRECTD85*
21,1,0.0787,0.0384,0,0,0.0*
21,1,0.0581,0.0591,0,0,0.0*
1,1,0.0207,0.0290,-0.0192*
1,1,0.0207,-0.0290,-0.0192*
1,1,0.0207,-0.0290,0.0192*
1,1,0.0207,0.0290,0.0192*
%
%ADD85ROUNDEDRECTD85*%
D38*
X8268Y8031D02*
D03*
X10433Y7441D02*
D03*
X9488Y7323D02*
D03*
X12677Y8819D02*
D03*
X3268Y16024D02*
D03*
X2362Y17165D02*
D03*
X9528Y5079D02*
D03*
X9488Y6063D02*
D03*
X15748Y3150D02*
D03*
Y4213D02*
D03*
X16339Y12795D02*
D03*
X17717Y13780D02*
D03*
X18504D02*
D03*
X14961Y10433D02*
D03*
X15157Y11811D02*
D03*
X16929D02*
D03*
X17126Y10433D02*
D03*
X15748Y9252D02*
D03*
X17126Y7874D02*
D03*
X14370Y7087D02*
D03*
X9843Y8858D02*
D03*
X9882Y8110D02*
D03*
X8976Y8740D02*
D03*
X9449Y9843D02*
D03*
X8268Y10236D02*
D03*
X5315Y9252D02*
D03*
X5118Y8071D02*
D03*
X4134Y7283D02*
D03*
Y9055D02*
D03*
X2480Y4449D02*
D03*
X1299D02*
D03*
X2953Y5315D02*
D03*
Y7283D02*
D03*
X5315Y14961D02*
D03*
Y12598D02*
D03*
X6496Y13386D02*
D03*
X12008Y12402D02*
D03*
X11417Y15551D02*
D03*
X12598Y14370D02*
D03*
X13189Y12795D02*
D03*
X10039D02*
D03*
Y14173D02*
D03*
X8465Y15551D02*
D03*
X7677Y14567D02*
D03*
X8661Y13583D02*
D03*
X5512Y10433D02*
D03*
X7087Y11220D02*
D03*
X5906Y11614D02*
D03*
X6496Y15354D02*
D03*
X394Y17323D02*
D03*
X2362Y19291D02*
D03*
X394Y2362D02*
D03*
X2362Y394D02*
D03*
X7677Y4724D02*
D03*
X4134D02*
D03*
X3346Y2165D02*
D03*
X4528Y787D02*
D03*
X6299D02*
D03*
X7283Y2362D02*
D03*
X8071Y3346D02*
D03*
X5709Y2559D02*
D03*
X6496Y3150D02*
D03*
Y3740D02*
D03*
X8661Y2559D02*
D03*
X9252Y4331D02*
D03*
X11614Y787D02*
D03*
X12598Y1772D02*
D03*
X12402Y4331D02*
D03*
X14173Y2953D02*
D03*
X16929Y1575D02*
D03*
X18307Y2953D02*
D03*
X17323Y394D02*
D03*
X19291Y2362D02*
D03*
X15945Y6890D02*
D03*
X14173Y8858D02*
D03*
X11811Y6299D02*
D03*
X8780Y12441D02*
D03*
X9803Y11693D02*
D03*
X9567Y10591D02*
D03*
X10000D02*
D03*
X10433D02*
D03*
X10591Y9882D02*
D03*
X11181Y11988D02*
D03*
X9291Y2362D02*
D03*
X7657Y5374D02*
D03*
X6299Y6043D02*
D03*
X5000Y6024D02*
D03*
X9783Y10250D02*
D03*
X12421Y7008D02*
D03*
X12756Y11654D02*
D03*
X8819Y11929D02*
D03*
X10970Y10616D02*
D03*
X12835Y10551D02*
D03*
X10935Y16713D02*
D03*
X14803Y16732D02*
D03*
X11760Y16415D02*
D03*
X13799Y17087D02*
D03*
X17067D02*
D03*
X10650Y2638D02*
D03*
X9882Y4134D02*
D03*
X8898Y3819D02*
D03*
X9803Y2815D02*
D03*
X11535Y10236D02*
D03*
X7559Y6043D02*
D03*
X5669D02*
D03*
X4409Y6043D02*
D03*
X6772Y9291D02*
D03*
X6772Y8661D02*
D03*
X7047Y9606D02*
D03*
X7047Y8976D02*
D03*
X6772Y9921D02*
D03*
X7047Y8346D02*
D03*
X1768Y14177D02*
D03*
X3209Y14665D02*
D03*
X3268Y12835D02*
D03*
X3272Y11146D02*
D03*
X2272Y12992D02*
D03*
D57*
X4409Y6043D02*
D03*
Y6713D02*
D03*
X5039Y6043D02*
D03*
Y6713D02*
D03*
X5669Y6043D02*
D03*
Y6713D02*
D03*
X6299Y6043D02*
D03*
Y6713D02*
D03*
X6929Y6043D02*
D03*
Y6713D02*
D03*
X7559Y6043D02*
D03*
Y6713D02*
D03*
X1693Y5846D02*
D03*
Y5177D02*
D03*
D58*
X13839Y13386D02*
D03*
X13169D02*
D03*
X16398Y13425D02*
D03*
X17067D02*
D03*
X17067Y17087D02*
D03*
X16398D02*
D03*
X13799D02*
D03*
X13130D02*
D03*
X17106Y3071D02*
D03*
X16437D02*
D03*
X17106Y3701D02*
D03*
X16437D02*
D03*
X17106Y4449D02*
D03*
X16437D02*
D03*
X17106Y5079D02*
D03*
X16437D02*
D03*
X9980Y2638D02*
D03*
X10650D02*
D03*
X11240D02*
D03*
X11909D02*
D03*
D67*
X17953Y8504D02*
D03*
X18953Y8004D02*
D03*
X17953Y7504D02*
D03*
X18953Y7004D02*
D03*
X9898Y787D02*
D03*
X8898D02*
D03*
X11398Y1787D02*
D03*
X10898Y787D02*
D03*
X10398Y1787D02*
D03*
X9398D02*
D03*
X787Y7480D02*
D03*
Y5480D02*
D03*
Y6480D02*
D03*
X17953Y5079D02*
D03*
X18953Y3579D02*
D03*
X17953Y4079D02*
D03*
X18953Y4579D02*
D03*
X5543Y18110D02*
D03*
X4543D02*
D03*
X6043Y19110D02*
D03*
X5043D02*
D03*
X3543Y18110D02*
D03*
X4043Y19110D02*
D03*
X17953Y11929D02*
D03*
X18953Y10429D02*
D03*
X17953Y10929D02*
D03*
X18953Y11429D02*
D03*
X14299Y18976D02*
D03*
X15299D02*
D03*
X13799Y17976D02*
D03*
X14799D02*
D03*
X16299Y18976D02*
D03*
X15799Y17976D02*
D03*
X13827Y1772D02*
D03*
X14827D02*
D03*
X13327Y772D02*
D03*
X14327D02*
D03*
X15827Y1772D02*
D03*
X15327Y772D02*
D03*
D68*
X18661Y9055D02*
D03*
X8346Y1496D02*
D03*
X18661Y5630D02*
D03*
X2992Y18819D02*
D03*
X18661Y12480D02*
D03*
X16850Y18268D02*
D03*
X16378Y1063D02*
D03*
D69*
X787Y12992D02*
D03*
X10630Y18898D02*
D03*
X9252D02*
D03*
X7874D02*
D03*
X12008D02*
D03*
X787Y11614D02*
D03*
Y14370D02*
D03*
Y15748D02*
D03*
X787Y8858D02*
D03*
Y10236D02*
D03*
D70*
X5984Y16142D02*
D03*
D71*
X4016Y16142D02*
D03*
X2598Y8268D02*
D03*
D72*
X2598Y10236D02*
D03*
D73*
X6378Y2323D02*
D03*
X4646D02*
D03*
D74*
X1181Y18504D02*
D03*
X18504D02*
D03*
Y1181D02*
D03*
X1181D02*
D03*
D75*
X7520Y18150D02*
D03*
X2402Y2953D02*
D03*
X8268Y17520D02*
D03*
X7677Y16929D02*
D03*
X4567Y2874D02*
D03*
X1850Y2953D02*
D03*
D76*
X8320Y17165D02*
D03*
D77*
X9823Y16415D02*
D03*
Y17415D02*
D03*
Y16915D02*
D03*
Y17915D02*
D03*
D78*
X13350Y14173D02*
D03*
X13850D02*
D03*
X14350D02*
D03*
X14850D02*
D03*
X15850D02*
D03*
X15350D02*
D03*
X16350D02*
D03*
X13350Y16299D02*
D03*
X13850D02*
D03*
X14850D02*
D03*
X14350D02*
D03*
X15850D02*
D03*
X15350D02*
D03*
X16850D02*
D03*
X16350D02*
D03*
D79*
X16850Y14173D02*
D03*
D80*
X10748Y5354D02*
D03*
D81*
Y3622D02*
D03*
X10945D02*
D03*
X11142Y5354D02*
D03*
X10945D02*
D03*
X11535D02*
D03*
X11339D02*
D03*
Y3622D02*
D03*
X11142D02*
D03*
X11535D02*
D03*
D82*
X1768Y14291D02*
D03*
X2268D02*
D03*
X2768D02*
D03*
X1768Y16134D02*
D03*
X2268D02*
D03*
X2768D02*
D03*
X3268D02*
D03*
X3272Y12992D02*
D03*
X2772D02*
D03*
X2272D02*
D03*
X3272Y11150D02*
D03*
X2772D02*
D03*
X2272D02*
D03*
X1772D02*
D03*
D83*
X3268Y14291D02*
D03*
X1772Y12992D02*
D03*
D84*
X1850Y6496D02*
D03*
Y7677D02*
D03*
X3543Y2992D02*
D03*
Y4173D02*
D03*
D85*
X4606Y3012D02*
D03*
Y4154D02*
D03*
M02*
