G04 Layer_Color=8388736*
%FSLAX24Y24*%
%MOIN*%
G70*
G01*
G75*
%ADD38C,0.0394*%
%ADD52R,0.0276X0.0472*%
%ADD53R,0.0492X0.0315*%
G04:AMPARAMS|DCode=54|XSize=106.3mil|YSize=94.5mil|CornerRadius=14.8mil|HoleSize=0mil|Usage=FLASHONLY|Rotation=0.000|XOffset=0mil|YOffset=0mil|HoleType=Round|Shape=RoundedRectangle|*
%AMROUNDEDRECTD54*
21,1,0.1063,0.0650,0,0,0.0*
21,1,0.0768,0.0945,0,0,0.0*
1,1,0.0295,0.0384,-0.0325*
1,1,0.0295,-0.0384,-0.0325*
1,1,0.0295,-0.0384,0.0325*
1,1,0.0295,0.0384,0.0325*
%
%ADD54ROUNDEDRECTD54*%
G04:AMPARAMS|DCode=55|XSize=66.9mil|YSize=43.3mil|CornerRadius=12.8mil|HoleSize=0mil|Usage=FLASHONLY|Rotation=180.000|XOffset=0mil|YOffset=0mil|HoleType=Round|Shape=RoundedRectangle|*
%AMROUNDEDRECTD55*
21,1,0.0669,0.0177,0,0,180.0*
21,1,0.0413,0.0433,0,0,180.0*
1,1,0.0256,-0.0207,0.0089*
1,1,0.0256,0.0207,0.0089*
1,1,0.0256,0.0207,-0.0089*
1,1,0.0256,-0.0207,-0.0089*
%
%ADD55ROUNDEDRECTD55*%
%ADD56R,0.0472X0.0472*%
G04:AMPARAMS|DCode=57|XSize=47.2mil|YSize=43.3mil|CornerRadius=8.4mil|HoleSize=0mil|Usage=FLASHONLY|Rotation=0.000|XOffset=0mil|YOffset=0mil|HoleType=Round|Shape=RoundedRectangle|*
%AMROUNDEDRECTD57*
21,1,0.0472,0.0266,0,0,0.0*
21,1,0.0305,0.0433,0,0,0.0*
1,1,0.0167,0.0153,-0.0133*
1,1,0.0167,-0.0153,-0.0133*
1,1,0.0167,-0.0153,0.0133*
1,1,0.0167,0.0153,0.0133*
%
%ADD57ROUNDEDRECTD57*%
G04:AMPARAMS|DCode=58|XSize=47.2mil|YSize=43.3mil|CornerRadius=8.4mil|HoleSize=0mil|Usage=FLASHONLY|Rotation=270.000|XOffset=0mil|YOffset=0mil|HoleType=Round|Shape=RoundedRectangle|*
%AMROUNDEDRECTD58*
21,1,0.0472,0.0266,0,0,270.0*
21,1,0.0305,0.0433,0,0,270.0*
1,1,0.0167,-0.0133,-0.0153*
1,1,0.0167,-0.0133,0.0153*
1,1,0.0167,0.0133,0.0153*
1,1,0.0167,0.0133,-0.0153*
%
%ADD58ROUNDEDRECTD58*%
%ADD59R,0.0866X0.1063*%
%ADD60R,0.0276X0.0965*%
%ADD61R,0.0709X0.0866*%
%ADD62O,0.0295X0.0768*%
%ADD63O,0.0768X0.0295*%
%ADD64O,0.0551X0.0315*%
%ADD65R,0.0551X0.0315*%
%ADD66R,0.0866X0.0472*%
%ADD67C,0.0591*%
%ADD68C,0.0079*%
%ADD69C,0.1024*%
%ADD70R,0.0610X0.0610*%
%ADD71C,0.0610*%
%ADD72R,0.0610X0.0610*%
%ADD73C,0.0433*%
%ADD74C,0.0866*%
%ADD75C,0.0472*%
D38*
X8268Y8031D02*
D03*
X10433Y7441D02*
D03*
X9488Y7323D02*
D03*
X12677Y8819D02*
D03*
X3268Y16024D02*
D03*
X2362Y17165D02*
D03*
X9528Y5079D02*
D03*
X9488Y6063D02*
D03*
X15748Y3150D02*
D03*
Y4213D02*
D03*
X16339Y12795D02*
D03*
X17717Y13780D02*
D03*
X18504D02*
D03*
X14961Y10433D02*
D03*
X15157Y11811D02*
D03*
X16929D02*
D03*
X17126Y10433D02*
D03*
X15748Y9252D02*
D03*
X17126Y7874D02*
D03*
X14370Y7087D02*
D03*
X9843Y8858D02*
D03*
X9882Y8110D02*
D03*
X8976Y8740D02*
D03*
X9449Y9843D02*
D03*
X8268Y10236D02*
D03*
X5315Y9252D02*
D03*
X5118Y8071D02*
D03*
X4134Y7283D02*
D03*
Y9055D02*
D03*
X2480Y4449D02*
D03*
X1299D02*
D03*
X2953Y5315D02*
D03*
Y7283D02*
D03*
X5315Y14961D02*
D03*
Y12598D02*
D03*
X6496Y13386D02*
D03*
X12008Y12402D02*
D03*
X11417Y15551D02*
D03*
X12598Y14370D02*
D03*
X13189Y12795D02*
D03*
X10039D02*
D03*
Y14173D02*
D03*
X8465Y15551D02*
D03*
X7677Y14567D02*
D03*
X8661Y13583D02*
D03*
X5512Y10433D02*
D03*
X7087Y11220D02*
D03*
X5906Y11614D02*
D03*
X6496Y15354D02*
D03*
X394Y17323D02*
D03*
X2362Y19291D02*
D03*
X394Y2362D02*
D03*
X2362Y394D02*
D03*
X7677Y4724D02*
D03*
X4134D02*
D03*
X3346Y2165D02*
D03*
X4528Y787D02*
D03*
X6299D02*
D03*
X7283Y2362D02*
D03*
X8071Y3346D02*
D03*
X5709Y2559D02*
D03*
X6496Y3150D02*
D03*
Y3740D02*
D03*
X8661Y2559D02*
D03*
X9252Y4331D02*
D03*
X11614Y787D02*
D03*
X12598Y1772D02*
D03*
X12402Y4331D02*
D03*
X14173Y2953D02*
D03*
X16929Y1575D02*
D03*
X18307Y2953D02*
D03*
X17323Y394D02*
D03*
X19291Y2362D02*
D03*
X15945Y6890D02*
D03*
X14173Y8858D02*
D03*
X11811Y6299D02*
D03*
X8780Y12441D02*
D03*
X9803Y11693D02*
D03*
X9567Y10591D02*
D03*
X10000D02*
D03*
X10433D02*
D03*
X10591Y9882D02*
D03*
X11181Y11988D02*
D03*
X9291Y2362D02*
D03*
X7657Y5374D02*
D03*
X6299Y6043D02*
D03*
X5000Y6024D02*
D03*
X9783Y10250D02*
D03*
X12421Y7008D02*
D03*
X12756Y11654D02*
D03*
X8819Y11929D02*
D03*
X10970Y10616D02*
D03*
X12835Y10551D02*
D03*
X10935Y16713D02*
D03*
X14803Y16732D02*
D03*
X11760Y16415D02*
D03*
X13799Y17087D02*
D03*
X17067D02*
D03*
X10650Y2638D02*
D03*
X9882Y4134D02*
D03*
X8898Y3819D02*
D03*
X9803Y2815D02*
D03*
X11535Y10236D02*
D03*
X7559Y6043D02*
D03*
X5669D02*
D03*
X4409Y6043D02*
D03*
X6772Y9291D02*
D03*
X6772Y8661D02*
D03*
X7047Y9606D02*
D03*
X7047Y8976D02*
D03*
X6772Y9921D02*
D03*
X7047Y8346D02*
D03*
X1768Y14177D02*
D03*
X3209Y14665D02*
D03*
X3268Y12835D02*
D03*
X3272Y11146D02*
D03*
X2272Y12992D02*
D03*
D52*
X9409Y3346D02*
D03*
X8858D02*
D03*
X9134D02*
D03*
X10394D02*
D03*
X9843D02*
D03*
X10118D02*
D03*
D53*
X10935Y17087D02*
D03*
Y17461D02*
D03*
Y16713D02*
D03*
X12057D02*
D03*
Y17461D02*
D03*
Y17087D02*
D03*
D54*
X7913Y17008D02*
D03*
X9803D02*
D03*
D55*
X6437Y5374D02*
D03*
X7657D02*
D03*
X6437Y6043D02*
D03*
X7657D02*
D03*
X5531D02*
D03*
Y5374D02*
D03*
X4311Y6043D02*
D03*
Y5374D02*
D03*
D56*
X1850Y3937D02*
D03*
Y3465D02*
D03*
X1299Y3937D02*
D03*
Y3465D02*
D03*
X2402Y3937D02*
D03*
Y3465D02*
D03*
D57*
X10551Y12657D02*
D03*
Y11988D02*
D03*
X11181Y11988D02*
D03*
Y12657D02*
D03*
X10000Y5098D02*
D03*
Y5768D02*
D03*
X3268Y16043D02*
D03*
Y15374D02*
D03*
X2795Y11398D02*
D03*
Y12067D02*
D03*
X8425Y5098D02*
D03*
Y5768D02*
D03*
X9055Y5098D02*
D03*
Y5768D02*
D03*
X8110Y11988D02*
D03*
Y12657D02*
D03*
D58*
X14114Y10591D02*
D03*
X13445D02*
D03*
X13760Y7638D02*
D03*
X13091D02*
D03*
X6831Y10669D02*
D03*
X6161D02*
D03*
X5886Y7244D02*
D03*
X6555D02*
D03*
X5886Y8152D02*
D03*
X6555D02*
D03*
X13091Y7008D02*
D03*
X13760D02*
D03*
X3209Y14685D02*
D03*
X2539D02*
D03*
D59*
X3760Y1181D02*
D03*
X7264D02*
D03*
Y3327D02*
D03*
X3760D02*
D03*
D60*
X6142Y3376D02*
D03*
X5827D02*
D03*
X5512D02*
D03*
X5197D02*
D03*
X4882D02*
D03*
D61*
X15000Y3898D02*
D03*
Y6024D02*
D03*
X13504Y3898D02*
D03*
Y6024D02*
D03*
D62*
X10748Y6752D02*
D03*
X11378D02*
D03*
X11063D02*
D03*
X10433D02*
D03*
X9488D02*
D03*
X9173D02*
D03*
X10118D02*
D03*
X9803D02*
D03*
X8858D02*
D03*
X8543D02*
D03*
X8228D02*
D03*
X10748Y11201D02*
D03*
X10433D02*
D03*
X11378D02*
D03*
X11063D02*
D03*
X10118D02*
D03*
X9173D02*
D03*
X8858D02*
D03*
X9803D02*
D03*
X9488D02*
D03*
X8543D02*
D03*
X8228D02*
D03*
D63*
X12028Y8346D02*
D03*
Y8031D02*
D03*
Y7717D02*
D03*
Y7402D02*
D03*
X7579D02*
D03*
Y8031D02*
D03*
Y7717D02*
D03*
X12028Y9921D02*
D03*
Y10551D02*
D03*
Y10236D02*
D03*
Y8976D02*
D03*
Y8661D02*
D03*
Y9606D02*
D03*
Y9291D02*
D03*
X7579Y8661D02*
D03*
Y8346D02*
D03*
Y9291D02*
D03*
Y8976D02*
D03*
Y9921D02*
D03*
Y9606D02*
D03*
Y10551D02*
D03*
Y10236D02*
D03*
D64*
X3346Y14055D02*
D03*
Y13681D02*
D03*
X2315Y13307D02*
D03*
Y14055D02*
D03*
Y13681D02*
D03*
D65*
X3346Y13307D02*
D03*
D66*
X13346Y8307D02*
D03*
Y9488D02*
D03*
Y8898D02*
D03*
D67*
X17953Y8504D02*
D03*
X18953Y8004D02*
D03*
X17953Y7504D02*
D03*
X18953Y7004D02*
D03*
X9898Y787D02*
D03*
X8898D02*
D03*
X11398Y1787D02*
D03*
X10898Y787D02*
D03*
X10398Y1787D02*
D03*
X9398D02*
D03*
X787Y7480D02*
D03*
Y5480D02*
D03*
Y6480D02*
D03*
X17953Y5079D02*
D03*
X18953Y3579D02*
D03*
X17953Y4079D02*
D03*
X18953Y4579D02*
D03*
X5543Y18110D02*
D03*
X4543D02*
D03*
X6043Y19110D02*
D03*
X5043D02*
D03*
X3543Y18110D02*
D03*
X4043Y19110D02*
D03*
X17953Y11929D02*
D03*
X18953Y10429D02*
D03*
X17953Y10929D02*
D03*
X18953Y11429D02*
D03*
X14299Y18976D02*
D03*
X15299D02*
D03*
X13799Y17976D02*
D03*
X14799D02*
D03*
X16299Y18976D02*
D03*
X15799Y17976D02*
D03*
X13827Y1772D02*
D03*
X14827D02*
D03*
X13327Y772D02*
D03*
X14327D02*
D03*
X15827Y1772D02*
D03*
X15327Y772D02*
D03*
D68*
X18661Y9055D02*
D03*
X8346Y1496D02*
D03*
X18661Y5630D02*
D03*
X2992Y18819D02*
D03*
X18661Y12480D02*
D03*
X16850Y18268D02*
D03*
X16378Y1063D02*
D03*
D69*
X787Y12992D02*
D03*
X10630Y18898D02*
D03*
X9252D02*
D03*
X7874D02*
D03*
X12008D02*
D03*
X787Y11614D02*
D03*
Y14370D02*
D03*
Y15748D02*
D03*
X787Y8858D02*
D03*
Y10236D02*
D03*
D70*
X5984Y16142D02*
D03*
D71*
X4016Y16142D02*
D03*
X2598Y8268D02*
D03*
D72*
X2598Y10236D02*
D03*
D73*
X6378Y2323D02*
D03*
X4646D02*
D03*
D74*
X1181Y18504D02*
D03*
X18504D02*
D03*
Y1181D02*
D03*
X1181D02*
D03*
D75*
X7520Y18150D02*
D03*
X2402Y2953D02*
D03*
X8268Y17520D02*
D03*
X7677Y16929D02*
D03*
X4567Y2874D02*
D03*
X1850Y2953D02*
D03*
M02*
