G04 Layer_Color=32896*
%FSLAX24Y24*%
%MOIN*%
G70*
G01*
G75*
%ADD49C,0.0079*%
%ADD51C,0.0050*%
D49*
X1522Y11946D02*
G03*
X1522Y12196I0J125D01*
G01*
X3518Y15338D02*
G03*
X3518Y15088I0J-125D01*
G01*
X17100Y15361D02*
G03*
X17100Y15111I0J-125D01*
G01*
X10650Y4439D02*
G03*
X10650Y4537I0J49D01*
G01*
X1522Y12313D02*
X3522D01*
Y11829D02*
Y12313D01*
X1522Y11829D02*
X3522D01*
X1522D02*
Y11946D01*
Y12196D02*
Y12313D01*
X1518Y14970D02*
X3518D01*
X1518D02*
Y15455D01*
X3518D01*
Y15338D02*
Y15455D01*
Y14970D02*
Y15088D01*
X17100Y14807D02*
Y15111D01*
Y15361D02*
Y15665D01*
X13100D02*
X17100D01*
X13100Y14807D02*
Y15665D01*
Y14807D02*
X17100D01*
X10650Y4537D02*
Y4740D01*
Y4236D02*
Y4439D01*
Y4236D02*
X11634D01*
Y4740D01*
X10650D02*
X11634D01*
D51*
X3198Y3425D02*
X3888D01*
X3198Y3740D02*
X3888D01*
X16662Y16899D02*
Y17274D01*
X16802Y16899D02*
Y17274D01*
X13395Y16899D02*
Y17274D01*
X13535Y16899D02*
Y17274D01*
X16802Y13238D02*
Y13613D01*
X16662Y13238D02*
Y13613D01*
X13434Y13198D02*
Y13573D01*
X13574Y13198D02*
Y13573D01*
X16702Y2883D02*
Y3258D01*
X16842Y2883D02*
Y3258D01*
X16702Y4891D02*
Y5266D01*
X16842Y4891D02*
Y5266D01*
X1505Y7244D02*
X2195D01*
X1505Y6929D02*
X2195D01*
X1505Y5442D02*
X1880D01*
X1505Y5582D02*
X1880D01*
X4956Y3393D02*
Y3773D01*
X4256Y3383D02*
Y3783D01*
X10255Y2478D02*
X10375D01*
X10255Y2798D02*
X10375D01*
X11515Y2478D02*
X11635D01*
X11515Y2798D02*
X11635D01*
X16712Y4609D02*
X16832D01*
X16712Y4289D02*
X16832D01*
X16712Y3861D02*
X16832D01*
X16712Y3541D02*
X16832D01*
X4249Y6318D02*
Y6438D01*
X4569Y6318D02*
Y6438D01*
X4879Y6318D02*
Y6438D01*
X5199Y6318D02*
Y6438D01*
X5509Y6318D02*
Y6438D01*
X5829Y6318D02*
Y6438D01*
X6139Y6318D02*
Y6438D01*
X6459Y6318D02*
Y6438D01*
X6769Y6318D02*
Y6438D01*
X7089Y6318D02*
Y6438D01*
X7399Y6318D02*
Y6438D01*
X7719Y6318D02*
Y6438D01*
M02*
