G04 Layer_Color=8388736*
%FSLAX24Y24*%
%MOIN*%
G70*
G01*
G75*
G04:AMPARAMS|DCode=52|XSize=66.9mil|YSize=43.3mil|CornerRadius=12.8mil|HoleSize=0mil|Usage=FLASHONLY|Rotation=180.000|XOffset=0mil|YOffset=0mil|HoleType=Round|Shape=RoundedRectangle|*
%AMROUNDEDRECTD52*
21,1,0.0669,0.0177,0,0,180.0*
21,1,0.0413,0.0433,0,0,180.0*
1,1,0.0256,-0.0207,0.0089*
1,1,0.0256,0.0207,0.0089*
1,1,0.0256,0.0207,-0.0089*
1,1,0.0256,-0.0207,-0.0089*
%
%ADD52ROUNDEDRECTD52*%
%ADD53O,0.0768X0.0295*%
%ADD54O,0.0295X0.0768*%
G04:AMPARAMS|DCode=55|XSize=47.2mil|YSize=43.3mil|CornerRadius=8.4mil|HoleSize=0mil|Usage=FLASHONLY|Rotation=270.000|XOffset=0mil|YOffset=0mil|HoleType=Round|Shape=RoundedRectangle|*
%AMROUNDEDRECTD55*
21,1,0.0472,0.0266,0,0,270.0*
21,1,0.0305,0.0433,0,0,270.0*
1,1,0.0167,-0.0133,-0.0153*
1,1,0.0167,-0.0133,0.0153*
1,1,0.0167,0.0133,0.0153*
1,1,0.0167,0.0133,-0.0153*
%
%ADD55ROUNDEDRECTD55*%
G04:AMPARAMS|DCode=56|XSize=47.2mil|YSize=43.3mil|CornerRadius=8.4mil|HoleSize=0mil|Usage=FLASHONLY|Rotation=180.000|XOffset=0mil|YOffset=0mil|HoleType=Round|Shape=RoundedRectangle|*
%AMROUNDEDRECTD56*
21,1,0.0472,0.0266,0,0,180.0*
21,1,0.0305,0.0433,0,0,180.0*
1,1,0.0167,-0.0153,0.0133*
1,1,0.0167,0.0153,0.0133*
1,1,0.0167,0.0153,-0.0133*
1,1,0.0167,-0.0153,-0.0133*
%
%ADD56ROUNDEDRECTD56*%
G04:AMPARAMS|DCode=57|XSize=106.3mil|YSize=94.5mil|CornerRadius=14.8mil|HoleSize=0mil|Usage=FLASHONLY|Rotation=0.000|XOffset=0mil|YOffset=0mil|HoleType=Round|Shape=RoundedRectangle|*
%AMROUNDEDRECTD57*
21,1,0.1063,0.0650,0,0,0.0*
21,1,0.0768,0.0945,0,0,0.0*
1,1,0.0295,0.0384,-0.0325*
1,1,0.0295,-0.0384,-0.0325*
1,1,0.0295,-0.0384,0.0325*
1,1,0.0295,0.0384,0.0325*
%
%ADD57ROUNDEDRECTD57*%
%ADD58R,0.0866X0.1063*%
%ADD59R,0.0276X0.0965*%
%ADD60R,0.0276X0.0472*%
%ADD61R,0.0472X0.0472*%
%ADD62R,0.0709X0.0866*%
%ADD63R,0.0492X0.0315*%
%ADD64R,0.0551X0.0315*%
%ADD65O,0.0551X0.0315*%
%ADD66R,0.0866X0.0472*%
%ADD67C,0.1024*%
%ADD68C,0.0610*%
%ADD69R,0.0610X0.0610*%
%ADD70R,0.0610X0.0610*%
%ADD71C,0.0433*%
%ADD72C,0.0591*%
%ADD73C,0.0079*%
%ADD74C,0.0866*%
D52*
X6437Y5374D02*
D03*
Y6043D02*
D03*
X7657Y5374D02*
D03*
Y6043D02*
D03*
X4311Y5374D02*
D03*
Y6043D02*
D03*
X5531Y5374D02*
D03*
Y6043D02*
D03*
D53*
X7579Y7402D02*
D03*
Y7717D02*
D03*
Y8031D02*
D03*
Y8346D02*
D03*
Y8661D02*
D03*
Y8976D02*
D03*
Y9291D02*
D03*
Y9606D02*
D03*
Y9921D02*
D03*
Y10236D02*
D03*
Y10551D02*
D03*
X12028D02*
D03*
Y10236D02*
D03*
Y9921D02*
D03*
Y9606D02*
D03*
Y9291D02*
D03*
Y8976D02*
D03*
Y8661D02*
D03*
Y8346D02*
D03*
Y8031D02*
D03*
Y7717D02*
D03*
Y7402D02*
D03*
D54*
X8228Y11201D02*
D03*
X8543D02*
D03*
X8858D02*
D03*
X9173D02*
D03*
X9488D02*
D03*
X9803D02*
D03*
X10118D02*
D03*
X10433D02*
D03*
X10748D02*
D03*
X11063D02*
D03*
X11378D02*
D03*
Y6752D02*
D03*
X11063D02*
D03*
X10748D02*
D03*
X10433D02*
D03*
X10118D02*
D03*
X9803D02*
D03*
X9488D02*
D03*
X9173D02*
D03*
X8858D02*
D03*
X8543D02*
D03*
X8228D02*
D03*
D55*
X13091Y7638D02*
D03*
X13760D02*
D03*
X6161Y10669D02*
D03*
X6831D02*
D03*
X6555Y7244D02*
D03*
X5886D02*
D03*
X6555Y8152D02*
D03*
X5886D02*
D03*
X13760Y7008D02*
D03*
X13091D02*
D03*
X2539Y14685D02*
D03*
X3209D02*
D03*
X13445Y10591D02*
D03*
X14114D02*
D03*
D56*
X11181Y12657D02*
D03*
Y11988D02*
D03*
X10000Y5768D02*
D03*
Y5098D02*
D03*
X3268Y15374D02*
D03*
Y16043D02*
D03*
X2795Y12067D02*
D03*
Y11398D02*
D03*
X8425Y5768D02*
D03*
Y5098D02*
D03*
X9055Y5768D02*
D03*
Y5098D02*
D03*
X8110Y12657D02*
D03*
Y11988D02*
D03*
X10551Y11988D02*
D03*
Y12657D02*
D03*
D57*
X9803Y17008D02*
D03*
X7913D02*
D03*
D58*
X3760Y1181D02*
D03*
X7264D02*
D03*
Y3327D02*
D03*
X3760D02*
D03*
D59*
X6142Y3376D02*
D03*
X5827D02*
D03*
X5512D02*
D03*
X5197D02*
D03*
X4882D02*
D03*
D60*
X9134Y3346D02*
D03*
X8858D02*
D03*
X9409D02*
D03*
X10118D02*
D03*
X9843D02*
D03*
X10394D02*
D03*
D61*
X1850Y3465D02*
D03*
Y3937D02*
D03*
X1299Y3465D02*
D03*
Y3937D02*
D03*
X2402Y3465D02*
D03*
Y3937D02*
D03*
D62*
X15000Y6024D02*
D03*
Y3898D02*
D03*
X13504Y6024D02*
D03*
Y3898D02*
D03*
D63*
X12057Y17461D02*
D03*
Y17087D02*
D03*
Y16713D02*
D03*
X10935D02*
D03*
Y17087D02*
D03*
Y17461D02*
D03*
D64*
X3346Y13307D02*
D03*
D65*
Y13681D02*
D03*
Y14055D02*
D03*
X2315Y13307D02*
D03*
Y13681D02*
D03*
Y14055D02*
D03*
D66*
X13346Y8898D02*
D03*
Y9488D02*
D03*
Y8307D02*
D03*
D67*
X787Y11614D02*
D03*
Y12992D02*
D03*
Y15748D02*
D03*
Y14370D02*
D03*
X9252Y18898D02*
D03*
X7874D02*
D03*
X10630D02*
D03*
X12008D02*
D03*
X787Y8858D02*
D03*
Y10236D02*
D03*
D68*
X2598Y8268D02*
D03*
X4016Y16142D02*
D03*
D69*
X2598Y10236D02*
D03*
D70*
X5984Y16142D02*
D03*
D71*
X6378Y2323D02*
D03*
X4646D02*
D03*
D72*
X9398Y1787D02*
D03*
X10398D02*
D03*
X10898Y787D02*
D03*
X11398Y1787D02*
D03*
X8898Y787D02*
D03*
X9898D02*
D03*
X15799Y17976D02*
D03*
X16299Y18976D02*
D03*
X14799Y17976D02*
D03*
X13799D02*
D03*
X15299Y18976D02*
D03*
X14299D02*
D03*
X15327Y772D02*
D03*
X15827Y1772D02*
D03*
X14327Y772D02*
D03*
X13327D02*
D03*
X14827Y1772D02*
D03*
X13827D02*
D03*
X18953Y4579D02*
D03*
X17953Y4079D02*
D03*
X18953Y3579D02*
D03*
X17953Y5079D02*
D03*
X18953Y11429D02*
D03*
X17953Y10929D02*
D03*
X18953Y10429D02*
D03*
X17953Y11929D02*
D03*
X4043Y19110D02*
D03*
X3543Y18110D02*
D03*
X5043Y19110D02*
D03*
X6043D02*
D03*
X4543Y18110D02*
D03*
X5543D02*
D03*
X18953Y7004D02*
D03*
X17953Y7504D02*
D03*
X18953Y8004D02*
D03*
X17953Y8504D02*
D03*
X787Y6480D02*
D03*
Y5480D02*
D03*
Y7480D02*
D03*
D73*
X8346Y1496D02*
D03*
X16850Y18268D02*
D03*
X16378Y1063D02*
D03*
X18661Y5630D02*
D03*
Y12480D02*
D03*
X2992Y18819D02*
D03*
X18661Y9055D02*
D03*
D74*
X1181Y18504D02*
D03*
X18504D02*
D03*
Y1181D02*
D03*
X1181D02*
D03*
M02*
