G04 Layer_Color=65535*
%FSLAX24Y24*%
%MOIN*%
G70*
G01*
G75*
%ADD28C,0.0118*%
%ADD29C,0.0236*%
%ADD49C,0.0079*%
%ADD50C,0.0098*%
%ADD51C,0.0050*%
G36*
X9958Y16208D02*
X9558D01*
Y16458D01*
X9958D01*
Y16208D01*
D02*
G37*
G36*
Y17558D02*
X9558D01*
Y17808D01*
X9958D01*
Y17558D01*
D02*
G37*
D28*
X13976Y12625D02*
X14186Y12205D01*
X14396Y12625D01*
X14606Y12729D02*
X14711Y12834D01*
X14921D01*
X15026Y12729D01*
Y12310D01*
X14921Y12205D01*
X14711D01*
X14606Y12310D01*
Y12729D01*
X15236Y12205D02*
Y12310D01*
X15341D01*
Y12205D01*
X15236D01*
X16180D02*
X15761D01*
X16180Y12625D01*
Y12729D01*
X16075Y12834D01*
X15866D01*
X15761Y12729D01*
D29*
X8602Y7657D02*
G03*
X8602Y7657I-118J0D01*
G01*
D49*
X7913Y5039D02*
G03*
X7913Y5039I-39J0D01*
G01*
X5787D02*
G03*
X5787Y5039I-39J0D01*
G01*
X2926Y8536D02*
G03*
X3022Y9916I-327J716D01*
G01*
X2175D02*
G03*
X2271Y8536I423J-664D01*
G01*
X4284Y15814D02*
G03*
X5664Y15718I716J327D01*
G01*
Y16565D02*
G03*
X4284Y16469I-664J-423D01*
G01*
X11516Y7264D02*
Y10689D01*
X8091Y7264D02*
Y10689D01*
X11516D01*
X8091Y7264D02*
X11516D01*
X11693Y16476D02*
Y17697D01*
X11299Y16476D02*
Y17697D01*
Y16476D02*
X11693D01*
X11299Y17697D02*
X11693D01*
X2880Y13120D02*
Y14242D01*
X2781D02*
X2880D01*
X2781Y13120D02*
Y14242D01*
Y13120D02*
X2880D01*
X9803Y18898D02*
Y19488D01*
X7323D02*
X9803D01*
X7323Y18898D02*
Y19488D01*
X12559Y18898D02*
Y19488D01*
X10079D02*
X12559D01*
X10079Y18898D02*
Y19488D01*
X197Y16339D02*
X787D01*
X197Y13858D02*
Y16339D01*
Y13858D02*
X787D01*
X197Y13504D02*
X787D01*
X197Y11024D02*
Y13504D01*
Y11024D02*
X787D01*
X197Y8346D02*
X787D01*
X197D02*
Y10827D01*
X787D01*
X1102Y12441D02*
X1378Y12717D01*
Y14685D01*
X1102Y14961D02*
X1378Y14685D01*
X10315Y4055D02*
Y3661D01*
X10512D01*
X10577Y3727D01*
Y3793D01*
X10512Y3858D01*
X10315D01*
X10512D01*
X10577Y3924D01*
Y3989D01*
X10512Y4055D01*
X10315D01*
X9291Y3661D02*
Y3924D01*
X9423Y4055D01*
X9554Y3924D01*
Y3661D01*
Y3858D01*
X9291D01*
X1798Y4646D02*
X1535D01*
Y4449D01*
X1667Y4514D01*
X1732D01*
X1798Y4449D01*
Y4318D01*
X1732Y4252D01*
X1601D01*
X1535Y4318D01*
X1929Y4646D02*
Y4383D01*
X2060Y4252D01*
X2191Y4383D01*
Y4646D01*
X2598Y787D02*
X2205D01*
Y984D01*
X2270Y1050D01*
X2402D01*
X2467Y984D01*
Y787D01*
Y919D02*
X2598Y1050D01*
X2270Y1443D02*
X2205Y1378D01*
Y1247D01*
X2270Y1181D01*
X2336D01*
X2402Y1247D01*
Y1378D01*
X2467Y1443D01*
X2533D01*
X2598Y1378D01*
Y1247D01*
X2533Y1181D01*
X2598Y1771D02*
X2205D01*
X2402Y1575D01*
Y1837D01*
X2270Y1968D02*
X2205Y2034D01*
Y2165D01*
X2270Y2231D01*
X2336D01*
X2402Y2165D01*
X2467Y2231D01*
X2533D01*
X2598Y2165D01*
Y2034D01*
X2533Y1968D01*
X2467D01*
X2402Y2034D01*
X2336Y1968D01*
X2270D01*
X2402Y2034D02*
Y2165D01*
X2205Y2624D02*
Y2362D01*
X2402D01*
X2336Y2493D01*
Y2558D01*
X2402Y2624D01*
X2533D01*
X2598Y2558D01*
Y2427D01*
X2533Y2362D01*
X1654Y1654D02*
X1982D01*
X2047Y1719D01*
Y1850D01*
X1982Y1916D01*
X1654D01*
X1719Y2309D02*
X1654Y2244D01*
Y2113D01*
X1719Y2047D01*
X1785D01*
X1850Y2113D01*
Y2244D01*
X1916Y2309D01*
X1982D01*
X2047Y2244D01*
Y2113D01*
X1982Y2047D01*
X1654Y2441D02*
X2047D01*
Y2637D01*
X1982Y2703D01*
X1916D01*
X1850Y2637D01*
Y2441D01*
Y2637D01*
X1785Y2703D01*
X1719D01*
X1654Y2637D01*
Y2441D01*
X1496Y2008D02*
X1102D01*
Y2205D01*
X1168Y2270D01*
X1299D01*
X1365Y2205D01*
Y2008D01*
Y2139D02*
X1496Y2270D01*
X1102Y2664D02*
Y2401D01*
X1496D01*
Y2664D01*
X1299Y2401D02*
Y2533D01*
X1168Y3057D02*
X1102Y2992D01*
Y2861D01*
X1168Y2795D01*
X1430D01*
X1496Y2861D01*
Y2992D01*
X1430Y3057D01*
X1299D01*
Y2926D01*
X16220Y4606D02*
X15827D01*
Y4803D01*
X15892Y4869D01*
X16024D01*
X16089Y4803D01*
Y4606D01*
Y4737D02*
X16220Y4869D01*
X15892Y5262D02*
X15827Y5197D01*
Y5065D01*
X15892Y5000D01*
X15958D01*
X16024Y5065D01*
Y5197D01*
X16089Y5262D01*
X16155D01*
X16220Y5197D01*
Y5065D01*
X16155Y5000D01*
X15827Y5393D02*
Y5656D01*
Y5525D01*
X16220D01*
X12244Y4646D02*
X12638D01*
X12441D01*
Y4908D01*
X12244D01*
X12638D01*
X12244Y5039D02*
X12638D01*
X12507Y5170D01*
X12638Y5302D01*
X12244D01*
Y5433D02*
X12638D01*
Y5630D01*
X12572Y5695D01*
X12507D01*
X12441Y5630D01*
Y5433D01*
Y5630D01*
X12375Y5695D01*
X12310D01*
X12244Y5630D01*
Y5433D01*
X12598Y18386D02*
Y17992D01*
X12402D01*
X12336Y18058D01*
Y18189D01*
X12402Y18255D01*
X12598D01*
X12205Y17992D02*
Y18386D01*
X12074Y18255D01*
X11942Y18386D01*
Y17992D01*
X11811Y18386D02*
Y17992D01*
X11614D01*
X11549Y18058D01*
Y18189D01*
X11614Y18255D01*
X11811D01*
X11680D02*
X11549Y18386D01*
X11418Y18189D02*
X11155D01*
X11024Y17992D02*
X10893D01*
X10959D01*
Y18386D01*
X11024D01*
X10893D01*
X10696D02*
Y17992D01*
X10434Y18386D01*
Y17992D01*
X1417Y9921D02*
Y9659D01*
X1548Y9790D02*
X1286D01*
X1417Y9213D02*
Y8950D01*
X1654Y7165D02*
X1785D01*
X1719D01*
Y7559D01*
X1654Y7493D01*
X2244Y7559D02*
X2113Y7493D01*
X1982Y7362D01*
Y7231D01*
X2047Y7165D01*
X2178D01*
X2244Y7231D01*
Y7297D01*
X2178Y7362D01*
X1982D01*
X2375Y7559D02*
Y7297D01*
X2506Y7165D01*
X2637Y7297D01*
Y7559D01*
X1916Y5866D02*
X1654D01*
Y5669D01*
X1785Y5735D01*
X1850D01*
X1916Y5669D01*
Y5538D01*
X1850Y5472D01*
X1719D01*
X1654Y5538D01*
X2047Y5866D02*
Y5604D01*
X2178Y5472D01*
X2309Y5604D01*
Y5866D01*
X1916Y6667D02*
X1850Y6732D01*
X1719D01*
X1654Y6667D01*
Y6404D01*
X1719Y6339D01*
X1850D01*
X1916Y6404D01*
Y6535D01*
X1785D01*
X2047Y6339D02*
Y6732D01*
X2309Y6339D01*
Y6732D01*
X2441D02*
Y6339D01*
X2637D01*
X2703Y6404D01*
Y6667D01*
X2637Y6732D01*
X2441D01*
X2835Y7835D02*
X3228D01*
Y7638D01*
X3163Y7572D01*
X3031D01*
X2966Y7638D01*
Y7835D01*
X3228Y7441D02*
X2835D01*
X2966Y7310D01*
X2835Y7179D01*
X3228D01*
X2835Y7048D02*
X3228D01*
Y6851D01*
X3163Y6785D01*
X3031D01*
X2966Y6851D01*
Y7048D01*
Y6916D02*
X2835Y6785D01*
X3031Y6654D02*
Y6392D01*
X2835Y6260D02*
X3228D01*
Y6064D01*
X3163Y5998D01*
X3031D01*
X2966Y6064D01*
Y6260D01*
Y6129D02*
X2835Y5998D01*
X3228Y5604D02*
Y5867D01*
X2835D01*
Y5604D01*
X3031Y5867D02*
Y5736D01*
X3163Y5211D02*
X3228Y5276D01*
Y5408D01*
X3163Y5473D01*
X2900D01*
X2835Y5408D01*
Y5276D01*
X2900Y5211D01*
X3031D01*
Y5342D01*
X1968Y16024D02*
Y15892D01*
Y15958D01*
X1575D01*
Y16024D01*
Y15892D01*
Y15696D02*
X1968D01*
X1575Y15433D01*
X1968D01*
X5394Y16299D02*
Y16037D01*
X5525Y16168D02*
X5262D01*
X2598Y9764D02*
Y9501D01*
X2730Y9633D02*
X2467D01*
X1457Y10787D02*
X1850D01*
Y10591D01*
X1785Y10525D01*
X1653D01*
X1588Y10591D01*
Y10787D01*
X1785Y10131D02*
X1850Y10197D01*
Y10328D01*
X1785Y10394D01*
X1522D01*
X1457Y10328D01*
Y10197D01*
X1522Y10131D01*
X1811Y12126D02*
X1417D01*
Y11929D01*
X1483Y11864D01*
X1549D01*
X1614Y11929D01*
Y12126D01*
Y11929D01*
X1680Y11864D01*
X1745D01*
X1811Y11929D01*
Y12126D01*
X1417Y11732D02*
X1680D01*
X1811Y11601D01*
X1680Y11470D01*
X1417D01*
X1614D01*
Y11732D01*
X1811Y11339D02*
Y11076D01*
Y11208D01*
X1417D01*
X2008Y12126D02*
Y11995D01*
Y12060D01*
X2401D01*
X2336Y12126D01*
X2401Y11536D02*
X2336Y11667D01*
X2205Y11798D01*
X2073D01*
X2008Y11732D01*
Y11601D01*
X2073Y11536D01*
X2139D01*
X2205Y11601D01*
Y11798D01*
X2401Y11404D02*
X2139D01*
X2008Y11273D01*
X2139Y11142D01*
X2401D01*
X1863Y13675D02*
X1929Y13740D01*
Y13871D01*
X1863Y13937D01*
X1601D01*
X1535Y13871D01*
Y13740D01*
X1601Y13675D01*
X1732D01*
Y13806D01*
X1535Y13543D02*
X1929D01*
X1535Y13281D01*
X1929D01*
Y13150D02*
X1535D01*
Y12953D01*
X1601Y12887D01*
X1863D01*
X1929Y12953D01*
Y13150D01*
X2244Y16181D02*
Y16050D01*
Y16116D01*
X2638D01*
X2572Y16181D01*
X2310Y15853D02*
X2244Y15788D01*
Y15656D01*
X2310Y15591D01*
X2572D01*
X2638Y15656D01*
Y15788D01*
X2572Y15853D01*
X2506D01*
X2441Y15788D01*
Y15591D01*
X2638Y15460D02*
X2375D01*
X2244Y15328D01*
X2375Y15197D01*
X2638D01*
X5249Y17192D02*
X5315Y17126D01*
X5446D01*
X5512Y17192D01*
Y17257D01*
X5446Y17323D01*
X5315D01*
X5249Y17388D01*
Y17454D01*
X5315Y17520D01*
X5446D01*
X5512Y17454D01*
X4856Y17126D02*
X5118D01*
Y17520D01*
X4856D01*
X5118Y17323D02*
X4987D01*
X4725Y17520D02*
Y17126D01*
X4528D01*
X4462Y17192D01*
Y17323D01*
X4528Y17388D01*
X4725D01*
X4593D02*
X4462Y17520D01*
X4331Y17126D02*
Y17388D01*
X4200Y17520D01*
X4069Y17388D01*
Y17126D01*
X3741D02*
X3872D01*
X3938Y17192D01*
Y17454D01*
X3872Y17520D01*
X3741D01*
X3675Y17454D01*
Y17192D01*
X3741Y17126D01*
X3282Y17192D02*
X3347Y17126D01*
X3478D01*
X3544Y17192D01*
Y17257D01*
X3478Y17323D01*
X3347D01*
X3282Y17388D01*
Y17454D01*
X3347Y17520D01*
X3478D01*
X3544Y17454D01*
X12835Y18622D02*
X12572D01*
X10079Y18701D02*
X9816D01*
X9948Y18570D02*
Y18832D01*
X9961Y18386D02*
Y17992D01*
X9829Y18123D01*
X9698Y17992D01*
Y18386D01*
X9370Y17992D02*
X9501D01*
X9567Y18058D01*
Y18320D01*
X9501Y18386D01*
X9370D01*
X9305Y18320D01*
Y18058D01*
X9370Y17992D01*
X8911Y18058D02*
X8977Y17992D01*
X9108D01*
X9173Y18058D01*
Y18123D01*
X9108Y18189D01*
X8977D01*
X8911Y18255D01*
Y18320D01*
X8977Y18386D01*
X9108D01*
X9173Y18320D01*
X8518Y17992D02*
X8780D01*
Y18189D01*
X8649D01*
X8780D01*
Y18386D01*
X8124Y17992D02*
X8386D01*
Y18386D01*
X8124D01*
X8386Y18189D02*
X8255D01*
X7993Y17992D02*
X7730D01*
X7862D01*
Y18386D01*
X15564Y16995D02*
X15630Y16929D01*
X15761D01*
X15827Y16995D01*
Y17257D01*
X15761Y17323D01*
X15630D01*
X15564Y17257D01*
X15236Y16929D02*
X15368D01*
X15433Y16995D01*
Y17257D01*
X15368Y17323D01*
X15236D01*
X15171Y17257D01*
Y16995D01*
X15236Y16929D01*
X15040D02*
X14908D01*
X14974D01*
Y17323D01*
X15040D01*
X14908D01*
X14712Y16929D02*
Y17323D01*
X14449D01*
X16929Y10827D02*
X17323D01*
Y11024D01*
X17257Y11089D01*
X17192D01*
X17126Y11024D01*
Y10827D01*
Y11024D01*
X17060Y11089D01*
X16995D01*
X16929Y11024D01*
Y10827D01*
X17323Y11220D02*
X17060D01*
X16929Y11352D01*
X17060Y11483D01*
X17323D01*
X17126D01*
Y11220D01*
X16929Y11614D02*
X17323D01*
Y11876D01*
X16929Y12007D02*
X17323D01*
Y12270D01*
X16929Y8268D02*
Y8399D01*
Y8333D01*
X17323D01*
Y8268D01*
Y8399D01*
X16929Y8792D02*
Y8661D01*
X16995Y8596D01*
X17257D01*
X17323Y8661D01*
Y8792D01*
X17257Y8858D01*
X16995D01*
X16929Y8792D01*
X16890Y3937D02*
X17283D01*
Y4134D01*
X17218Y4199D01*
X17152D01*
X17087Y4134D01*
Y3937D01*
Y4134D01*
X17021Y4199D01*
X16955D01*
X16890Y4134D01*
Y3937D01*
Y4331D02*
Y4593D01*
Y4462D01*
X17283D01*
Y4724D02*
X16890D01*
X17283Y4987D01*
X16890D01*
X16955Y5380D02*
X16890Y5315D01*
Y5183D01*
X16955Y5118D01*
X17021D01*
X17087Y5183D01*
Y5315D01*
X17152Y5380D01*
X17218D01*
X17283Y5315D01*
Y5183D01*
X17218Y5118D01*
X15223Y2690D02*
X15157Y2756D01*
X15026D01*
X14961Y2690D01*
Y2625D01*
X15026Y2559D01*
X15157D01*
X15223Y2493D01*
Y2428D01*
X15157Y2362D01*
X15026D01*
X14961Y2428D01*
X15354Y2362D02*
Y2756D01*
X15551D01*
X15617Y2690D01*
Y2559D01*
X15551Y2493D01*
X15354D01*
X15748Y2756D02*
X15879D01*
X15813D01*
Y2362D01*
X15748D01*
X15879D01*
X11220D02*
Y2756D01*
X11417D01*
X11483Y2690D01*
Y2559D01*
X11417Y2493D01*
X11220D01*
X11352D02*
X11483Y2362D01*
X11876Y2690D02*
X11811Y2756D01*
X11680D01*
X11614Y2690D01*
Y2625D01*
X11680Y2559D01*
X11811D01*
X11876Y2493D01*
Y2428D01*
X11811Y2362D01*
X11680D01*
X11614Y2428D01*
X12204Y2362D02*
Y2756D01*
X12008Y2559D01*
X12270D01*
X12401Y2690D02*
X12467Y2756D01*
X12598D01*
X12664Y2690D01*
Y2625D01*
X12598Y2559D01*
X12664Y2493D01*
Y2428D01*
X12598Y2362D01*
X12467D01*
X12401Y2428D01*
Y2493D01*
X12467Y2559D01*
X12401Y2625D01*
Y2690D01*
X12467Y2559D02*
X12598D01*
X13057Y2756D02*
X12795D01*
Y2559D01*
X12926Y2625D01*
X12992D01*
X13057Y2559D01*
Y2428D01*
X12992Y2362D01*
X12860D01*
X12795Y2428D01*
D50*
X7953Y6752D02*
G03*
X7953Y6752I-49J0D01*
G01*
X10984Y17795D02*
G03*
X10984Y17795I-49J0D01*
G01*
D51*
X13495Y7450D02*
Y7825D01*
X13355Y7450D02*
Y7825D01*
X10994Y12253D02*
X11369D01*
X10994Y12393D02*
X11369D01*
X6566Y10482D02*
Y10857D01*
X6426Y10482D02*
Y10857D01*
X6150Y7057D02*
Y7432D01*
X6290Y7057D02*
Y7432D01*
X6150Y7965D02*
Y8339D01*
X6290Y7965D02*
Y8339D01*
X9813Y5363D02*
X10187D01*
X9813Y5503D02*
X10187D01*
X3080Y15779D02*
X3455D01*
X3080Y15639D02*
X3455D01*
X2608Y11662D02*
X2983D01*
X2608Y11802D02*
X2983D01*
X9558Y16208D02*
X9958D01*
Y16458D01*
X9558Y16208D02*
Y16458D01*
X9958D01*
X7858Y16208D02*
X9558D01*
X7858D02*
Y16458D01*
X9958Y17558D02*
Y17808D01*
X9558Y17558D02*
Y17808D01*
Y17558D02*
X9958D01*
X9558Y17808D02*
X9958D01*
X7858Y17558D02*
Y17808D01*
X9558D01*
X8265Y5373D02*
Y5493D01*
X8585Y5373D02*
Y5493D01*
X8895Y5373D02*
Y5493D01*
X9215Y5373D02*
Y5493D01*
X13365Y7168D02*
X13485D01*
X13365Y6848D02*
X13485D01*
X7950Y12263D02*
Y12383D01*
X8270Y12263D02*
Y12383D01*
X2814Y14525D02*
X2934D01*
X2814Y14845D02*
X2934D01*
X13720Y10751D02*
X13840D01*
X13720Y10431D02*
X13840D01*
X10711Y12263D02*
Y12383D01*
X10391Y12263D02*
Y12383D01*
M02*
